<svg width="420" height="320" viewBox="0 0 420 320" fill="none" xmlns="http://www.w3.org/2000/svg">
<path d="M391.211 295.797L402.379 183.477C402.606 181.071 402.343 178.645 401.611 176.341L361.931 53.1415C360.907 49.969 359.003 47.1517 356.443 45.0164C353.883 42.8813 350.772 41.5156 347.467 41.0775L128.202 12.1495C125.192 11.7546 122.13 12.1453 119.315 13.2836C116.501 14.4221 114.028 16.2692 112.138 18.6455L36.8104 113.429C34.1083 116.824 32.7627 121.1 33.0344 125.429L43.2744 295.541L391.211 295.797Z" fill="#F7F7F7"/>
<path d="M76.9388 240.565H50.0908C49.87 240.565 49.6585 240.478 49.5026 240.322C49.3465 240.166 49.2588 239.954 49.2588 239.733C49.2588 239.513 49.3465 239.301 49.5026 239.145C49.6585 238.989 49.87 238.901 50.0908 238.901H76.9388C77.0482 238.9 77.1567 238.921 77.2581 238.963C77.3596 239.004 77.4514 239.066 77.5289 239.143C77.6063 239.22 77.6677 239.313 77.7093 239.414C77.7506 239.515 77.7718 239.624 77.7708 239.733C77.7666 239.953 77.6777 240.162 77.5225 240.317C77.3673 240.472 77.1583 240.561 76.9388 240.565Z" fill="#61656D"/>
<path d="M75.8186 240.566L80.2666 295.349H79.3706L72.6826 240.566H75.8186Z" fill="#61656D"/>
<path d="M51.0513 240.566L46.5713 295.349H47.4673L54.1553 240.566H51.0513Z" fill="#61656D"/>
<path d="M51.0505 240.566L50.9225 241.622H52.4585L47.0825 295.349H47.4665L54.1545 240.566H51.0505Z" fill="#3F4249"/>
<path d="M77.0346 261.558H76.2346L72.6826 240.566H75.8186L80.2666 295.349H79.8186L77.0346 261.558Z" fill="#3F4249"/>
<path d="M61.5151 240.566L62.2191 295.349H63.1151L64.6511 240.566H61.5151Z" fill="#3F4249"/>
<path d="M67.7549 225.366C67.7549 225.366 69.7069 209.782 74.1869 201.27" stroke="#868A91" stroke-width="0.55" stroke-miterlimit="10"/>
<path d="M64.459 198.581C64.459 198.581 67.499 211.125 67.019 219.797" stroke="#868A91" stroke-width="0.55" stroke-miterlimit="10"/>
<path d="M73.7715 202.037C73.7715 202.037 73.8035 193.621 81.1635 193.141C81.1635 193.109 81.7715 200.501 73.7715 202.037Z" fill="#304FFE"/>
<path d="M56.1394 200.214C56.1394 200.214 54.1554 192.214 45.4514 194.486C45.4514 194.486 47.1154 200.342 56.1394 200.214Z" fill="#304FFE"/>
<path d="M65.5791 203.509C65.5791 203.509 68.1711 196.693 62.1551 193.141C62.1551 193.109 59.4991 199.829 65.5791 203.509Z" fill="#304FFE"/>
<path d="M56.1387 200.213C56.1387 200.213 64.1387 209.365 64.1387 225.365" stroke="#868A91" stroke-width="0.55" stroke-miterlimit="10"/>
<path d="M70.218 198.966C68.458 206.006 67.69 207.542 66.666 225.366" stroke="#868A91" stroke-width="0.55" stroke-miterlimit="10"/>
<path d="M49.5151 189.206C53.0351 190.806 64.1391 202.454 62.2831 225.078" stroke="#868A91" stroke-width="0.55" stroke-miterlimit="10"/>
<path d="M60.9381 225.077C60.9381 225.077 63.2421 209.397 53.5461 204.181" stroke="#868A91" stroke-width="0.55" stroke-miterlimit="10"/>
<path d="M68.0752 222.997C68.8099 221.18 70.0269 219.598 71.5952 218.421" stroke="#868A91" stroke-width="0.55" stroke-miterlimit="10"/>
<path d="M68.939 218.133C68.939 218.133 74.411 213.301 77.163 212.501" stroke="#868A91" stroke-width="0.55" stroke-miterlimit="10"/>
<path d="M57.8987 208.15C57.8987 208.15 55.7547 199.926 47.1787 201.846C47.1787 201.846 48.6507 208.854 57.8987 208.15Z" fill="#304FFE"/>
<path opacity="0.4" d="M57.8987 208.15C57.8987 208.15 55.7547 199.926 47.1787 201.846C47.1787 201.846 48.6507 208.854 57.8987 208.15Z" fill="white"/>
<path d="M62.2834 216.598C62.2834 216.598 60.8114 210.742 52.9714 212.694C53.0034 212.662 55.5634 218.518 62.2834 216.598Z" fill="#304FFE"/>
<path d="M67.626 212.79C67.626 212.79 68.362 203.606 77.93 202.486C77.898 202.486 78.378 211.478 67.626 212.79Z" fill="#304FFE"/>
<path d="M65.4192 184.822C65.4192 184.822 65.0352 218.774 64.9712 225.366" stroke="#868A91" stroke-width="0.55" stroke-miterlimit="10"/>
<path d="M66.826 210.358C66.826 210.358 58.666 210.774 58.666 201.75C58.666 201.75 66.57 201.846 66.826 210.358Z" fill="#304FFE"/>
<path opacity="0.4" d="M66.826 210.358C66.826 210.358 58.666 210.774 58.666 201.75C58.666 201.75 66.57 201.846 66.826 210.358Z" fill="white"/>
<path d="M74.5713 213.845C74.5713 213.845 76.7793 207.637 83.8193 209.205C83.7873 209.205 82.6353 214.453 74.5713 213.845Z" fill="#304FFE"/>
<path opacity="0.4" d="M74.5713 213.845C74.5713 213.845 76.7793 207.637 83.8193 209.205C83.7873 209.205 82.6353 214.453 74.5713 213.845Z" fill="white"/>
<path d="M71.3065 225.206H56.8425V227.03H71.3065V225.206Z" fill="#868A91"/>
<path d="M69.4822 238.869H58.6662L57.8662 226.997H70.2822L69.4822 238.869Z" fill="#868A91"/>
<path d="M69.4822 238.869H58.6662L57.8662 226.997H70.2822L69.4822 238.869Z" fill="#868A91"/>
<path d="M71.3062 225.206H68.9702V226.998H57.8662L57.8982 227.51H66.7942L66.8262 238.87H69.4822L70.2822 226.998H71.3062V225.206Z" fill="#61656D"/>
<path d="M65.3231 191.83C65.3231 191.83 61.3231 185.782 66.5391 179.99C66.5071 179.99 69.9631 185.878 65.3231 191.83Z" fill="#304FFE"/>
<path opacity="0.4" d="M65.3231 191.83C65.3231 191.83 61.3231 185.782 66.5391 179.99C66.5071 179.99 69.9631 185.878 65.3231 191.83Z" fill="white"/>
<path d="M68.9382 203.989C68.9382 203.989 64.5542 194.613 72.3942 188.853C72.3942 188.853 77.8022 197.333 68.9382 203.989Z" fill="#304FFE"/>
<path opacity="0.4" d="M68.9382 203.989C68.9382 203.989 64.5542 194.613 72.3942 188.853C72.3942 188.853 77.8022 197.333 68.9382 203.989Z" fill="white"/>
<path d="M69.9951 220.021C69.9951 220.021 71.0511 215.925 76.6511 216.789C76.6511 216.789 75.7231 220.949 69.9951 220.021Z" fill="#304FFE"/>
<path d="M62.3783 221.878C62.3783 221.878 61.1623 213.974 68.3943 213.046C68.3943 213.046 70.1223 219.926 62.3783 221.878Z" fill="#304FFE"/>
<path opacity="0.4" d="M62.3783 221.878C62.3783 221.878 61.1623 213.974 68.3943 213.046C68.3943 213.046 70.1223 219.926 62.3783 221.878Z" fill="white"/>
<path d="M47.5315 187.989C47.5315 187.989 51.8835 187.541 52.7155 191.733C51.5507 191.811 50.3955 191.479 49.4493 190.795C48.5027 190.112 47.8246 189.119 47.5315 187.989Z" fill="#304FFE"/>
<path opacity="0.3" d="M47.5315 187.989C47.5315 187.989 51.8835 187.541 52.7155 191.733C51.5507 191.811 50.3955 191.479 49.4493 190.795C48.5027 190.112 47.8246 189.119 47.5315 187.989Z" fill="white"/>
<path d="M58.1543 187.542C58.1543 187.542 52.7463 193.174 58.0263 199.318C58.0263 199.318 63.3703 193.302 58.1543 187.542Z" fill="#304FFE"/>
<path opacity="0.4" d="M58.1543 187.542C58.1543 187.542 52.7463 193.174 58.0263 199.318C58.0263 199.318 63.3703 193.302 58.1543 187.542Z" fill="white"/>
<path d="M367.819 207.797H389.867C390.155 207.797 390.433 207.682 390.635 207.479C390.84 207.274 390.955 206.998 390.955 206.709C390.955 206.421 390.84 206.144 390.635 205.94C390.433 205.736 390.155 205.621 389.867 205.621H367.819V207.797Z" fill="#B2B6BB"/>
<path d="M387.019 206.709H364.779V275.221H387.019V206.709Z" fill="#B2B6BB"/>
<path d="M365.451 206.709H269.482V275.221H365.451V206.709Z" fill="#DADDDF"/>
<path d="M361.995 270.006H272.651V216.246L361.995 216.31V270.006ZM273.163 269.526H361.515V216.822H273.163V269.526Z" fill="#B2B6BB"/>
<path d="M266.954 207.797H367.851C368.139 207.797 368.414 207.682 368.619 207.479C368.824 207.274 368.939 206.998 368.939 206.709C368.939 206.421 368.824 206.144 368.619 205.94C368.414 205.736 368.139 205.621 367.851 205.621H266.954C266.666 205.621 266.389 205.736 266.185 205.94C265.981 206.144 265.866 206.421 265.866 206.709C265.866 206.998 265.981 207.274 266.185 207.479C266.389 207.682 266.666 207.797 266.954 207.797Z" fill="#DADDDF"/>
<path d="M272.67 243.282H362.014V242.77H272.67V243.282Z" fill="#B2B6BB"/>
<path d="M316.555 226.038C316.891 226.038 317.217 225.938 317.496 225.752C317.777 225.565 317.995 225.301 318.123 224.991C318.251 224.681 318.283 224.34 318.219 224.011C318.152 223.682 317.992 223.38 317.755 223.142C317.518 222.905 317.214 222.744 316.884 222.678C316.558 222.613 316.216 222.646 315.905 222.775C315.595 222.903 315.332 223.121 315.144 223.399C314.958 223.678 314.859 224.006 314.859 224.342C314.859 224.791 315.038 225.223 315.355 225.541C315.675 225.859 316.104 226.038 316.555 226.038Z" fill="#B2B6BB"/>
<path opacity="0.15" d="M317.195 224.341C317.195 223.987 317.083 223.643 316.875 223.356C316.67 223.069 316.379 222.854 316.043 222.741C316.216 222.675 316.401 222.643 316.587 222.645C317.035 222.645 317.467 222.824 317.787 223.142C318.104 223.46 318.283 223.891 318.283 224.341C318.283 224.791 318.104 225.222 317.787 225.54C317.467 225.859 317.035 226.037 316.587 226.037C316.401 226.039 316.216 226.007 316.043 225.941C316.376 225.823 316.661 225.606 316.869 225.32C317.073 225.035 317.189 224.693 317.195 224.341Z" fill="black"/>
<path d="M316.555 252.469C316.891 252.469 317.217 252.37 317.496 252.184C317.777 251.997 317.995 251.733 318.123 251.423C318.251 251.113 318.283 250.772 318.219 250.443C318.152 250.114 317.992 249.812 317.755 249.574C317.518 249.337 317.214 249.176 316.884 249.11C316.558 249.045 316.216 249.078 315.905 249.207C315.595 249.335 315.332 249.552 315.144 249.831C314.958 250.11 314.859 250.438 314.859 250.773C314.859 251.223 315.038 251.655 315.355 251.973C315.675 252.291 316.104 252.469 316.555 252.469Z" fill="#B2B6BB"/>
<path opacity="0.15" d="M317.195 250.774C317.195 250.42 317.083 250.076 316.875 249.788C316.67 249.502 316.379 249.287 316.043 249.174C316.216 249.108 316.401 249.076 316.587 249.078C317.035 249.078 317.467 249.256 317.787 249.574C318.104 249.892 318.283 250.324 318.283 250.774C318.283 251.223 318.104 251.655 317.787 251.973C317.467 252.291 317.035 252.47 316.587 252.47C316.401 252.472 316.216 252.439 316.043 252.374C316.379 252.263 316.673 252.049 316.878 251.761C317.086 251.474 317.198 251.128 317.195 250.774Z" fill="black"/>
<path d="M368.939 210.101L365.451 207.797H269.482V208.853L368.939 210.101Z" fill="#B2B6BB"/>
<path d="M382.635 275.253L384.363 294.198C384.395 294.361 384.392 294.527 384.353 294.687C384.315 294.847 384.241 294.998 384.136 295.126C384.033 295.254 383.902 295.359 383.752 295.43C383.604 295.503 383.441 295.538 383.275 295.541C383.044 295.545 382.817 295.474 382.628 295.343C382.44 295.212 382.296 295.023 382.219 294.806L377.259 275.253H382.635Z" fill="#DADDDF"/>
<path d="M381.995 286.261L379.915 285.749L377.227 275.221H382.635L384.363 294.165C384.411 294.415 384.372 294.674 384.257 294.901C384.142 295.125 383.953 295.308 383.723 295.413L381.995 286.261Z" fill="#B2B6BB"/>
<path d="M363.275 275.253L365.003 294.198C365.035 294.361 365.032 294.527 364.993 294.687C364.955 294.847 364.881 294.998 364.776 295.126C364.673 295.254 364.542 295.359 364.392 295.43C364.245 295.503 364.081 295.538 363.915 295.541C363.685 295.545 363.457 295.474 363.269 295.343C363.08 295.212 362.936 295.023 362.859 294.806L357.899 275.253H363.275Z" fill="#DADDDF"/>
<path d="M361.483 277.333L358.411 276.757L357.899 275.253H363.307L365.035 294.198C365.083 294.447 365.048 294.706 364.929 294.93C364.814 295.157 364.625 295.34 364.395 295.446L361.483 277.333Z" fill="#B2B6BB"/>
<path d="M292.715 275.253L290.987 294.198C290.955 294.361 290.958 294.527 290.996 294.687C291.035 294.847 291.108 294.998 291.214 295.126C291.316 295.254 291.447 295.359 291.598 295.43C291.745 295.503 291.908 295.538 292.075 295.541C292.305 295.545 292.532 295.474 292.721 295.343C292.91 295.212 293.054 295.023 293.131 294.806L298.091 275.253H292.715Z" fill="#DADDDF"/>
<path d="M293.643 285.334L291.819 284.885L292.683 275.253H298.091L293.131 294.806C293.054 295.023 292.91 295.212 292.721 295.343C292.532 295.474 292.305 295.545 292.075 295.541H292.011L293.643 285.334Z" fill="#B2B6BB"/>
<path d="M272.811 275.253L271.083 294.198C271.05 294.361 271.053 294.527 271.092 294.687C271.131 294.847 271.206 294.998 271.31 295.126C271.414 295.254 271.545 295.359 271.694 295.43C271.843 295.503 272.005 295.538 272.171 295.541C272.402 295.545 272.627 295.474 272.817 295.343C273.006 295.212 273.149 295.023 273.227 294.806L278.187 275.253H272.811Z" fill="#DADDDF"/>
<path d="M274.923 276.885L272.555 276.437L272.811 275.221H278.219L273.259 294.773C273.181 294.991 273.038 295.18 272.849 295.311C272.659 295.442 272.433 295.513 272.203 295.509H272.139L274.923 276.885Z" fill="#B2B6BB"/>
<path d="M161.372 34.3159V71.7879H209.1V34.3159H161.372Z" fill="#FDD835"/>
<path d="M166.171 39.3076V66.7956H204.299V39.3076H166.171Z" fill="#DDDDDD"/>
<path d="M210.154 34.3257H209.066V71.7657H210.154V34.3257Z" fill="#DADDDF"/>
<path d="M185.931 54.4533C187.108 54.4533 188.259 54.1042 189.238 53.4501C190.216 52.7964 190.979 51.8668 191.43 50.7791C191.88 49.6914 191.998 48.4946 191.769 47.34C191.539 46.1855 190.972 45.125 190.14 44.2927C189.307 43.4604 188.247 42.8933 187.092 42.6636C185.938 42.4341 184.741 42.5519 183.653 43.0024C182.566 43.453 181.636 44.2159 180.982 45.1944C180.328 46.1733 179.979 47.324 179.979 48.5013C179.979 50.0799 180.606 51.5938 181.722 52.71C182.839 53.8261 184.352 54.4533 185.931 54.4533Z" fill="#304FFE"/>
<path opacity="0.2" d="M170.282 64.3735L179.978 58.1655L170.378 51.9895L170.282 64.3735Z" fill="black"/>
<path opacity="0.2" d="M187.24 49.8745V62.7385H200.104V49.8745H187.24Z" fill="black"/>
<path d="M280.683 295.061H144.715C143.468 295.058 142.273 294.562 141.391 293.682C140.509 292.799 140.013 291.605 140.011 290.357V97.8134C140.013 96.5663 140.509 95.3708 141.391 94.4889C142.273 93.6073 143.468 93.111 144.715 93.1094H280.683C281.931 93.111 283.124 93.6073 284.007 94.4889C284.891 95.3708 285.387 96.5663 285.387 97.8134V290.325C285.39 290.946 285.268 291.561 285.035 292.133C284.798 292.706 284.452 293.228 284.017 293.666C283.579 294.108 283.06 294.457 282.487 294.697C281.918 294.937 281.303 295.058 280.683 295.061Z" fill="#304FFE"/>
<path opacity="0.5" d="M280.683 295.061H144.715C143.468 295.058 142.273 294.562 141.391 293.682C140.509 292.799 140.013 291.605 140.011 290.357V97.8134C140.013 96.5663 140.509 95.3708 141.391 94.4889C142.273 93.6073 143.468 93.111 144.715 93.1094H280.683C281.931 93.111 283.124 93.6073 284.007 94.4889C284.891 95.3708 285.387 96.5663 285.387 97.8134V290.325C285.39 290.946 285.268 291.561 285.035 292.133C284.798 292.706 284.452 293.228 284.017 293.666C283.579 294.108 283.06 294.457 282.487 294.697C281.918 294.937 281.303 295.058 280.683 295.061Z" fill="white"/>
<path d="M276.587 295.061H140.619C139.372 295.058 138.176 294.562 137.295 293.682C136.413 292.799 135.917 291.605 135.915 290.357V97.8134C135.917 96.5663 136.413 95.3708 137.295 94.4889C138.176 93.6073 139.372 93.111 140.619 93.1094H276.587C277.834 93.111 279.03 93.6073 279.911 94.4889C280.793 95.3708 281.289 96.5663 281.291 97.8134V290.325C281.293 290.946 281.173 291.561 280.938 292.133C280.703 292.706 280.357 293.228 279.92 293.666C279.483 294.108 278.964 294.457 278.392 294.697C277.82 294.937 277.207 295.058 276.587 295.061Z" fill="#304FFE"/>
<path opacity="0.7" d="M276.587 295.061H140.619C139.372 295.058 138.176 294.562 137.295 293.682C136.413 292.799 135.917 291.605 135.915 290.357V97.8134C135.917 96.5663 136.413 95.3708 137.295 94.4889C138.176 93.6073 139.372 93.111 140.619 93.1094H276.587C277.834 93.111 279.03 93.6073 279.911 94.4889C280.793 95.3708 281.289 96.5663 281.291 97.8134V290.325C281.293 290.946 281.173 291.561 280.938 292.133C280.703 292.706 280.357 293.228 279.92 293.666C279.483 294.108 278.964 294.457 278.392 294.697C277.82 294.937 277.207 295.058 276.587 295.061Z" fill="white"/>
<path d="M255.659 127.669H212.011C211.349 127.669 210.714 127.407 210.246 126.939C209.778 126.47 209.515 125.836 209.515 125.173C209.515 124.512 209.778 123.877 210.246 123.409C210.714 122.941 211.349 122.677 212.011 122.677H255.659C256.321 122.677 256.956 122.941 257.424 123.409C257.892 123.877 258.155 124.512 258.155 125.173C258.155 125.836 257.892 126.47 257.424 126.939C256.956 127.407 256.321 127.669 255.659 127.669Z" fill="white"/>
<path d="M256.811 139.51H210.827C210.479 139.51 210.146 139.371 209.899 139.125C209.653 138.879 209.515 138.546 209.515 138.198C209.515 137.85 209.653 137.516 209.899 137.27C210.146 137.024 210.479 136.886 210.827 136.886H256.811C257.159 136.886 257.493 137.024 257.739 137.27C257.985 137.516 258.123 137.85 258.123 138.198C258.123 138.546 257.985 138.879 257.739 139.125C257.493 139.371 257.159 139.51 256.811 139.51Z" fill="white"/>
<path d="M237.995 150.325H210.827C210.479 150.325 210.146 150.187 209.899 149.941C209.653 149.695 209.515 149.361 209.515 149.014C209.515 148.665 209.653 148.332 209.899 148.086C210.146 147.84 210.479 147.701 210.827 147.701H237.995C238.168 147.7 238.339 147.733 238.499 147.798C238.659 147.863 238.804 147.96 238.927 148.082C239.049 148.204 239.145 148.35 239.211 148.51C239.276 148.669 239.309 148.841 239.307 149.014C239.306 149.361 239.167 149.694 238.921 149.939C238.675 150.185 238.343 150.324 237.995 150.325Z" fill="white"/>
<path d="M255.659 193.269H212.011C211.349 193.269 210.714 193.007 210.246 192.538C209.778 192.07 209.515 191.435 209.515 190.773C209.515 190.112 209.778 189.477 210.246 189.009C210.714 188.54 211.349 188.277 212.011 188.277H255.659C256.321 188.277 256.956 188.54 257.424 189.009C257.892 189.477 258.155 190.112 258.155 190.773C258.155 191.435 257.892 192.07 257.424 192.538C256.956 193.007 256.321 193.269 255.659 193.269Z" fill="white"/>
<path d="M256.811 205.142H210.827C210.479 205.142 210.146 205.003 209.899 204.757C209.653 204.511 209.515 204.177 209.515 203.83C209.515 203.481 209.653 203.148 209.899 202.902C210.146 202.656 210.479 202.518 210.827 202.518H256.811C256.984 202.516 257.155 202.549 257.315 202.614C257.475 202.679 257.62 202.776 257.743 202.898C257.865 203.02 257.961 203.165 258.027 203.325C258.092 203.485 258.125 203.657 258.123 203.83C258.122 204.177 257.983 204.51 257.737 204.755C257.491 205.001 257.159 205.14 256.811 205.142Z" fill="white"/>
<path d="M237.995 215.957H210.827C210.479 215.957 210.146 215.819 209.899 215.573C209.653 215.327 209.515 214.993 209.515 214.645C209.515 214.297 209.653 213.963 209.899 213.717C210.146 213.471 210.479 213.333 210.827 213.333H237.995C238.168 213.331 238.339 213.364 238.499 213.43C238.659 213.495 238.804 213.592 238.927 213.714C239.049 213.836 239.145 213.981 239.211 214.141C239.276 214.301 239.309 214.472 239.307 214.645C239.3 214.991 239.159 215.32 238.914 215.565C238.67 215.809 238.341 215.95 237.995 215.957Z" fill="white"/>
<path d="M360.619 252.213L371.403 264.437L363.723 270.389L354.699 262.133L360.619 252.213Z" fill="#FC9D9D"/>
<path d="M369.963 262.421L376.843 267.701C377.211 267.98 377.47 268.381 377.569 268.833C377.668 269.285 377.604 269.757 377.387 270.165L364.171 294.581C364.03 294.841 363.799 295.042 363.524 295.141C363.246 295.244 362.939 295.237 362.667 295.125C362.081 294.908 361.601 294.476 361.323 293.916C361.044 293.359 360.987 292.716 361.163 292.117L361.323 291.541C362.081 288.889 362.481 286.143 362.507 283.381L362.699 270.485C362.705 270.098 362.839 269.724 363.086 269.423C363.329 269.121 363.665 268.91 364.043 268.821C365.275 268.544 366.388 267.889 367.233 266.949C368.075 266.008 368.603 264.829 368.747 263.573L368.811 262.933C368.82 262.805 368.865 262.681 368.939 262.576C369.015 262.47 369.115 262.387 369.233 262.334C369.351 262.282 369.483 262.262 369.611 262.278C369.739 262.293 369.86 262.343 369.963 262.421Z" fill="#3F4249"/>
<path d="M366.635 258.869L332.683 218.485L333.099 182.581L333.483 162.005L313.803 161.973L315.947 222.421C315.956 223.7 316.225 224.963 316.734 226.134C317.246 227.306 317.992 228.362 318.923 229.237L359.275 266.229L366.635 258.869Z" fill="#304FFE"/>
<path opacity="0.2" d="M366.635 258.87L332.683 218.486L333.387 162.038L313.803 162.006L315.947 222.454C315.956 223.732 316.225 224.995 316.734 226.167C317.246 227.339 317.992 228.394 318.923 229.27L359.275 266.262L366.635 258.87Z" fill="white"/>
<path d="M354.059 277.013L344.139 277.205L344.651 284.854L353.803 285.686L354.059 277.013Z" fill="#FC9D9D"/>
<path d="M349.227 281.046C347.956 281.047 346.734 281.542 345.822 282.425C344.91 283.308 344.375 284.511 344.331 285.781L344.299 286.997C344.27 287.484 344.196 287.967 344.075 288.437L342.699 293.461C342.644 293.663 342.638 293.874 342.679 294.082C342.718 294.287 342.807 294.479 342.932 294.645C343.06 294.812 343.22 294.949 343.409 295.042C343.595 295.135 343.799 295.186 344.011 295.189H355.275C355.495 295.193 355.716 295.141 355.911 295.039C356.11 294.933 356.276 294.783 356.401 294.601C356.526 294.415 356.603 294.204 356.622 293.983C356.644 293.762 356.609 293.538 356.523 293.333L354.571 288.501C354.308 287.826 354.158 287.113 354.123 286.389L354.091 285.813C354.071 284.54 353.55 283.324 352.638 282.431C351.729 281.537 350.5 281.04 349.227 281.046Z" fill="#3F4249"/>
<path d="M353.643 162.037L354.219 280.533H344.235L335.243 182.101C335.239 181.821 335.124 181.554 334.923 181.36C334.721 181.164 334.452 181.057 334.171 181.061C333.892 181.066 333.623 181.181 333.428 181.382C333.233 181.583 333.127 181.853 333.131 182.133L332.875 191.221L330.475 162.037H353.643Z" fill="#304FFE"/>
<path opacity="0.2" d="M353.643 162.037L354.219 280.533H344.235L335.243 182.101C335.239 181.821 335.124 181.554 334.923 181.36C334.721 181.164 334.452 181.057 334.171 181.061C333.892 181.066 333.623 181.181 333.428 181.382C333.233 181.583 333.127 181.853 333.131 182.133L332.875 191.221L330.475 162.037H353.643Z" fill="white"/>
<path opacity="0.4" d="M314.443 165.653H353.675L353.643 162.037H313.803L314.443 165.653Z" fill="black"/>
<path d="M342.452 165.945H343.732V162.041H342.452V165.945Z" fill="#3F4249"/>
<path d="M324.939 165.945H326.219V162.041H324.939V165.945Z" fill="#3F4249"/>
<path opacity="0.5" d="M351.307 286.037C351.342 286.034 351.38 286.025 351.412 286.009C351.444 285.993 351.473 285.97 351.499 285.941C351.528 285.89 351.537 285.829 351.524 285.769C351.515 285.711 351.483 285.657 351.435 285.621C351.403 285.621 349.227 284.181 347.051 285.621C347.025 285.637 347.003 285.66 346.987 285.685C346.971 285.711 346.958 285.74 346.952 285.769C346.945 285.797 346.945 285.829 346.952 285.858C346.958 285.887 346.971 285.916 346.987 285.941C347.003 285.967 347.025 285.989 347.051 286.005C347.076 286.021 347.102 286.034 347.134 286.041C347.163 286.047 347.195 286.047 347.224 286.041C347.252 286.034 347.281 286.021 347.307 286.005C349.227 284.725 351.179 286.005 351.179 286.005C351.217 286.028 351.262 286.037 351.307 286.037Z" fill="black"/>
<path opacity="0.5" d="M351.307 287.317C351.342 287.314 351.38 287.305 351.412 287.289C351.444 287.273 351.473 287.25 351.499 287.221C351.528 287.17 351.537 287.109 351.524 287.049C351.515 286.991 351.483 286.937 351.435 286.901C351.403 286.901 349.227 285.461 347.051 286.901C347.025 286.917 347.003 286.94 346.987 286.965C346.971 286.991 346.958 287.02 346.952 287.049C346.945 287.077 346.945 287.109 346.952 287.138C346.958 287.167 346.971 287.196 346.987 287.221C347.003 287.247 347.025 287.269 347.051 287.285C347.076 287.301 347.102 287.314 347.134 287.321C347.163 287.327 347.195 287.327 347.224 287.321C347.252 287.314 347.281 287.301 347.307 287.285C349.227 286.005 351.179 287.285 351.179 287.285C351.217 287.308 351.262 287.317 351.307 287.317Z" fill="black"/>
<path opacity="0.5" d="M351.307 288.629C351.342 288.626 351.38 288.617 351.412 288.601C351.444 288.585 351.473 288.562 351.499 288.533C351.528 288.482 351.537 288.421 351.524 288.361C351.515 288.303 351.483 288.249 351.435 288.213C351.403 288.213 349.227 286.773 347.051 288.213C347.025 288.229 347.003 288.252 346.987 288.277C346.971 288.303 346.958 288.329 346.952 288.361C346.945 288.389 346.945 288.421 346.952 288.45C346.958 288.479 346.971 288.508 346.987 288.533C347.003 288.559 347.025 288.581 347.051 288.597C347.076 288.613 347.102 288.626 347.134 288.633C347.163 288.636 347.195 288.636 347.224 288.633C347.252 288.626 347.281 288.613 347.307 288.597C349.227 287.317 351.179 288.597 351.179 288.597C351.243 288.597 351.275 288.629 351.307 288.629Z" fill="black"/>
<path opacity="0.5" d="M365.003 273.717C365.054 273.71 365.102 273.688 365.144 273.654C365.182 273.62 365.211 273.575 365.227 273.525C365.259 273.397 365.163 273.301 365.035 273.269L362.699 272.949C362.571 272.917 362.475 273.013 362.443 273.141C362.411 273.269 362.507 273.365 362.635 273.397L364.971 273.717H365.003Z" fill="black"/>
<path opacity="0.5" d="M364.939 275.317C364.99 275.31 365.038 275.288 365.08 275.254C365.118 275.22 365.147 275.175 365.163 275.125C365.195 274.997 365.099 274.901 364.971 274.869L362.635 274.549C362.507 274.517 362.411 274.613 362.379 274.741C362.347 274.869 362.443 274.965 362.571 274.997L364.907 275.317H364.939Z" fill="black"/>
<path opacity="0.5" d="M364.939 277.045C364.99 277.038 365.038 277.016 365.08 276.982C365.118 276.948 365.147 276.903 365.163 276.853C365.195 276.725 365.099 276.629 364.971 276.597L362.635 276.277C362.507 276.245 362.411 276.341 362.379 276.469C362.347 276.597 362.443 276.693 362.571 276.725L364.907 277.045H364.939Z" fill="black"/>
<path opacity="0.5" d="M377.387 270.165L364.171 294.581C364.03 294.841 363.799 295.042 363.524 295.141C363.246 295.244 362.939 295.237 362.667 295.125C362.551 295.09 362.443 295.039 362.347 294.965L376.843 267.701C377.214 267.977 377.476 268.379 377.575 268.831C377.675 269.284 377.607 269.758 377.387 270.165Z" fill="black"/>
<path opacity="0.5" d="M355.307 295.189H344.043C343.838 295.186 343.637 295.138 343.454 295.052C343.269 294.962 343.109 294.831 342.981 294.674C342.853 294.514 342.76 294.329 342.712 294.13C342.664 293.932 342.657 293.727 342.699 293.525H356.619C356.664 293.724 356.664 293.929 356.619 294.127C356.574 294.325 356.485 294.511 356.36 294.671C356.232 294.828 356.072 294.959 355.893 295.049C355.71 295.138 355.509 295.186 355.307 295.189Z" fill="black"/>
<g opacity="0.2">
<path opacity="0.2" d="M340.971 249.525L341.451 250.07L339.275 226.325L338.795 225.781L340.971 249.525Z" fill="black"/>
</g>
<path d="M321.771 162.101C324.683 123.829 327.883 100.373 327.883 100.373L328.171 100.277C328.171 100.277 333.707 107.669 340.875 101.909L341.835 100.725L342.667 100.949H342.635C342.635 100.949 342.987 133.077 346.219 162.069L321.771 162.101Z" fill="#FDD835"/>
<path d="M368.555 129.429L355.467 132.501L354.283 128.501L353.771 179.893H346.123C345.428 179.895 344.763 179.636 344.251 179.167C343.742 178.699 343.428 178.055 343.371 177.365C339.979 136.981 342.635 100.981 342.635 100.981L348.203 102.421L358.443 105.045C359.96 105.427 361.339 106.226 362.424 107.352C363.508 108.477 364.26 109.884 364.587 111.413L368.555 129.429Z" fill="#21252B"/>
<path d="M327.819 86.6134L327.915 101.525C327.918 101.846 328.017 102.159 328.203 102.421L328.331 102.613C332.011 106.293 337.803 106.005 342.091 102.453C342.305 102.277 342.468 102.05 342.571 101.792C342.67 101.535 342.705 101.256 342.667 100.981L340.363 85.5894L327.819 86.6134Z" fill="#FC9D9D"/>
<path d="M341.675 80.2773C341.675 80.2773 344.235 97.0773 334.955 97.7493C325.899 98.4213 325.643 81.4293 325.643 81.4293L325.387 76.5653L337.035 74.5173L339.979 76.0213L341.675 80.2773Z" fill="#FC9D9D"/>
<path opacity="0.15" d="M341.899 96.3412L341.227 91.7332C340.395 94.7092 338.635 97.1732 335.595 97.6852H335.627L334.955 97.7812C332.523 97.9732 330.539 96.8532 329.003 94.4532C328.974 94.4064 328.926 94.3735 328.872 94.3616C328.817 94.3495 328.763 94.3594 328.715 94.3892C328.67 94.4189 328.635 94.4659 328.625 94.52C328.612 94.5741 328.622 94.6304 328.651 94.6771C330.251 97.2051 332.395 98.3891 334.987 98.1971C335.531 98.1664 336.068 98.0695 336.587 97.9092C338.494 98.1037 340.404 97.5405 341.899 96.3412Z" fill="black"/>
<path d="M339.499 76.5014C339.499 76.5014 342.443 74.5494 343.851 77.8774C345.003 80.6934 343.051 83.7654 343.051 83.7654L341.355 83.6054C340.651 83.5734 340.139 83.2534 340.075 82.5494L339.499 76.5014Z" fill="#21252B"/>
<path d="M341.611 74.4853C341.867 77.6853 339.115 78.5173 337.995 78.6133L328.843 79.3813C328.488 79.4085 328.158 79.5749 327.921 79.8447C327.688 80.1141 327.573 80.4652 327.595 80.8213L327.755 83.7333C327.768 83.9221 327.707 84.1087 327.589 84.2565C327.47 84.404 327.301 84.5029 327.115 84.5333L326.539 84.5973L325.899 85.3973C322.315 84.5333 320.811 74.3573 327.403 72.2773C328.107 72.053 328.696 71.5583 329.035 70.9013C329.995 68.9173 333.931 68.4053 335.915 70.6133C336.104 70.8437 336.344 71.0252 336.616 71.142C336.891 71.2591 337.189 71.3084 337.483 71.2853C339.915 71.2213 341.451 72.7253 341.611 74.4853Z" fill="#21252B"/>
<path d="M326.539 85.6212C326.513 85.3524 326.414 85.0954 326.254 84.8778C326.094 84.6602 325.876 84.49 325.627 84.3854C325.377 84.2804 325.105 84.2446 324.836 84.282C324.571 84.3194 324.318 84.4282 324.107 84.5972L324.075 84.6292C322.507 85.9732 323.499 90.2932 326.987 89.8772L326.539 85.6212Z" fill="#FC9D9D"/>
<path d="M343.819 83.3495C343.809 83.3495 343.803 83.3463 343.796 83.3402C343.79 83.3341 343.787 83.3261 343.787 83.3175C343.553 83.1818 343.287 83.1114 343.019 83.1146C342.747 83.1178 342.484 83.194 342.254 83.3351C342.023 83.4762 341.838 83.6772 341.713 83.9165C341.588 84.1556 341.531 84.4244 341.547 84.6935L341.739 88.7895C345.195 88.6615 345.547 84.4695 343.819 83.3495Z" fill="#FC9D9D"/>
<path d="M326.987 86.1655C327.019 86.3575 326.827 86.5495 326.603 86.5815C326.497 86.5966 326.392 86.5726 326.302 86.5134C326.212 86.4542 326.148 86.3646 326.123 86.2615L325.739 83.5095L326.859 83.5415L326.987 86.1655Z" fill="#21252B"/>
<path d="M342.251 85.0134C342.283 85.2054 342.091 85.3974 341.867 85.4294C341.761 85.4448 341.653 85.4205 341.566 85.3613C341.477 85.3024 341.413 85.2128 341.387 85.1094L341.003 82.3574L342.123 82.3894L342.251 85.0134Z" fill="#21252B"/>
<path d="M338.027 79.0298C337.867 79.0481 337.707 79.0481 337.547 79.0298C337.496 79.0298 337.448 79.0093 337.413 78.9735C337.374 78.9373 337.355 78.8887 337.355 78.8378C337.355 78.7869 337.374 78.738 337.413 78.7018C337.448 78.666 337.496 78.6458 337.547 78.6458C337.579 78.6458 339.403 78.7418 340.171 77.5258C340.197 77.4833 340.238 77.4525 340.286 77.4407C340.334 77.4285 340.385 77.4362 340.427 77.4618C340.469 77.4871 340.501 77.5284 340.513 77.5764C340.523 77.6244 340.517 77.6753 340.491 77.7178C339.915 78.7418 338.699 78.9658 338.027 79.0298Z" fill="#FC9D9D"/>
<path d="M331.179 87.9894C331.336 87.9894 331.493 87.9423 331.624 87.8546C331.755 87.7666 331.857 87.6418 331.918 87.4956C331.979 87.3494 331.995 87.1884 331.963 87.0332C331.934 86.878 331.857 86.7356 331.745 86.6236C331.633 86.5119 331.489 86.4354 331.336 86.4047C331.179 86.374 331.019 86.3897 330.872 86.4502C330.728 86.511 330.603 86.6134 330.513 86.7449C330.427 86.8764 330.379 87.0313 330.379 87.1894C330.379 87.4015 330.462 87.605 330.612 87.7551C330.763 87.9052 330.968 87.9894 331.179 87.9894Z" fill="#21252B"/>
<path d="M330.795 87.2857C330.827 87.2857 330.859 87.2761 330.884 87.2588C330.91 87.2412 330.929 87.2159 330.942 87.1868C330.955 87.1577 330.958 87.1254 330.952 87.0943C330.945 87.0633 330.929 87.0348 330.907 87.0124C330.884 86.99 330.859 86.975 330.827 86.9686C330.795 86.9625 330.763 86.9657 330.734 86.9779C330.705 86.99 330.68 87.0105 330.664 87.0367C330.644 87.063 330.635 87.094 330.635 87.1257C330.635 87.1679 330.651 87.2089 330.683 87.2387C330.712 87.2687 330.753 87.2857 330.795 87.2857Z" fill="white"/>
<path d="M337.355 87.5415C337.515 87.5415 337.668 87.4945 337.799 87.4065C337.931 87.3188 338.033 87.1937 338.094 87.0474C338.155 86.9012 338.171 86.7405 338.139 86.5853C338.11 86.4301 338.033 86.2874 337.921 86.1757C337.809 86.0637 337.665 85.9876 337.511 85.9569C337.355 85.9258 337.195 85.9418 337.047 86.0023C336.903 86.0628 336.779 86.1655 336.689 86.297C336.603 86.4285 336.555 86.5831 336.555 86.7415C336.555 86.9537 336.638 87.1572 336.788 87.3069C336.939 87.457 337.143 87.5415 337.355 87.5415Z" fill="#21252B"/>
<path d="M336.971 86.8057C337.003 86.8057 337.035 86.7961 337.06 86.7788C337.086 86.7612 337.108 86.736 337.118 86.7068C337.131 86.6777 337.134 86.6454 337.127 86.6144C337.121 86.5833 337.108 86.5548 337.086 86.5324C337.063 86.51 337.035 86.495 337.003 86.4886C336.971 86.4825 336.939 86.4857 336.91 86.4979C336.881 86.51 336.855 86.5305 336.839 86.5568C336.82 86.583 336.811 86.614 336.811 86.6457C336.811 86.688 336.827 86.7289 336.859 86.7587C336.887 86.7888 336.929 86.8057 336.971 86.8057Z" fill="white"/>
<g opacity="0.3">
<path opacity="0.3" d="M334.667 90.9974L335.307 90.9334C335.371 90.9293 335.428 90.8998 335.47 90.8518C335.515 90.8038 335.534 90.7411 335.531 90.6774C335.528 90.6137 335.496 90.5545 335.448 90.5123C335.4 90.4704 335.339 90.4493 335.275 90.4534L334.635 90.5174C334.571 90.5225 334.507 90.5152 334.446 90.4953C334.388 90.4755 334.331 90.4438 334.283 90.4019C334.235 90.36 334.196 90.3091 334.168 90.2521C334.142 90.1949 334.126 90.1328 334.123 90.0694C334.113 90.0057 334.12 89.9408 334.139 89.8793C334.158 89.8179 334.19 89.7609 334.232 89.7126C334.273 89.6643 334.324 89.6253 334.385 89.5987C334.443 89.5718 334.507 89.5577 334.571 89.5574C334.635 89.5533 334.692 89.5238 334.734 89.4758C334.779 89.4278 334.798 89.3651 334.795 89.3014C334.792 89.2377 334.76 89.1785 334.712 89.1363C334.664 89.0944 334.603 89.0733 334.539 89.0774C334.411 89.0857 334.289 89.1187 334.174 89.1744C334.062 89.2304 333.96 89.3081 333.876 89.4032C333.793 89.4985 333.729 89.6093 333.691 89.7289C333.649 89.8486 333.633 89.9753 333.643 90.1014C333.649 90.2275 333.684 90.351 333.739 90.4643C333.796 90.5776 333.873 90.679 333.969 90.7622C334.062 90.8454 334.174 90.9091 334.292 90.9494C334.414 90.9897 334.539 91.0061 334.667 90.9974Z" fill="black"/>
</g>
<path d="M339.595 84.5977L336.107 84.7897L335.627 84.8217L332.555 84.9817H332.523L328.587 85.2057C328.436 85.2134 328.286 85.2511 328.148 85.3164C328.014 85.382 327.889 85.4738 327.79 85.5868C327.688 85.7001 327.611 85.8319 327.56 85.9753C327.512 86.1183 327.489 86.2703 327.499 86.4217L327.563 87.3177C327.572 87.7404 327.668 88.1567 327.844 88.542C328.017 88.9273 328.267 89.2735 328.577 89.5602C328.891 89.847 329.256 90.0684 329.652 90.2111C330.052 90.3542 330.475 90.4156 330.897 90.3919C331.32 90.3682 331.732 90.2601 332.11 90.0738C332.491 89.8876 332.83 89.6271 333.105 89.3074C333.384 88.9878 333.595 88.6159 333.723 88.2137C333.854 87.8114 333.902 87.3868 333.867 86.9657L333.803 86.0697C333.793 85.8172 333.691 85.5772 333.515 85.3977L334.731 85.3337C334.587 85.5385 334.516 85.7878 334.539 86.0377L334.603 86.9337C334.612 87.3564 334.708 87.7727 334.884 88.158C335.057 88.5433 335.307 88.8895 335.617 89.1762C335.931 89.463 336.296 89.6844 336.692 89.8271C337.092 89.9702 337.515 90.0316 337.937 90.0079C338.36 89.9842 338.772 89.8761 339.15 89.6898C339.531 89.5036 339.87 89.2428 340.145 88.9234C340.424 88.6038 340.635 88.2319 340.763 87.8297C340.894 87.4274 340.942 87.0031 340.907 86.5817L340.843 85.6857C340.833 85.5314 340.795 85.3807 340.728 85.2418C340.66 85.1033 340.564 84.9794 340.449 84.8783C340.331 84.7769 340.196 84.6998 340.049 84.6514C339.902 84.6034 339.748 84.5849 339.595 84.5977ZM333.355 86.1017L333.419 86.9977C333.457 87.7062 333.211 88.4012 332.737 88.9292C332.264 89.4572 331.598 89.7753 330.891 89.8137C330.18 89.8518 329.486 89.607 328.958 89.1327C328.43 88.6588 328.113 87.9942 328.075 87.2857L328.011 86.3897C328.004 86.2034 328.068 86.0217 328.196 85.8841C328.321 85.7462 328.497 85.6636 328.683 85.6537L332.619 85.4297H332.651C332.83 85.4348 333.003 85.5062 333.131 85.6303C333.262 85.7545 333.342 85.9225 333.355 86.1017ZM340.427 86.5817C340.465 87.2902 340.219 87.9852 339.745 88.5132C339.272 89.0412 338.606 89.3593 337.899 89.3977C337.188 89.4358 336.494 89.191 335.966 88.7167C335.438 88.2428 335.121 87.5782 335.083 86.8697L335.019 85.9737C335.012 85.7874 335.076 85.6057 335.204 85.4681C335.329 85.3302 335.505 85.2476 335.691 85.2377L336.171 85.2057L339.659 85.0137C339.844 85.0066 340.027 85.0732 340.164 85.199C340.302 85.3247 340.385 85.4994 340.395 85.6857L340.427 86.5817Z" fill="#21252B"/>
<path d="M332.683 92.2775L336.619 91.9895C336.641 91.9892 336.667 91.994 336.689 92.0039C336.712 92.0138 336.731 92.0286 336.744 92.0471C336.76 92.0657 336.772 92.0871 336.776 92.1105C336.782 92.1338 336.782 92.1582 336.779 92.1815C336.657 92.6241 336.404 93.019 336.049 93.3124C335.697 93.6058 335.262 93.7838 334.804 93.8222C334.35 93.8606 333.889 93.7575 333.492 93.5271C333.096 93.2967 332.779 92.9498 332.587 92.5335V92.5015C332.571 92.4817 332.561 92.4583 332.561 92.434C332.558 92.4094 332.561 92.3847 332.571 92.362C332.58 92.3393 332.596 92.3194 332.616 92.3047C332.635 92.29 332.657 92.2804 332.683 92.2775Z" fill="white"/>
<g opacity="0.3">
<path opacity="0.3" d="M325.675 87.8298C325.617 87.8339 325.56 87.817 325.512 87.7818C325.464 87.7466 325.432 87.6954 325.419 87.6378L325.355 87.1578C325.291 86.6458 325.163 86.2618 324.907 86.0698C324.856 86.0234 324.795 85.9882 324.728 85.9661C324.664 85.944 324.593 85.9357 324.523 85.9418C324.494 85.9488 324.462 85.9498 324.43 85.944C324.398 85.9382 324.369 85.9261 324.344 85.9082C324.318 85.8906 324.296 85.8675 324.28 85.8406C324.26 85.8141 324.251 85.784 324.248 85.7526C324.241 85.7216 324.244 85.6896 324.251 85.6592C324.26 85.6288 324.276 85.6006 324.296 85.5763C324.315 85.5517 324.34 85.5318 324.369 85.5178C324.398 85.5034 324.427 85.4953 324.459 85.4937C324.721 85.4624 324.984 85.5312 325.195 85.6858C325.547 85.9418 325.739 86.4217 325.835 87.0937L325.899 87.5737C325.902 87.6371 325.88 87.6989 325.838 87.7466C325.796 87.7942 325.739 87.824 325.675 87.8298Z" fill="black"/>
</g>
<g opacity="0.3">
<path opacity="0.3" d="M342.731 86.5814C342.76 86.5824 342.789 86.5773 342.817 86.5664C342.846 86.5555 342.872 86.5389 342.891 86.5181C342.913 86.497 342.929 86.472 342.939 86.4445C342.952 86.4166 342.955 86.3872 342.955 86.3574V85.8454C342.923 85.3334 343.019 84.9174 343.243 84.7254C343.403 84.5654 343.595 84.5334 343.595 84.5654C343.656 84.5654 343.71 84.5421 343.752 84.4998C343.797 84.4579 343.819 84.401 343.819 84.3414C343.819 84.2822 343.797 84.2253 343.752 84.183C343.71 84.1411 343.656 84.1174 343.595 84.1174C343.326 84.1286 343.077 84.2435 342.891 84.4374C342.571 84.7574 342.443 85.2374 342.475 85.9094V86.3894C342.475 86.4854 342.571 86.5814 342.731 86.5814Z" fill="black"/>
</g>
<g opacity="0.3">
<path opacity="0.3" d="M361.067 111.669L365.099 130.261L368.587 129.429L364.971 112.885C364.267 108.405 362.123 106.293 358.987 105.141L355.019 104.117C358.667 105.749 360.299 108.341 361.067 111.669Z" fill="black"/>
</g>
<path opacity="0.3" d="M354.283 128.501L353.771 179.893H349.739L350.283 118.869C350.289 118.763 350.331 118.661 350.401 118.581C350.475 118.502 350.571 118.451 350.676 118.435C350.785 118.42 350.891 118.443 350.984 118.498C351.076 118.554 351.144 118.64 351.179 118.741L354.283 128.501Z" fill="black"/>
<path d="M342.411 99.5095L344.683 101.462L347.723 112.566L342.411 110.038L342.635 101.11L342.411 99.5095Z" fill="#21252B"/>
<path opacity="0.3" d="M345.099 101.557L344.651 101.429L347.723 112.565L342.411 110.037L342.347 112.373L348.171 112.981L345.099 101.557Z" fill="black"/>
<path opacity="0.15" d="M330.379 162.101H326.027L327.883 101.653C327.883 101.653 332.043 131.925 330.379 162.101Z" fill="black"/>
<path opacity="0.15" d="M330.283 162.037H316.235L316.587 179.861H326.091C326.916 179.862 327.713 179.554 328.324 178.998C328.932 178.441 329.313 177.676 329.387 176.853C329.771 172.245 330.059 167.253 330.283 162.037Z" fill="black"/>
<path d="M266.73 150.293L298.699 146.837C300.135 146.677 301.508 146.159 302.692 145.332C303.876 144.505 304.836 143.394 305.483 142.101L312.011 128.981L304.459 112.277L293.611 136.085L265.802 143.797L266.73 150.293Z" fill="#FC9D9D"/>
<path opacity="0.15" d="M308.331 129.589L301.803 142.709C300.785 144.735 299.016 146.285 296.875 147.029L298.699 146.837C300.136 146.677 301.509 146.159 302.693 145.332C303.88 144.505 304.837 143.394 305.483 142.101L312.011 128.981L308.331 129.589Z" fill="black"/>
<path d="M323.723 179.862H314.219L313.099 124.374L308.651 130.422L303.755 112.982C304.555 110.102 305.163 108.662 306.763 107.19C307.819 106.255 309.064 105.557 310.411 105.142L327.883 100.406C327.883 100.406 329.515 147.35 327.019 176.854C326.948 177.678 326.571 178.446 325.96 179.004C325.348 179.561 324.552 179.868 323.723 179.862Z" fill="#21252B"/>
<path d="M297.387 127.381L309.195 134.709L314.699 124.181L306.155 109.557L304.651 110.325L297.387 127.381Z" fill="#21252B"/>
<path d="M327.883 99.1575L325.867 100.949L322.827 112.085L328.139 109.557L327.883 99.1575Z" fill="#21252B"/>
<path opacity="0.3" d="M325.451 101.077L325.899 100.949L322.827 112.085L328.139 109.557L328.203 111.893L322.379 112.501L325.451 101.077Z" fill="black"/>
<path d="M371.211 141.525L368.587 129.397L355.499 132.469L358.123 140.149L336.235 145.013L335.019 145.269C334.603 145.365 334.251 145.397 333.963 145.109L333.483 144.629C333.045 144.287 332.545 144.027 332.011 143.861C330.721 143.473 329.633 142.602 328.971 141.429L327.915 139.573C327.905 139.551 327.889 139.531 327.87 139.516C327.851 139.5 327.825 139.488 327.803 139.482C327.777 139.476 327.752 139.476 327.729 139.48C327.704 139.485 327.681 139.495 327.659 139.509L327.499 139.573C327.131 139.717 326.83 139.996 326.657 140.351C326.488 140.708 326.456 141.116 326.571 141.493L327.371 144.053C327.416 144.185 327.406 144.329 327.345 144.454C327.288 144.579 327.182 144.676 327.051 144.725L321.899 146.837C320.811 147.253 321.195 148.725 322.187 148.501C322.731 148.373 322.827 148.341 322.827 148.341L321.803 148.853C320.651 149.397 321.195 150.965 322.187 150.741C323.179 150.517 324.459 150.165 324.459 150.165L323.179 150.677C322.984 150.795 322.837 150.978 322.763 151.194C322.689 151.411 322.696 151.645 322.782 151.857C322.865 152.069 323.025 152.244 323.227 152.35C323.429 152.457 323.662 152.488 323.883 152.437C324.619 152.245 325.803 151.893 325.803 151.893L325.035 152.277C324.043 152.597 324.395 154.133 325.323 153.941C326.123 153.781 333.707 151.925 337.611 151.221L366.603 148.085C367.352 147.988 368.069 147.736 368.715 147.346C369.358 146.955 369.915 146.435 370.35 145.819C370.782 145.202 371.083 144.501 371.23 143.763C371.381 143.024 371.374 142.262 371.211 141.525Z" fill="#FC9D9D"/>
<g opacity="0.2">
<path opacity="0.2" d="M339.275 226.357L332.683 218.517L333.131 182.133C333.14 181.868 333.255 181.618 333.444 181.433C333.636 181.249 333.889 181.144 334.155 181.141C332.926 181.153 331.755 181.645 330.887 182.513C330.02 183.381 329.527 184.554 329.515 185.781L329.163 220.373L339.851 232.629L339.275 226.357Z" fill="black"/>
<path opacity="0.2" d="M354.059 243.925L354.091 248.917L364.587 260.949L366.635 258.869L354.059 243.925Z" fill="black"/>
</g>
<path opacity="0.15" d="M366.539 148.085L337.547 151.221C333.643 151.925 326.059 153.781 325.259 153.941C325.147 153.955 325.032 153.945 324.923 153.911C324.814 153.877 324.715 153.82 324.628 153.744C324.545 153.668 324.478 153.575 324.43 153.472C324.385 153.368 324.363 153.255 324.363 153.141C324.452 153.262 324.58 153.348 324.728 153.383C324.875 153.418 325.028 153.401 325.163 153.333C325.483 153.237 330.123 151.541 333.067 150.421C334.654 149.828 336.292 149.388 337.963 149.109C344.299 148.053 360.747 145.269 365.163 144.277C366.443 143.989 367.851 143.029 367.531 141.333L365.067 130.229L368.555 129.397L371.179 141.493C371.348 142.235 371.361 143.003 371.214 143.749C371.067 144.495 370.766 145.203 370.328 145.824C369.892 146.446 369.326 146.969 368.673 147.358C368.02 147.748 367.294 147.996 366.539 148.085Z" fill="black"/>
<path d="M336.203 145.045L337.323 151.253L339.275 151.061L338.155 144.597L336.203 145.045Z" fill="#001B34"/>
<path d="M337.835 150.23C338.222 150.23 338.6 150.115 338.92 149.901C339.24 149.686 339.489 149.381 339.636 149.025C339.787 148.668 339.825 148.275 339.748 147.897C339.675 147.518 339.489 147.171 339.214 146.897C338.942 146.624 338.593 146.438 338.216 146.363C337.838 146.288 337.444 146.326 337.086 146.474C336.731 146.622 336.427 146.872 336.212 147.193C335.998 147.514 335.883 147.891 335.883 148.278C335.883 148.795 336.088 149.292 336.456 149.658C336.82 150.024 337.316 150.23 337.835 150.23Z" fill="#304FFE"/>
<path d="M337.835 149.91C338.158 149.91 338.471 149.814 338.74 149.635C339.009 149.455 339.22 149.2 339.342 148.902C339.467 148.604 339.499 148.276 339.435 147.959C339.371 147.643 339.217 147.352 338.99 147.124C338.759 146.895 338.468 146.74 338.151 146.677C337.835 146.614 337.508 146.646 337.211 146.77C336.913 146.893 336.657 147.103 336.478 147.371C336.299 147.639 336.203 147.955 336.203 148.278C336.203 148.71 336.375 149.126 336.679 149.432C336.987 149.738 337.403 149.91 337.835 149.91Z" fill="white"/>
<path d="M338.923 148.438L337.803 148.374L337.003 147.798C336.971 147.766 336.939 147.702 336.971 147.67C337.003 147.638 337.067 147.606 337.099 147.638L337.867 148.182L338.923 148.246C338.936 148.244 338.948 148.245 338.961 148.25C338.974 148.254 338.984 148.261 338.993 148.27C339.003 148.28 339.009 148.291 339.016 148.303C339.019 148.316 339.019 148.329 339.019 148.342C339.019 148.367 339.006 148.39 338.99 148.408C338.971 148.426 338.948 148.436 338.923 148.438Z" fill="#001B34"/>
<path opacity="0.3" d="M313.163 127.093L312.971 121.557C312.987 121.472 312.971 121.384 312.923 121.312C312.875 121.24 312.801 121.19 312.715 121.173C312.632 121.156 312.542 121.174 312.472 121.222C312.398 121.27 312.347 121.344 312.331 121.429L306.571 133.109L309.163 134.709L313.163 127.093Z" fill="black"/>
<path opacity="0.2" d="M349.771 179.861L350.571 280.533H354.251L353.771 179.861H349.771Z" fill="black"/>
<path d="M354.219 277.718L354.251 280.534H344.235L343.979 277.718H354.219Z" fill="#304FFE"/>
<path opacity="0.2" d="M350.571 277.718V280.534H354.251L354.219 277.718H350.571Z" fill="black"/>
<path d="M364.939 256.661L367.179 258.863L359.259 266.783L356.827 264.761L364.939 256.661Z" fill="#304FFE"/>
<path opacity="0.2" d="M362.059 259.544L364.299 261.784L367.179 258.869L364.939 256.667L362.059 259.544Z" fill="black"/>
<path d="M175.243 184.597H171.787V184.949C167.816 185.746 164.244 187.893 161.677 191.026C159.11 194.159 157.708 198.083 157.708 202.133C157.708 206.183 159.11 210.108 161.677 213.241C164.244 216.374 167.816 218.521 171.787 219.317V219.669H175.243C179.893 219.669 184.354 217.822 187.643 214.533C190.931 211.245 192.779 206.784 192.779 202.133C192.779 197.483 190.931 193.022 187.643 189.734C184.354 186.445 179.893 184.597 175.243 184.597Z" fill="#304FFE"/>
<path d="M171.819 219.637C175.281 219.637 178.665 218.611 181.544 216.687C184.422 214.764 186.666 212.03 187.99 208.832C189.315 205.634 189.662 202.114 188.987 198.719C188.311 195.323 186.644 192.204 184.196 189.756C181.748 187.308 178.629 185.641 175.234 184.966C171.838 184.29 168.319 184.637 165.12 185.962C161.922 187.287 159.188 189.53 157.265 192.409C155.341 195.287 154.315 198.671 154.315 202.133C154.315 206.776 156.159 211.228 159.442 214.511C162.724 217.793 167.176 219.637 171.819 219.637Z" fill="#304FFE"/>
<path opacity="0.4" d="M171.819 219.637C175.281 219.637 178.665 218.611 181.544 216.687C184.422 214.764 186.666 212.03 187.99 208.832C189.315 205.634 189.662 202.114 188.987 198.719C188.311 195.323 186.644 192.204 184.196 189.756C181.748 187.308 178.629 185.641 175.234 184.966C171.838 184.29 168.319 184.637 165.12 185.962C161.922 187.287 159.188 189.53 157.265 192.409C155.341 195.287 154.315 198.671 154.315 202.133C154.315 206.776 156.159 211.228 159.442 214.511C162.724 217.793 167.176 219.637 171.819 219.637Z" fill="white"/>
<path d="M168.554 209.461L162.634 203.541C162.559 203.466 162.498 203.376 162.457 203.277C162.416 203.179 162.395 203.073 162.395 202.965C162.395 202.859 162.416 202.752 162.457 202.654C162.498 202.555 162.559 202.465 162.634 202.389L164.17 200.853C164.246 200.778 164.335 200.717 164.434 200.676C164.533 200.635 164.639 200.614 164.746 200.614C164.853 200.614 164.959 200.635 165.058 200.676C165.157 200.717 165.247 200.778 165.322 200.853L169.13 204.661L178.282 195.509C178.358 195.433 178.447 195.373 178.546 195.332C178.645 195.29 178.751 195.269 178.858 195.269C178.966 195.269 179.071 195.29 179.17 195.332C179.269 195.373 179.359 195.433 179.434 195.509L180.97 197.045C181.046 197.121 181.106 197.211 181.147 197.31C181.189 197.409 181.21 197.515 181.21 197.621C181.21 197.729 181.189 197.835 181.147 197.933C181.106 198.032 181.046 198.122 180.97 198.197L169.706 209.461C169.547 209.601 169.342 209.677 169.13 209.677C168.919 209.677 168.714 209.601 168.554 209.461Z" fill="#FDD835"/>
<path d="M240.522 272.245H181.802C181.209 272.245 180.639 272.01 180.219 271.589C179.799 271.169 179.562 270.6 179.562 270.005V254.678C179.562 254.084 179.799 253.514 180.219 253.094C180.639 252.674 181.209 252.438 181.802 252.438H240.555C241.149 252.438 241.718 252.674 242.139 253.094C242.559 253.514 242.795 254.084 242.795 254.678V270.005C242.785 270.602 242.542 271.172 242.117 271.59C241.692 272.01 241.119 272.245 240.522 272.245Z" fill="#304FFE"/>
<path opacity="0.5" d="M240.522 272.245H181.802C181.209 272.245 180.639 272.01 180.219 271.589C179.799 271.169 179.562 270.6 179.562 270.005V254.678C179.562 254.084 179.799 253.514 180.219 253.094C180.639 252.674 181.209 252.438 181.802 252.438H240.555C241.149 252.438 241.718 252.674 242.139 253.094C242.559 253.514 242.795 254.084 242.795 254.678V270.005C242.785 270.602 242.542 271.172 242.117 271.59C241.692 272.01 241.119 272.245 240.522 272.245Z" fill="white"/>
<path d="M238.314 272.245H179.562C178.968 272.245 178.398 272.01 177.978 271.589C177.558 271.169 177.322 270.6 177.322 270.005V254.678C177.322 254.084 177.558 253.514 177.978 253.094C178.398 252.674 178.968 252.438 179.562 252.438H238.314C238.909 252.438 239.478 252.674 239.898 253.094C240.318 253.514 240.554 254.084 240.554 254.678V270.005C240.554 270.6 240.318 271.169 239.898 271.589C239.478 272.01 238.909 272.245 238.314 272.245Z" fill="white"/>
<path d="M263.595 108.694L257.995 103.094L252.395 108.694C252.306 108.796 252.187 108.867 252.055 108.897C251.923 108.928 251.785 108.915 251.66 108.862C251.536 108.808 251.431 108.717 251.362 108.6C251.293 108.484 251.263 108.349 251.275 108.214V93.2375H264.747V108.214C264.746 108.347 264.706 108.476 264.632 108.587C264.558 108.697 264.453 108.783 264.33 108.834C264.207 108.885 264.072 108.899 263.942 108.874C263.811 108.849 263.69 108.786 263.595 108.694Z" fill="#3F4249"/>
<path d="M280.554 81.4614L268.106 101.045L288.587 103.573L280.554 81.4614Z" fill="#B2B6BB"/>
<path d="M255.467 260.758L248.651 259.894L268.107 101.046L274.923 101.878L255.467 260.758Z" fill="#304FFE"/>
<path d="M269.098 262.421L262.282 261.589L281.706 102.741L288.587 103.573L269.098 262.421Z" fill="#304FFE"/>
<path d="M262.282 261.589L255.466 260.757L274.922 101.877L281.706 102.741L262.282 261.589Z" fill="#304FFE"/>
<path opacity="0.3" d="M262.282 261.589L255.466 260.757L274.922 101.877L281.706 102.741L262.282 261.589Z" fill="black"/>
<path d="M277.259 86.6454L280.555 81.4614L282.667 87.3174L277.259 86.6454Z" fill="#21252B"/>
<path d="M261.291 140.245C261.698 140.245 262.089 140.407 262.377 140.695C262.665 140.983 262.827 141.374 262.827 141.781V143.861L267.883 144.373C268.073 144.395 268.249 144.484 268.379 144.625C268.508 144.767 268.582 144.95 268.587 145.141C268.588 145.334 268.516 145.521 268.385 145.663C268.255 145.805 268.076 145.893 267.883 145.909L263.019 146.229C262.981 146.234 262.947 146.253 262.923 146.283C262.899 146.313 262.887 146.351 262.891 146.389C262.897 146.425 262.912 146.457 262.935 146.486C262.957 146.513 262.986 146.536 263.019 146.549L267.819 146.869C268.027 146.891 268.219 146.99 268.358 147.147C268.496 147.304 268.571 147.507 268.567 147.716C268.563 147.925 268.48 148.125 268.336 148.276C268.192 148.428 267.996 148.519 267.787 148.533L262.955 148.693L267.659 148.533C267.892 148.536 268.114 148.627 268.282 148.788C268.449 148.949 268.549 149.168 268.562 149.4C268.574 149.632 268.497 149.86 268.347 150.038C268.198 150.216 267.986 150.33 267.755 150.357L262.955 150.805L266.539 150.485C266.645 150.477 266.751 150.491 266.852 150.526C266.952 150.561 267.044 150.616 267.122 150.688C267.2 150.76 267.263 150.848 267.305 150.945C267.348 151.042 267.37 151.147 267.371 151.253C267.37 151.435 267.306 151.612 267.189 151.752C267.072 151.892 266.911 151.987 266.731 152.021L263.691 152.629C263.301 152.705 262.897 152.677 262.52 152.548C262.144 152.419 261.808 152.193 261.547 151.893C260.511 150.705 259.86 149.23 259.683 147.664C259.506 146.097 259.81 144.514 260.555 143.125L261.099 140.437C261.098 140.412 261.103 140.386 261.112 140.362C261.121 140.339 261.135 140.317 261.153 140.299C261.171 140.281 261.193 140.267 261.216 140.258C261.24 140.249 261.266 140.244 261.291 140.245Z" fill="#FC9D9D"/>
<g opacity="0.15">
<path opacity="0.15" d="M267.317 148.258L262.869 148.405L262.885 148.853L267.329 148.706L267.317 148.258Z" fill="black"/>
</g>
<g opacity="0.15">
<path opacity="0.15" d="M266.785 150.22L263.214 150.518L263.249 150.963L266.823 150.665L266.785 150.22Z" fill="black"/>
</g>
<path opacity="0.2" d="M262.826 143.83V141.75L261.61 143.03C261.553 143.087 261.514 143.16 261.498 143.24C261.482 143.319 261.49 143.402 261.521 143.477C261.552 143.552 261.604 143.617 261.671 143.662C261.738 143.708 261.817 143.733 261.898 143.734L262.826 143.83Z" fill="black"/>
<path d="M262.027 295.093L247.563 293.301C246.77 293.202 246.05 292.793 245.558 292.162C245.066 291.532 244.844 290.735 244.939 289.941L248.651 259.893L269.099 262.421L265.387 292.469C265.339 292.863 265.213 293.241 265.018 293.586C264.823 293.932 264.562 294.233 264.25 294.476C263.938 294.722 263.582 294.901 263.2 295.007C262.818 295.113 262.42 295.141 262.027 295.093Z" fill="#3F4249"/>
<path opacity="0.4" d="M262.827 261.653L259.115 291.701C259.015 292.495 258.605 293.215 257.976 293.705C257.346 294.197 256.548 294.421 255.755 294.325L262.027 295.093C262.819 295.186 263.616 294.962 264.245 294.469C264.873 293.98 265.284 293.26 265.387 292.469L269.099 262.421L262.827 261.653Z" fill="black"/>
<path d="M269.102 262.447L248.648 259.922L247.982 265.32L268.437 267.845L269.102 262.447Z" fill="#B2B6BB"/>
<path d="M43.2742 295.798H400.043C400.075 295.798 400.11 295.785 400.133 295.759C400.158 295.737 400.171 295.705 400.171 295.67C400.171 295.634 400.158 295.602 400.133 295.58C400.11 295.554 400.075 295.542 400.043 295.542H43.2742C43.2403 295.542 43.208 295.554 43.184 295.58C43.16 295.602 43.1462 295.634 43.1462 295.67C43.1462 295.705 43.16 295.737 43.184 295.759C43.208 295.785 43.2403 295.798 43.2742 295.798Z" fill="#B1B5BA"/>
<path d="M181.163 120.437L177.931 119.253L177.803 119.573C173.804 118.96 169.716 119.75 166.233 121.81C162.75 123.869 160.087 127.069 158.697 130.869C157.306 134.668 157.273 138.831 158.603 142.652C159.933 146.473 162.545 149.715 165.995 151.829L165.867 152.149L169.099 153.333C173.449 154.881 178.234 154.649 182.414 152.688C186.594 150.726 189.83 147.194 191.42 142.859C193.01 138.524 192.824 133.737 190.903 129.538C188.983 125.34 185.482 122.069 181.163 120.437Z" fill="#304FFE"/>
<path d="M171.916 153.205C175.377 153.205 178.762 152.179 181.64 150.256C184.519 148.332 186.762 145.598 188.087 142.4C189.412 139.202 189.758 135.682 189.083 132.287C188.408 128.891 186.741 125.772 184.293 123.324C181.845 120.876 178.726 119.209 175.33 118.534C171.935 117.859 168.415 118.205 165.217 119.53C162.019 120.855 159.285 123.098 157.361 125.977C155.438 128.855 154.412 132.24 154.412 135.701C154.412 140.344 156.256 144.796 159.538 148.079C162.821 151.361 167.273 153.205 171.916 153.205Z" fill="#304FFE"/>
<path opacity="0.4" d="M173.653 153.119C177.098 152.775 180.363 151.418 183.037 149.218C185.71 147.019 187.671 144.076 188.672 140.762C189.673 137.447 189.668 133.911 188.659 130.599C187.65 127.288 185.681 124.35 183.003 122.157C180.324 119.964 177.055 118.615 173.609 118.28C170.163 117.945 166.695 118.639 163.644 120.275C160.593 121.911 158.096 124.414 156.468 127.47C154.839 130.525 154.154 133.994 154.498 137.439C154.726 139.726 155.402 141.947 156.488 143.972C157.574 145.998 159.049 147.79 160.828 149.246C162.606 150.702 164.654 151.794 166.855 152.458C169.056 153.123 171.365 153.347 173.653 153.119Z" fill="white"/>
<path d="M167.39 142.591L162.45 135.849C162.325 135.674 162.272 135.458 162.302 135.245C162.333 135.032 162.444 134.839 162.613 134.707L164.376 133.407C164.55 133.282 164.767 133.228 164.979 133.258C165.192 133.288 165.385 133.399 165.518 133.567L168.699 137.89L179.147 130.252C179.322 130.126 179.538 130.073 179.751 130.103C179.964 130.134 180.157 130.246 180.29 130.415L181.589 132.179C181.715 132.353 181.768 132.569 181.737 132.781C181.707 132.994 181.595 133.186 181.426 133.318L168.565 142.748C168.479 142.819 168.38 142.872 168.273 142.902C168.166 142.933 168.054 142.941 167.943 142.927C167.833 142.912 167.727 142.875 167.632 142.817C167.537 142.759 167.454 142.682 167.39 142.591Z" fill="#FDD835"/>
<path d="M86.2824 87.0294C86.2824 87.0294 81.0344 89.0774 82.0904 96.0854C82.5064 98.7094 79.9464 99.0294 78.5384 100.149C74.8904 103.029 76.6184 109.461 78.5384 109.589L102.122 122.229C102.122 122.229 111.338 109.589 108.234 103.445C106.858 100.725 107.21 100.373 108.138 97.7494C109.578 93.7494 106.858 91.8294 106.858 91.8294L105.418 91.5094L100.138 79.6694L90.0584 86.5494L88.5224 86.6134L86.2824 87.0294Z" fill="#21252B"/>
<path d="M84.5543 278.709C84.858 279.66 84.9776 280.659 84.9063 281.653L84.9383 289.941C84.9008 291.385 84.4932 292.796 83.7543 294.037L83.5943 294.325C83.3869 294.684 83.0887 294.985 82.729 295.193C82.3696 295.401 81.9616 295.509 81.5463 295.509H79.1783C78.6493 295.513 78.1348 295.337 77.7168 295.01C77.2992 294.687 77.0026 294.229 76.8743 293.717C76.56 292.495 76.5162 291.215 76.7463 289.973L78.7623 281.077C78.8938 280.247 79.1415 279.439 79.4983 278.677H84.5543V278.709Z" fill="#304FFE"/>
<path d="M116.746 259.221L118.218 275.061C118.314 276.917 118.794 278.069 119.338 278.837L125.098 290.549L123.498 292.757L117.226 289.621L111.658 279.541C111.658 277.813 111.498 276.789 111.178 274.485L108.426 257.397L116.746 259.221Z" fill="#956363"/>
<path opacity="0.15" d="M118.379 280.373C117.739 279.445 116.939 277.205 116.747 276.181L114.827 270.293C114.796 270.092 114.701 269.907 114.558 269.763C114.414 269.619 114.228 269.525 114.027 269.493L110.219 268.981L110.155 268.149H117.579L118.219 275.061C118.347 276.245 118.635 277.813 119.339 278.837L125.099 290.549L124.107 292.181L118.379 280.373Z" fill="black"/>
<path d="M128.395 292.565L125.099 290.581C123.928 290.77 122.728 290.652 121.617 290.236C120.506 289.823 119.522 289.125 118.763 288.213L111.627 279.573C110.35 282.329 109.894 285.397 110.315 288.405L111.339 295.573H112.171L112.395 288.213C112.398 288.095 112.438 287.983 112.507 287.887C112.577 287.794 112.674 287.724 112.785 287.685C112.896 287.647 113.016 287.644 113.13 287.673C113.243 287.705 113.343 287.772 113.419 287.861L117.771 293.173C118.386 293.919 119.158 294.521 120.031 294.937C120.905 295.349 121.859 295.567 122.827 295.573H129.611C129.733 295.577 129.854 295.548 129.962 295.49C130.07 295.433 130.163 295.349 130.229 295.247C130.297 295.145 130.337 295.026 130.346 294.905C130.355 294.783 130.333 294.661 130.283 294.549C129.94 293.663 129.261 292.953 128.395 292.565Z" fill="#304FFE"/>
<path d="M84.907 274.966C84.5495 277.949 84.3998 280.953 84.459 283.958L84.523 287.542C84.4948 288.297 84.1761 289.01 83.6334 289.535C83.0906 290.06 82.3658 290.354 81.611 290.358H81.099C80.6807 290.361 80.267 290.271 79.8862 290.098C79.505 289.926 79.1662 289.673 78.8926 289.356C78.619 289.039 78.417 288.668 78.3006 288.268C78.1844 287.865 78.1566 287.442 78.219 287.03L79.051 282.774C79.4724 280.614 79.6231 278.41 79.499 276.214L78.699 261.75L86.155 261.878L84.907 274.966Z" fill="#956363"/>
<path d="M112.555 158.229L113.611 170.998L114.571 181.685C115.083 187.381 115.403 193.077 115.563 198.805L118.059 268.181H109.899L95.9153 176.661C95.8699 176.365 95.7185 176.094 95.4891 175.9C95.2596 175.706 94.9678 175.601 94.6673 175.605C94.3511 175.601 94.0455 175.717 93.8132 175.932C93.5809 176.147 93.4398 176.442 93.4193 176.758L86.0593 268.149L78.6673 268.085L74.9873 202.133C74.2132 188.071 75.2782 173.968 78.1553 160.181L78.5713 158.229H112.555Z" fill="#3F4249"/>
<path opacity="0.15" d="M85.5143 268.149C85.5143 268.149 84.6183 277.429 84.5543 278.677V278.709C84.4583 280.469 84.3943 282.197 84.4263 283.957L84.4903 287.541C84.4641 288.274 84.1633 288.972 83.6474 289.493C83.1319 290.015 82.4391 290.322 81.7063 290.357C83.0823 289.301 82.9543 287.573 82.9863 286.293L83.2103 270.581C83.2126 270.332 83.1274 270.09 82.9697 269.897C82.8119 269.704 82.5911 269.572 82.3463 269.525L79.0183 268.917L78.9863 268.181L85.5143 268.149Z" fill="black"/>
<path opacity="0.2" d="M94.6029 175.573C94.2864 175.577 93.9811 175.689 93.7389 175.893C93.6205 175.998 93.5255 176.125 93.4592 176.269C93.393 176.412 93.3575 176.567 93.3549 176.725L86.0589 268.149H83.2749L88.7149 181.973C89.2909 176.287 91.0189 175.573 94.6029 175.573Z" fill="black"/>
<path opacity="0.2" d="M112.81 161.366L113.61 170.998L114.186 177.654C114.922 186.038 115.402 194.443 115.626 202.87L118.026 268.182H114.378L109.674 177.238L108.842 161.462H112.522L112.682 161.43L112.81 161.366Z" fill="black"/>
<path d="M113.131 111.573L123.051 131.477L145.035 130.805L144.523 136.309L122.571 140.629C121.36 140.849 120.112 140.719 118.973 140.254C117.833 139.789 116.85 139.009 116.139 138.005L108.619 127.509" fill="#304FFE"/>
<path d="M153.131 128.501L156.683 128.021L160.939 129.238C161.018 129.256 161.091 129.293 161.153 129.346C161.215 129.399 161.263 129.465 161.294 129.54C161.325 129.615 161.338 129.696 161.332 129.777C161.326 129.858 161.301 129.936 161.259 130.005C161.182 130.105 161.076 130.179 160.957 130.219C160.837 130.259 160.709 130.262 160.587 130.229L156.491 129.461L160.043 130.485C160.106 130.5 160.165 130.529 160.216 130.569C160.266 130.61 160.306 130.661 160.334 130.72C160.362 130.778 160.376 130.842 160.376 130.907C160.375 130.972 160.36 131.035 160.331 131.093C160.267 131.191 160.173 131.265 160.064 131.306C159.954 131.346 159.835 131.35 159.723 131.318L156.139 130.613L158.667 131.638C158.709 131.654 158.746 131.681 158.776 131.716C158.805 131.75 158.825 131.791 158.835 131.836C158.844 131.88 158.843 131.926 158.83 131.97C158.818 132.013 158.795 132.053 158.763 132.085C158.712 132.143 158.646 132.185 158.573 132.208C158.5 132.23 158.421 132.232 158.347 132.213L155.403 131.478L151.915 132.341L153.131 128.501Z" fill="#956363"/>
<path opacity="0.15" d="M153.131 128.501L156.683 128.021L160.939 129.238C161.018 129.256 161.091 129.293 161.153 129.346C161.215 129.399 161.263 129.465 161.294 129.54C161.325 129.615 161.338 129.696 161.332 129.777C161.326 129.858 161.301 129.936 161.259 130.005C161.182 130.105 161.076 130.179 160.957 130.219C160.837 130.259 160.709 130.262 160.587 130.229L156.491 129.461L160.043 130.485C160.106 130.5 160.165 130.529 160.216 130.569C160.266 130.61 160.306 130.661 160.334 130.72C160.362 130.778 160.376 130.842 160.376 130.907C160.375 130.972 160.36 131.035 160.331 131.093C160.267 131.191 160.173 131.265 160.064 131.306C159.954 131.346 159.835 131.35 159.723 131.318L156.139 130.613L158.667 131.638C158.709 131.654 158.746 131.681 158.776 131.716C158.805 131.75 158.825 131.791 158.835 131.836C158.844 131.88 158.843 131.926 158.83 131.97C158.818 132.013 158.795 132.053 158.763 132.085C158.712 132.143 158.646 132.185 158.573 132.208C158.5 132.23 158.421 132.232 158.347 132.213L155.403 131.478L151.915 132.341L153.131 128.501Z" fill="black"/>
<path d="M153.355 127.382L148.107 130.422C147.81 130.608 147.466 130.708 147.115 130.71L145.067 130.806L144.555 136.31L146.251 135.958C146.536 135.894 146.831 135.894 147.115 135.958L147.563 136.054C149.308 136.526 151.169 136.296 152.747 135.414H152.779C152.996 135.292 153.235 135.215 153.483 135.19C154.379 135.094 156.619 134.87 156.619 134.87C156.649 134.87 156.678 134.865 156.706 134.854C156.733 134.843 156.758 134.827 156.779 134.806C156.801 134.785 156.817 134.76 156.828 134.732C156.839 134.705 156.844 134.675 156.843 134.646C156.824 134.346 156.696 134.065 156.484 133.853C156.272 133.641 155.99 133.513 155.691 133.494L154.123 133.27C153.291 133.142 152.811 132.374 153.195 131.734L154.763 128.982C154.872 128.806 155.043 128.68 155.243 128.63L160.811 127.19C160.921 127.172 161.02 127.112 161.086 127.022C161.152 126.932 161.18 126.82 161.163 126.71C161.129 126.572 161.044 126.453 160.925 126.376C160.806 126.298 160.663 126.269 160.523 126.294C159.115 126.486 154.795 127.094 153.771 127.254C153.622 127.246 153.475 127.292 153.355 127.382Z" fill="#956363"/>
<path opacity="0.15" d="M123.051 131.445L121.291 131.509C121.089 131.514 120.89 131.455 120.723 131.34C120.556 131.225 120.43 131.06 120.363 130.869L117.451 120.181L123.051 131.445Z" fill="black"/>
<path d="M77.835 107.99L87.563 106.006L103.403 106.166L109.227 107.734C112.843 108.886 114.667 112.054 114.635 115.862L114.091 118.614L115.627 123.83C116.491 127.19 115.371 129.142 113.003 131.862C112.267 132.726 111.883 133.078 111.595 134.71C111.595 134.71 110.187 140.054 109.931 142.262C109.335 147.294 109.12 152.365 109.291 157.43L79.371 157.366C77.995 157.366 77.387 155.894 78.059 154.678C78.059 154.678 80.107 150.614 80.459 147.19C81.707 136.022 78.507 122.742 78.507 122.742L72.235 115.798C72.043 112.182 74.411 108.79 77.835 107.99Z" fill="#304FFE"/>
<path d="M98.2822 146.422L101.866 145.718L102.666 146.518L101.738 147.638L98.2822 146.422Z" fill="#956363"/>
<path opacity="0.15" d="M145.898 134.901C146.313 134.811 146.744 134.833 147.146 134.965C148.202 135.317 150.57 135.925 152.81 135.349C152.778 135.349 152.746 135.381 152.714 135.381H152.682C151.907 135.834 151.047 136.125 150.156 136.235C149.265 136.345 148.361 136.272 147.498 136.021L147.05 135.925C146.766 135.861 146.471 135.861 146.186 135.925L137.802 137.589L145.77 136.021L145.898 134.901Z" fill="black"/>
<path opacity="0.15" d="M98.9221 152.565L93.93 151.509L79.4021 150.293L79.2421 150.357C78.5381 152.373 78.2501 153.077 77.7061 154.389L79.85 154.453C83.164 154.518 86.4782 154.357 89.77 153.973C92.8235 153.621 95.9089 153.654 98.9541 154.069V152.565H98.9221Z" fill="black"/>
<path d="M109.323 160.821L109.003 157.557L78.8271 157.493L77.9951 160.821H109.323Z" fill="#FDD835"/>
<path opacity="0.6" d="M95.4672 146.358L94.2192 146.006L92.0752 151.318L93.5152 151.446L95.4672 146.358Z" fill="black"/>
<path opacity="0.6" d="M88.5861 108.917L84.7461 106.581L86.9861 106.133L102.826 106.293L104.362 106.709L100.554 108.981C98.7432 110.063 96.6709 110.628 94.5615 110.617C92.452 110.606 90.3858 110.018 88.5861 108.917Z" fill="black"/>
<path d="M89.7709 93.8457L88.9709 104.118C88.9585 104.536 88.8119 104.939 88.5524 105.268C88.2932 105.596 87.9351 105.833 87.5309 105.942L86.3149 106.262L89.0989 107.99C90.7089 108.993 92.5645 109.533 94.4615 109.55C96.3585 109.567 98.2231 109.06 99.8509 108.086L102.859 106.294L101.323 105.878C100.947 105.776 100.611 105.562 100.36 105.265C100.109 104.968 99.9533 104.601 99.9149 104.214L99.4029 92.5657L89.7709 93.8457Z" fill="#956363"/>
<path d="M96.3312 101.814L95.8192 101.75C94.0858 101.613 92.4765 100.796 91.3434 99.4771C90.2103 98.1577 89.6452 96.4441 89.7712 94.7097L90.4752 85.5257C90.5178 84.9485 90.7879 84.4121 91.226 84.0339C91.664 83.656 92.2343 83.4675 92.8112 83.5097L101.387 84.1817C102.137 84.2397 102.834 84.592 103.325 85.1613C103.817 85.7309 104.063 86.4713 104.011 87.2217L103.339 95.7657C103.278 96.6233 103.047 97.4608 102.661 98.2291C102.276 98.9977 101.742 99.6825 101.091 100.244C100.44 100.806 99.6842 101.234 98.8676 101.504C98.0509 101.773 97.1888 101.878 96.3312 101.814Z" fill="#956363"/>
<path d="M96.8427 92.5973C96.9819 92.5973 97.1179 92.556 97.2337 92.4786C97.3496 92.4015 97.4398 92.2914 97.4932 92.1627C97.5464 92.0341 97.5604 91.8927 97.5332 91.756C97.506 91.6194 97.4388 91.4939 97.3406 91.3954C97.242 91.2971 97.1166 91.2299 96.98 91.2027C96.8433 91.1755 96.7019 91.1896 96.5732 91.2427C96.4446 91.2962 96.3348 91.3864 96.2574 91.5023C96.18 91.6181 96.1387 91.7541 96.1387 91.8933C96.1384 91.9858 96.1563 92.0776 96.1915 92.1631C96.2267 92.2488 96.2785 92.3266 96.3438 92.3922C96.4094 92.4575 96.4872 92.5093 96.5729 92.5445C96.6584 92.5797 96.7502 92.5976 96.8427 92.5973Z" fill="#21252B"/>
<path d="M97.2259 92.2457C97.2576 92.2457 97.2886 92.2361 97.3149 92.2188C97.3411 92.2012 97.3619 92.1759 97.3738 92.1468C97.3859 92.1177 97.3891 92.0853 97.383 92.0543C97.377 92.0233 97.3616 91.9948 97.3392 91.9724C97.3168 91.95 97.2883 91.9349 97.2573 91.9285C97.2262 91.9225 97.1939 91.9257 97.1648 91.9378C97.1357 91.95 97.1107 91.9705 97.0931 91.9967C97.0755 92.0229 97.0659 92.054 97.0659 92.0857C97.0659 92.1279 97.0829 92.1689 97.113 92.1986C97.143 92.2287 97.1837 92.2457 97.2259 92.2457Z" fill="white"/>
<path d="M102.315 93.1095C102.455 93.1095 102.591 93.0682 102.706 92.9908C102.822 92.9133 102.912 92.8036 102.966 92.6749C103.019 92.5463 103.033 92.4045 103.006 92.2679C102.978 92.1316 102.912 92.0061 102.813 91.9076C102.715 91.809 102.589 91.7421 102.453 91.7149C102.316 91.6877 102.175 91.7018 102.046 91.7549C101.917 91.8084 101.807 91.8986 101.73 92.0141C101.653 92.13 101.611 92.266 101.611 92.4055C101.611 92.498 101.629 92.5898 101.664 92.6753C101.699 92.761 101.751 92.8388 101.816 92.9041C101.882 92.9697 101.96 93.0215 102.045 93.0567C102.131 93.0919 102.223 93.1098 102.315 93.1095Z" fill="#21252B"/>
<path d="M102.635 92.7576C102.667 92.7576 102.698 92.7483 102.724 92.7307C102.75 92.7131 102.771 92.6881 102.783 92.659C102.795 92.6296 102.798 92.5976 102.792 92.5665C102.786 92.5355 102.77 92.507 102.748 92.4846C102.726 92.4622 102.697 92.4468 102.666 92.4408C102.635 92.4347 102.603 92.4379 102.574 92.4497C102.545 92.4619 102.52 92.4824 102.502 92.5089C102.484 92.5352 102.475 92.5659 102.475 92.5976C102.475 92.6401 102.492 92.6808 102.522 92.7108C102.552 92.7409 102.593 92.7576 102.635 92.7576Z" fill="white"/>
<g opacity="0.3">
<path opacity="0.3" d="M99.2746 96.2133L98.3146 96.1813C98.1866 96.1813 98.1226 96.0853 98.1226 95.9573C98.1226 95.8293 98.2186 95.7653 98.3466 95.7653L99.3066 95.7973C99.3635 95.7999 99.4202 95.7913 99.4736 95.7717C99.527 95.7522 99.576 95.7221 99.6179 95.6834C99.6595 95.6447 99.6931 95.598 99.7165 95.5461C99.7402 95.4943 99.753 95.4383 99.7546 95.3813C99.7597 95.3241 99.7523 95.2665 99.7338 95.2117C99.7149 95.1573 99.6851 95.1074 99.6458 95.0655C99.6067 95.0233 99.559 94.9897 99.5062 94.9669C99.4531 94.9442 99.3962 94.9327 99.3386 94.9333C99.2106 94.9333 99.1466 94.8373 99.1466 94.7093C99.1466 94.5813 99.2426 94.5173 99.3706 94.5173C99.4826 94.5218 99.5926 94.5487 99.6941 94.5967C99.7952 94.6444 99.8861 94.7122 99.9606 94.7957C100.035 94.8793 100.092 94.9772 100.128 95.0834C100.164 95.1893 100.179 95.3017 100.171 95.4133C100.15 95.6354 100.047 95.8415 99.8803 95.99C99.7139 96.1385 99.4976 96.2185 99.2746 96.2133Z" fill="black"/>
</g>
<path d="M106.891 91.8291C105.931 90.9971 106.475 89.6531 106.475 89.6531V89.6851C108.235 82.3571 103.563 77.6851 99.3395 76.8211C96.9395 76.3411 90.5075 76.6291 88.4915 83.9571C88.2035 85.0131 88.1075 86.1651 86.2515 87.0291C86.2515 87.0291 87.3715 90.8691 87.6595 92.2771C87.7875 92.8851 89.1315 90.6131 89.6755 90.3891C89.7395 90.3571 90.1235 91.0611 90.3795 91.5091C90.4121 91.5743 90.4623 91.6294 90.5244 91.6678C90.5865 91.7062 90.6582 91.7267 90.7315 91.7267C90.8044 91.7267 90.8761 91.7062 90.9382 91.6678C91.0003 91.6294 91.0505 91.5743 91.0835 91.5091L91.1475 91.4131C91.5996 90.3884 91.8806 89.2966 91.9795 88.1811C95.0835 87.4451 95.0835 84.3091 95.0835 84.3091C97.8355 90.7091 103.947 89.1091 103.947 89.1091L103.627 92.5331C104.143 92.1113 104.605 91.6275 105.003 91.0931L105.995 91.9891L106.891 91.8291Z" fill="#21252B"/>
<path d="M90.219 95.125C90.219 95.125 87.083 95.253 86.539 92.149C85.995 89.045 89.8353 88.597 90.2833 91.733L90.571 95.157L90.219 95.125Z" fill="#956363"/>
<path opacity="0.3" d="M87.5626 90.5492C87.6993 90.4493 87.8548 90.3776 88.0196 90.3392C88.1847 90.3008 88.3556 90.2961 88.5226 90.3252C88.6839 90.3729 88.833 90.4548 88.9601 90.5652C89.0871 90.6756 89.1889 90.8122 89.2586 90.9652C89.4647 91.3377 89.5745 91.7556 89.5786 92.1812V92.5332C89.5786 92.7892 89.1626 92.8532 89.1626 92.5652V92.2132C89.1572 91.8567 89.0695 91.5063 88.9066 91.1892C88.8621 91.0852 88.7965 90.9914 88.714 90.9143C88.6314 90.8372 88.5335 90.7783 88.4266 90.7412C88.2004 90.7085 87.9706 90.7661 87.7866 90.9012C87.7633 90.9159 87.7377 90.9261 87.7105 90.9309C87.6836 90.9357 87.6561 90.9351 87.6292 90.929C87.6023 90.9233 87.577 90.9121 87.5546 90.8964C87.5322 90.8804 87.513 90.8605 87.4986 90.8372C87.4346 90.7092 87.4666 90.5812 87.5626 90.5492Z" fill="black"/>
<path d="M102.763 90.3571C102.337 90.342 101.913 90.4201 101.521 90.5859C101.128 90.7519 100.777 91.0012 100.491 91.3171C99.9447 91.0486 99.3217 90.9807 98.7309 91.1251C98.4417 90.4959 97.9319 89.9945 97.2977 89.7164C96.6634 89.4383 95.9492 89.4031 95.2903 89.6169C94.6317 89.8307 94.0746 90.279 93.7245 90.8764C93.3748 91.4742 93.2564 92.1795 93.3924 92.8585C93.5281 93.5375 93.9085 94.143 94.4615 94.5603C95.0141 94.9772 95.7009 95.1766 96.3911 95.1206C97.0813 95.0649 97.7271 94.7574 98.2055 94.2569C98.6842 93.7561 98.962 93.0972 98.9866 92.4051C98.9914 92.0806 98.9485 91.7571 98.8586 91.4451C99.3325 91.3347 99.8298 91.391 100.267 91.6051C100.02 91.9705 99.8609 92.3881 99.8023 92.8249C99.7437 93.262 99.7873 93.7068 99.9293 94.1241C100.071 94.5414 100.308 94.9203 100.621 95.2307C100.934 95.5414 101.315 95.775 101.734 95.9139C102.152 96.0524 102.597 96.0921 103.034 96.03C103.47 95.9679 103.886 95.8054 104.25 95.5555C104.613 95.3055 104.913 94.9747 105.127 94.5891C105.341 94.2035 105.463 93.7737 105.483 93.3331C105.502 92.9587 105.446 92.5843 105.319 92.2313C105.192 91.8783 104.997 91.5542 104.744 91.2774C104.491 91.0006 104.186 90.7769 103.846 90.6188C103.505 90.4607 103.137 90.3721 102.763 90.3571ZM96.0429 94.8051C95.5521 94.7833 95.0791 94.6163 94.6833 94.3251C94.2874 94.0342 93.9869 93.6323 93.8196 93.1705C93.6522 92.7087 93.6257 92.2076 93.7431 91.7308C93.8605 91.254 94.1165 90.8223 94.4791 90.4911C94.842 90.1599 95.2948 89.9436 95.7802 89.8697C96.2657 89.7958 96.7623 89.8675 97.2071 90.0758C97.6522 90.2841 98.025 90.6195 98.2791 91.0399C98.5332 91.4601 98.657 91.9465 98.6346 92.4371C98.6212 92.7631 98.5434 93.0835 98.4055 93.3791C98.2676 93.6751 98.0727 93.9407 97.8317 94.1609C97.5908 94.3807 97.3085 94.5513 97.0017 94.6617C96.6945 94.7724 96.3687 94.8211 96.0429 94.8051ZM102.539 95.7011C102.048 95.6793 101.575 95.5123 101.179 95.2211C100.783 94.9302 100.483 94.5283 100.316 94.0665C100.148 93.6047 100.122 93.1036 100.239 92.6268C100.356 92.15 100.613 91.7183 100.975 91.3871C101.338 91.0559 101.791 90.8396 102.276 90.7657C102.762 90.6918 103.258 90.7635 103.703 90.9718C104.148 91.1801 104.521 91.5155 104.775 91.9359C105.03 92.3561 105.153 92.8425 105.131 93.3331C105.117 93.6591 105.039 93.9795 104.901 94.2751C104.764 94.5711 104.569 94.8367 104.328 95.0569C104.087 95.2767 103.805 95.447 103.498 95.5577C103.19 95.6684 102.865 95.7171 102.539 95.7011Z" fill="white"/>
<path d="M89.4195 94.6135C89.5395 94.6135 89.6573 94.578 89.7571 94.5111C89.8573 94.4442 89.935 94.3495 89.9811 94.2385C90.0272 94.1271 90.039 94.0049 90.0157 93.8871C89.9923 93.769 89.9344 93.6609 89.8493 93.5758C89.7642 93.4906 89.656 93.4327 89.5379 93.4094C89.4202 93.386 89.2979 93.3978 89.1866 93.4439C89.0755 93.49 88.9808 93.5678 88.9139 93.6679C88.847 93.7678 88.8115 93.8855 88.8115 94.0055C88.8115 94.1668 88.8755 94.3217 88.9894 94.4356C89.1034 94.5495 89.2583 94.6135 89.4195 94.6135Z" fill="#FDD835"/>
<path opacity="0.15" d="M89.6105 94.5492C89.5216 94.5472 89.4339 94.5274 89.3529 94.4903C89.272 94.4535 89.1993 94.4004 89.1395 94.3348C89.0797 94.2688 89.0339 94.1914 89.0048 94.1072C88.9756 94.0231 88.9641 93.9341 88.9705 93.8452C88.9792 93.7181 89.0233 93.5962 89.0985 93.4932C89.0112 93.5469 88.9385 93.6224 88.8883 93.712C88.8381 93.8016 88.8112 93.9024 88.8105 94.0052C88.8073 94.0874 88.8205 94.1696 88.8493 94.2468C88.8781 94.3239 88.9222 94.3943 88.9792 94.4541C89.0358 94.5136 89.104 94.5613 89.1795 94.5943C89.255 94.6272 89.3363 94.6445 89.4185 94.6452C89.5427 94.648 89.6652 94.6148 89.7705 94.5492C89.7065 94.5172 89.6745 94.5492 89.6105 94.5492Z" fill="black"/>
<path opacity="0.15" d="M89.6115 95.093L90.6355 95.189L89.2915 97.205L89.6115 95.093Z" fill="black"/>
<path opacity="0.15" d="M99.7872 101.11L99.6592 101.174C98.5709 101.599 97.3959 101.753 96.2352 101.622L95.4672 101.526C95.3712 101.494 95.2752 101.494 95.1792 101.462H95.1152C94.9619 101.434 94.8119 101.391 94.6672 101.334C94.6032 101.302 94.5392 101.302 94.4752 101.27C93.6784 101.03 92.9309 100.651 92.2672 100.15C92.2288 100.12 92.1805 100.107 92.1325 100.113C92.0845 100.119 92.0407 100.144 92.0112 100.182C91.9815 100.22 91.968 100.268 91.9741 100.316C91.9802 100.364 92.0048 100.408 92.0432 100.438C92.9002 101.073 93.8816 101.52 94.9232 101.75C95.5514 102.349 96.3053 102.801 97.1303 103.072C97.9549 103.343 98.8298 103.427 99.6912 103.318L99.9152 103.286L99.7872 101.11Z" fill="black"/>
<path d="M99.6909 97.3654C99.7869 97.3654 99.8189 97.4934 99.7869 97.5574C99.577 97.8752 99.2842 98.1292 98.9402 98.2931C98.5962 98.4566 98.2141 98.5231 97.8349 98.4854C97.457 98.4335 97.1012 98.2771 96.8074 98.0342C96.5133 97.791 96.2928 97.4707 96.1709 97.1094C96.1389 97.0134 96.2029 96.9174 96.2989 96.9494L99.6909 97.3654Z" fill="white"/>
<path opacity="0.6" d="M146.378 130.741L145.034 130.805L144.522 136.309L145.77 136.053L146.378 130.741Z" fill="black"/>
<path opacity="0.15" d="M112.459 132.021C114.795 129.301 115.179 126.613 114.283 123.253L113.323 119.765L112.523 115.989V115.925C112.529 115.89 112.543 115.857 112.566 115.829C112.588 115.801 112.617 115.779 112.651 115.765C112.674 115.759 112.698 115.757 112.722 115.76C112.745 115.763 112.768 115.771 112.789 115.783C112.81 115.795 112.828 115.811 112.843 115.829C112.858 115.849 112.868 115.87 112.875 115.893L113.867 120.341L114.347 121.845C114.347 121.845 118.155 127.285 116.971 131.413C116.523 132.917 116.267 133.909 117.195 135.189L118.859 137.653C120.363 139.029 122.603 138.677 122.603 138.677L144.587 135.125L144.459 136.341L123.947 140.405H123.979L122.507 140.661C121.463 140.852 120.388 140.783 119.378 140.46C118.367 140.136 117.453 139.567 116.715 138.805C116.477 138.571 116.262 138.314 116.075 138.037L112.139 132.405C112.235 132.277 112.363 132.149 112.459 132.021Z" fill="black"/>
<path d="M103.211 90.2292C97.803 90.1652 95.691 85.3012 95.659 85.2372C95.627 85.1092 95.659 84.9812 95.787 84.9492C95.8136 84.9338 95.8433 84.9252 95.874 84.9236C95.9048 84.922 95.9355 84.9278 95.9633 84.9402C95.9915 84.9527 96.0161 84.9716 96.0356 84.9953C96.0548 85.0193 96.0686 85.0471 96.075 85.0772C96.107 85.1092 98.123 89.7172 103.211 89.7812C103.271 89.7812 103.327 89.8049 103.369 89.8468C103.411 89.8887 103.435 89.9457 103.435 90.0052C103.435 90.0647 103.411 90.1217 103.369 90.1636C103.327 90.2055 103.271 90.2292 103.211 90.2292Z" fill="#21252B"/>
<g opacity="0.3">
<path opacity="0.3" d="M95.4979 113.845C87.817 113.865 80.1495 113.201 72.5859 111.861L72.9699 111.189L73.4499 110.517C76.1059 110.997 93.8019 114.037 112.874 111.029L113.578 112.437L113.354 112.501C107.446 113.415 101.476 113.864 95.4979 113.845Z" fill="white"/>
</g>
<g opacity="0.3">
<path opacity="0.3" d="M101.771 136.021C94.419 135.996 87.0805 135.408 79.8187 134.261L79.6587 132.757C79.8187 132.789 96.6507 135.573 111.211 134.101L110.859 135.573C107.84 135.897 104.806 136.047 101.771 136.021Z" fill="white"/>
</g>
<g opacity="0.3">
<path opacity="0.3" d="M101.739 145.557C94.506 145.546 87.2846 144.979 80.1387 143.861L80.1707 142.357C80.3307 142.389 94.7307 145.205 109.291 143.733L109.451 145.205C106.379 145.557 104.843 145.557 101.739 145.557Z" fill="white"/>
</g>
<g opacity="0.3">
<path opacity="0.3" d="M100.972 154.421C89.3236 154.421 78.5716 152.629 78.4116 152.629L78.9876 151.093C79.1476 151.125 95.5956 154.005 110.188 152.533L110.348 154.005C107.244 154.293 104.076 154.421 100.972 154.421Z" fill="white"/>
</g>
<path opacity="0.15" d="M80.7788 143.286L93.2588 145.718" stroke="black" stroke-width="1.18" stroke-miterlimit="10" stroke-linecap="round"/>
<path opacity="0.15" d="M98.2822 146.422L101.866 145.718L102.666 146.518L101.738 147.638L98.2822 146.422Z" fill="black"/>
<path d="M72.0436 113.173L75.0836 113.397C77.5156 117.429 78.9556 120.629 78.8276 125.333L79.0516 127.189L73.1636 142.069L94.6036 146.165L92.0756 151.285L66.4756 149.461C63.7236 149.301 61.7716 146.325 62.7956 143.573L72.0436 113.173Z" fill="#304FFE"/>
<path d="M94.1866 158.934L105.195 139.926C105.321 139.721 105.514 139.565 105.74 139.484C105.967 139.402 106.214 139.4 106.443 139.478L121.963 144.726C122.101 144.768 122.229 144.842 122.335 144.941C122.442 145.04 122.524 145.162 122.577 145.298C122.629 145.433 122.65 145.579 122.638 145.724C122.626 145.868 122.581 146.009 122.507 146.134L112.139 164.15C112.02 164.348 111.841 164.502 111.627 164.588C111.413 164.675 111.177 164.689 110.955 164.63L94.7946 160.374C94.6509 160.332 94.5181 160.258 94.4064 160.159C94.2947 160.059 94.2064 159.936 94.1482 159.798C94.0899 159.66 94.0634 159.511 94.0698 159.362C94.0765 159.212 94.1162 159.066 94.1866 158.934Z" fill="#3F4249"/>
<path opacity="0.8" d="M94.1866 158.934L105.195 139.926C105.321 139.721 105.514 139.565 105.74 139.484C105.967 139.402 106.214 139.4 106.443 139.478L121.963 144.726C122.101 144.768 122.229 144.842 122.335 144.941C122.442 145.04 122.524 145.162 122.577 145.298C122.629 145.433 122.65 145.579 122.638 145.724C122.626 145.868 122.581 146.009 122.507 146.134L112.139 164.15C112.02 164.348 111.841 164.502 111.627 164.588C111.413 164.675 111.177 164.689 110.955 164.63L94.7946 160.374C94.6509 160.332 94.5181 160.258 94.4064 160.159C94.2947 160.059 94.2064 159.936 94.1482 159.798C94.0899 159.66 94.0634 159.511 94.0698 159.362C94.0765 159.212 94.1162 159.066 94.1866 158.934Z" fill="black"/>
<path d="M94.7308 159.094L105.739 140.086C105.866 139.881 106.058 139.725 106.285 139.644C106.511 139.563 106.759 139.56 106.987 139.638L122.507 144.886C122.646 144.928 122.773 145.002 122.88 145.101C122.986 145.2 123.068 145.322 123.121 145.458C123.173 145.593 123.194 145.739 123.182 145.884C123.17 146.029 123.125 146.169 123.051 146.294L112.683 164.31C112.565 164.508 112.385 164.662 112.171 164.749C111.958 164.835 111.722 164.85 111.499 164.79L95.3388 160.534C95.1942 160.493 95.0604 160.421 94.9475 160.322C94.8348 160.222 94.7459 160.099 94.6873 159.96C94.6291 159.822 94.6025 159.672 94.6102 159.522C94.6175 159.372 94.6588 159.226 94.7308 159.094Z" fill="#21252B"/>
<path d="M110.763 149.205C110.861 149.12 110.934 149.009 110.973 148.885C111.013 148.761 111.018 148.628 110.987 148.501C111.439 148.338 111.93 148.316 112.395 148.437C113.099 148.693 113.259 149.301 112.747 149.845C112.456 150.117 112.101 150.31 111.714 150.405C111.327 150.501 110.923 150.495 110.539 150.389C110.365 150.344 110.211 150.245 110.096 150.108C109.981 149.97 109.912 149.8 109.899 149.621C110.225 149.583 110.53 149.437 110.763 149.205Z" fill="#3F4249"/>
<path opacity="0.4" d="M121.192 147.087C121.595 146.866 121.797 146.447 121.643 146.181C121.49 145.916 121.038 145.861 120.635 146.079C120.232 146.297 120.034 146.719 120.187 146.988C120.341 147.257 120.779 147.311 121.192 147.087Z" fill="black"/>
<path d="M121.319 147.151C121.719 146.927 121.921 146.511 121.767 146.242C121.614 145.973 121.163 145.922 120.763 146.143C120.363 146.364 120.158 146.783 120.311 147.048C120.465 147.314 120.916 147.372 121.319 147.151Z" fill="#3F4249"/>
<path opacity="0.5" d="M121.224 146.985C121.486 146.841 121.614 146.572 121.512 146.386C121.432 146.292 121.32 146.232 121.197 146.218C121.075 146.205 120.951 146.239 120.853 146.313C120.587 146.46 120.459 146.726 120.562 146.911C120.642 147.006 120.755 147.067 120.878 147.081C121.001 147.094 121.125 147.06 121.224 146.985Z" fill="black"/>
<path opacity="0.4" d="M121.356 146.645C121.376 146.604 121.387 146.558 121.386 146.512C121.386 146.465 121.374 146.42 121.352 146.379C121.33 146.338 121.298 146.303 121.26 146.277C121.221 146.251 121.178 146.235 121.132 146.229H121.228C121.484 146.229 121.644 146.421 121.548 146.645C121.487 146.765 121.396 146.867 121.284 146.94C121.171 147.013 121.041 147.055 120.908 147.061H120.812C120.931 147.047 121.044 147.001 121.14 146.928C121.236 146.855 121.31 146.757 121.356 146.645Z" fill="black"/>
<path d="M95.4664 146.357L95.9144 146.453C96.0187 146.482 96.1269 146.492 96.2344 146.485L101.546 146.389C102.103 146.392 102.655 146.489 103.178 146.677L109.29 148.917C109.416 148.965 109.52 149.055 109.584 149.173C109.649 149.29 109.669 149.427 109.642 149.557C109.602 149.696 109.51 149.814 109.384 149.885C109.259 149.957 109.111 149.977 108.97 149.941L103.114 148.405L108.682 151.445C108.75 151.479 108.809 151.526 108.858 151.584C108.906 151.641 108.942 151.708 108.963 151.78C108.984 151.852 108.99 151.928 108.98 152.003C108.97 152.077 108.945 152.149 108.906 152.213C108.838 152.341 108.726 152.44 108.591 152.492C108.457 152.545 108.307 152.548 108.17 152.501L102.506 150.261L107.626 152.277C107.694 152.302 107.756 152.34 107.808 152.389C107.861 152.438 107.904 152.497 107.933 152.563C107.963 152.628 107.98 152.699 107.982 152.771C107.984 152.843 107.972 152.914 107.946 152.981C107.899 153.122 107.8 153.24 107.669 153.311C107.539 153.382 107.387 153.402 107.242 153.365L102.026 151.957L106.506 153.173C106.564 153.187 106.618 153.212 106.665 153.247C106.712 153.283 106.752 153.327 106.782 153.378C106.812 153.428 106.831 153.484 106.839 153.543C106.847 153.602 106.842 153.661 106.826 153.717C106.816 153.777 106.792 153.834 106.759 153.884C106.725 153.935 106.681 153.978 106.631 154.011C106.58 154.044 106.522 154.066 106.463 154.076C106.403 154.086 106.341 154.084 106.282 154.069L94.3144 151.541L93.4824 151.477L95.4664 146.357Z" fill="#956363"/>
<path opacity="0.15" d="M107.627 152.277L102.859 150.389" stroke="black" stroke-width="1.18" stroke-miterlimit="10" stroke-linecap="round"/>
<path opacity="0.15" d="M102.026 151.926L106.538 153.142" stroke="black" stroke-width="1.18" stroke-miterlimit="10" stroke-linecap="round"/>
<path opacity="0.15" d="M106.859 153.685C106.848 153.745 106.825 153.802 106.792 153.852C106.758 153.903 106.714 153.946 106.663 153.979C106.612 154.012 106.555 154.034 106.495 154.044C106.435 154.054 106.374 154.052 106.315 154.037L94.3471 151.509L93.5151 151.445L93.9311 150.389L106.859 153.685Z" fill="black"/>
<path opacity="0.15" d="M71.8833 141.845L73.1633 142.101L78.4433 128.693L78.8913 127.573C78.4753 125.653 77.9313 123.157 77.6113 121.621C77.5918 121.545 77.5483 121.476 77.4871 121.426C77.4257 121.376 77.3502 121.347 77.2711 121.344C77.1921 121.34 77.114 121.362 77.0484 121.406C76.9828 121.45 76.9332 121.515 76.9073 121.589L70.9873 140.373C70.9428 140.529 70.9313 140.692 70.9531 140.852C70.9748 141.012 71.0295 141.167 71.1137 141.305C71.1979 141.443 71.3095 141.563 71.442 141.655C71.5745 141.748 71.7246 141.813 71.8833 141.845Z" fill="black"/>
<path opacity="0.15" d="M93.2579 145.718L88.5859 144.822" stroke="black" stroke-width="1.18" stroke-miterlimit="10" stroke-linecap="round"/>
<path opacity="0.15" d="M87.0828 144.534L80.7788 143.286" stroke="black" stroke-width="1.18" stroke-miterlimit="10" stroke-linecap="round"/>
<path opacity="0.15" d="M98.2822 146.422L101.866 145.718L102.666 146.518L101.738 147.638L98.2822 146.422Z" fill="black"/>
<path d="M94.1866 158.934L105.195 139.926C105.321 139.721 105.514 139.565 105.74 139.484C105.967 139.402 106.214 139.4 106.443 139.478L121.963 144.726C122.101 144.768 122.229 144.842 122.335 144.941C122.442 145.04 122.524 145.162 122.577 145.298C122.629 145.433 122.65 145.579 122.638 145.724C122.626 145.868 122.581 146.009 122.507 146.134L112.139 164.15C112.02 164.348 111.841 164.502 111.627 164.588C111.413 164.675 111.177 164.689 110.955 164.63L94.7946 160.374C94.6509 160.332 94.5181 160.258 94.4064 160.159C94.2947 160.059 94.2064 159.936 94.1482 159.798C94.0899 159.66 94.0634 159.511 94.0698 159.362C94.0765 159.212 94.1162 159.066 94.1866 158.934Z" fill="#3F4249"/>
<path opacity="0.8" d="M94.1866 158.934L105.195 139.926C105.321 139.721 105.514 139.565 105.74 139.484C105.967 139.402 106.214 139.4 106.443 139.478L121.963 144.726C122.101 144.768 122.229 144.842 122.335 144.941C122.442 145.04 122.524 145.162 122.577 145.298C122.629 145.433 122.65 145.579 122.638 145.724C122.626 145.868 122.581 146.009 122.507 146.134L112.139 164.15C112.02 164.348 111.841 164.502 111.627 164.588C111.413 164.675 111.177 164.689 110.955 164.63L94.7946 160.374C94.6509 160.332 94.5181 160.258 94.4064 160.159C94.2947 160.059 94.2064 159.936 94.1482 159.798C94.0899 159.66 94.0634 159.511 94.0698 159.362C94.0765 159.212 94.1162 159.066 94.1866 158.934Z" fill="black"/>
<path d="M94.7308 159.094L105.739 140.086C105.866 139.881 106.058 139.725 106.285 139.644C106.511 139.563 106.759 139.56 106.987 139.638L122.507 144.886C122.646 144.928 122.773 145.002 122.88 145.101C122.986 145.2 123.068 145.322 123.121 145.458C123.173 145.593 123.194 145.739 123.182 145.884C123.17 146.029 123.125 146.169 123.051 146.294L112.683 164.31C112.565 164.508 112.385 164.662 112.171 164.749C111.958 164.835 111.722 164.85 111.499 164.79L95.3388 160.534C95.1942 160.493 95.0604 160.421 94.9475 160.322C94.8348 160.222 94.7459 160.099 94.6873 159.96C94.6291 159.822 94.6025 159.672 94.6102 159.522C94.6175 159.372 94.6588 159.226 94.7308 159.094Z" fill="#21252B"/>
<path d="M110.763 149.205C110.861 149.12 110.934 149.009 110.973 148.885C111.013 148.761 111.018 148.628 110.987 148.501C111.439 148.338 111.93 148.316 112.395 148.437C113.099 148.693 113.259 149.301 112.747 149.845C112.456 150.117 112.101 150.31 111.714 150.405C111.327 150.501 110.923 150.495 110.539 150.389C110.365 150.344 110.211 150.245 110.096 150.108C109.981 149.97 109.912 149.8 109.899 149.621C110.225 149.583 110.53 149.437 110.763 149.205Z" fill="#3F4249"/>
<path opacity="0.4" d="M121.192 147.087C121.595 146.866 121.797 146.447 121.643 146.181C121.49 145.916 121.038 145.861 120.635 146.079C120.232 146.297 120.034 146.719 120.187 146.988C120.341 147.257 120.779 147.311 121.192 147.087Z" fill="black"/>
<path d="M121.319 147.151C121.719 146.927 121.921 146.511 121.767 146.242C121.614 145.973 121.163 145.922 120.763 146.143C120.363 146.364 120.158 146.783 120.311 147.048C120.465 147.314 120.916 147.372 121.319 147.151Z" fill="#3F4249"/>
<path opacity="0.5" d="M121.224 146.985C121.486 146.841 121.614 146.572 121.512 146.386C121.432 146.292 121.32 146.232 121.197 146.218C121.075 146.205 120.951 146.239 120.853 146.313C120.587 146.46 120.459 146.726 120.562 146.911C120.642 147.006 120.755 147.067 120.878 147.081C121.001 147.094 121.125 147.06 121.224 146.985Z" fill="black"/>
<path opacity="0.4" d="M121.356 146.645C121.376 146.604 121.387 146.558 121.386 146.512C121.386 146.465 121.374 146.42 121.352 146.379C121.33 146.338 121.298 146.303 121.26 146.277C121.221 146.251 121.178 146.235 121.132 146.229H121.228C121.484 146.229 121.644 146.421 121.548 146.645C121.487 146.765 121.396 146.867 121.284 146.94C121.171 147.013 121.041 147.055 120.908 147.061H120.812C120.931 147.047 121.044 147.001 121.14 146.928C121.236 146.855 121.31 146.757 121.356 146.645Z" fill="black"/>
<path d="M95.4664 146.357L95.9144 146.453C96.0187 146.482 96.1269 146.492 96.2344 146.485L101.546 146.389C102.103 146.392 102.655 146.489 103.178 146.677L109.29 148.917C109.416 148.965 109.52 149.055 109.584 149.173C109.649 149.29 109.669 149.427 109.642 149.557C109.602 149.696 109.51 149.814 109.384 149.885C109.259 149.957 109.111 149.977 108.97 149.941L103.114 148.405L108.682 151.445C108.75 151.479 108.809 151.526 108.858 151.584C108.906 151.641 108.942 151.708 108.963 151.78C108.984 151.852 108.99 151.928 108.98 152.003C108.97 152.077 108.945 152.149 108.906 152.213C108.838 152.341 108.726 152.44 108.591 152.492C108.457 152.545 108.307 152.548 108.17 152.501L102.506 150.261L107.626 152.277C107.694 152.302 107.756 152.34 107.808 152.389C107.861 152.438 107.904 152.497 107.933 152.563C107.963 152.628 107.98 152.699 107.982 152.771C107.984 152.843 107.972 152.914 107.946 152.981C107.899 153.122 107.8 153.24 107.669 153.311C107.539 153.382 107.387 153.402 107.242 153.365L102.026 151.957L106.506 153.173C106.564 153.187 106.618 153.212 106.665 153.247C106.712 153.283 106.752 153.327 106.782 153.378C106.812 153.428 106.831 153.484 106.839 153.543C106.847 153.602 106.842 153.661 106.826 153.717C106.816 153.777 106.792 153.834 106.759 153.884C106.725 153.935 106.681 153.978 106.631 154.011C106.58 154.044 106.522 154.066 106.463 154.076C106.403 154.086 106.341 154.084 106.282 154.069L94.3144 151.541L93.4824 151.477L95.4664 146.357Z" fill="#956363"/>
<path opacity="0.15" d="M107.627 152.277L102.859 150.389" stroke="black" stroke-width="1.18" stroke-miterlimit="10" stroke-linecap="round"/>
<path opacity="0.15" d="M102.026 151.926L106.538 153.142" stroke="black" stroke-width="1.18" stroke-miterlimit="10" stroke-linecap="round"/>
<path opacity="0.15" d="M106.859 153.685C106.848 153.745 106.825 153.802 106.792 153.852C106.758 153.903 106.714 153.946 106.663 153.979C106.612 154.012 106.555 154.034 106.495 154.044C106.435 154.054 106.374 154.052 106.315 154.037L94.3471 151.509L93.5151 151.445L93.9311 150.389L106.859 153.685Z" fill="black"/>
<path opacity="0.15" d="M78.8903 127.541L78.4423 128.661L75.6903 135.669L73.9623 140.053L73.5463 141.077L73.3223 141.653L73.1623 142.069L72.2343 141.877L71.8823 141.813C71.6151 141.765 71.3742 141.622 71.2036 141.41C71.033 141.199 70.9447 140.933 70.9543 140.661C70.9543 140.565 70.9863 140.469 70.9863 140.341L72.7783 134.709L73.2263 133.301L76.0423 124.341L76.4583 122.965L76.9063 121.557C76.9326 121.483 76.9822 121.419 77.0478 121.374C77.1134 121.33 77.1911 121.308 77.2702 121.312C77.3492 121.315 77.425 121.344 77.4862 121.394C77.5476 121.444 77.5911 121.513 77.6103 121.589C77.8023 122.453 78.0583 123.605 78.3143 124.789L78.3783 125.013C78.5383 125.909 78.7303 126.773 78.8903 127.541Z" fill="black"/>
<g opacity="0.3">
<path opacity="0.3" d="M78.3464 125.045L77.7704 124.917C74.7624 124.085 70.2184 121.973 69.4824 121.621L69.7064 120.917L69.9304 120.213C70.5704 120.533 75.1464 122.709 78.0264 123.509L78.3464 125.045Z" fill="white"/>
</g>
<g opacity="0.3">
<path opacity="0.3" d="M76.2028 134.293L75.6908 135.669C73.0348 134.933 68.0107 132.949 66.2188 132.245L66.6667 130.837C68.3307 131.477 73.5788 133.557 76.2028 134.293Z" fill="white"/>
</g>
<g opacity="0.3">
<path opacity="0.3" d="M73.9633 140.086L73.5473 141.11L73.3233 141.686C72.9713 141.75 72.6193 141.814 72.2353 141.91C68.8753 142.646 64.2353 143.99 62.5713 144.47C62.6193 144.165 62.6942 143.865 62.7953 143.574L63.0193 142.774C64.8753 142.23 68.1713 141.302 70.9553 140.662C72.0753 140.406 73.1313 140.214 73.9633 140.086Z" fill="white"/>
</g>
<g opacity="0.3">
<path opacity="0.3" d="M78.5701 143.125C77.5461 144.917 75.9141 147.989 74.8261 150.101L73.2261 149.973C74.2181 148.021 75.8821 144.853 77.0341 142.837L78.5701 143.125Z" fill="white"/>
</g>
<g opacity="0.3">
<path opacity="0.3" d="M88.4905 145.014C87.5625 146.838 86.4105 149.206 85.6425 150.87L84.0425 150.742C84.7785 149.174 85.9625 146.742 86.9865 144.726C87.0185 144.726 86.9865 144.726 88.4905 145.014Z" fill="white"/>
</g>
<g opacity="0.3">
<path opacity="0.3" d="M114.507 124.213L114.155 122.709L117.643 120.693L118.379 121.973L114.507 124.213Z" fill="white"/>
</g>
<g opacity="0.3">
<path opacity="0.3" d="M122.73 130.805L115.786 137.525L114.922 136.309L122.026 129.429L122.73 130.805Z" fill="white"/>
</g>
<g opacity="0.3">
<path opacity="0.3" d="M129.963 131.253V139.189L128.491 139.477V131.285L129.963 131.253Z" fill="white"/>
</g>
<g opacity="0.3">
<path opacity="0.3" d="M139.627 130.966L138.571 137.462L137.099 137.782L138.155 130.998L139.627 130.966Z" fill="white"/>
</g>
<g opacity="0.3">
<path opacity="0.3" d="M98.058 124.95C91.3483 124.928 84.6469 124.48 77.9941 123.606L77.7061 122.134C77.9301 122.166 100.106 125.206 113.994 122.006L114.314 123.446C109.45 124.566 103.626 124.95 98.058 124.95Z" fill="white"/>
</g>
<path d="M156.811 134.613C156.812 134.643 156.807 134.672 156.796 134.7C156.785 134.728 156.768 134.753 156.747 134.773C156.726 134.795 156.701 134.811 156.674 134.822C156.646 134.833 156.617 134.838 156.587 134.837L153.451 135.157C153.307 135.158 153.165 135.191 153.035 135.253V132.213C153.058 132.485 153.177 132.741 153.37 132.934C153.563 133.127 153.819 133.246 154.091 133.269L155.659 133.493C155.962 133.527 156.243 133.663 156.459 133.877C156.668 134.067 156.795 134.331 156.811 134.613Z" fill="#956363"/>
</svg>
