<svg width="420" height="320" viewBox="0 0 420 320" fill="none" xmlns="http://www.w3.org/2000/svg">
<path d="M393.563 296.346H39.4191L22.1071 131.898C21.7951 128.951 22.167 125.971 23.1935 123.19C24.2204 120.41 25.8745 117.903 28.0271 115.866L98.2991 49.21C101.429 46.2424 105.462 44.4065 109.755 43.994L317.627 24.09C321 23.763 324.398 24.3304 327.483 25.7348C330.568 27.139 333.227 29.331 335.195 32.09L390.363 109.466C392.696 112.759 393.947 116.695 393.947 120.73L393.563 296.346Z" fill="#F7F7F7"/>
<path d="M328.993 120.25L321.528 135.056C320.417 137.277 318.705 137.296 315.822 135.642L295.72 123.293L299.144 118.202L315.915 125.562L324.283 103.53" fill="#304FFE"/>
<path opacity="0.15" d="M296.19 121.763L317.486 134.781C319.406 136 319.957 135.741 321.096 135.769C320.056 137.309 317.963 137.126 315.435 135.405L296.065 123.513L296.19 121.763Z" fill="black"/>
<path opacity="0.15" d="M317.627 125.526L320.984 112.202L315.915 125.498L316.299 125.866C316.389 125.978 316.51 126.061 316.648 126.106C316.785 126.151 316.933 126.156 317.07 126.12C317.211 126.085 317.336 126.01 317.435 125.905C317.534 125.799 317.601 125.668 317.627 125.526Z" fill="black"/>
<path d="M300.347 296.506H284.667C283.758 296.506 282.888 296.144 282.248 295.501C281.605 294.861 281.243 293.99 281.243 293.082V121.626C281.243 120.718 281.605 119.847 282.248 119.205C282.888 118.564 283.758 118.203 284.667 118.202H300.347C302.824 118.204 305.198 119.19 306.952 120.942C308.702 122.693 309.688 125.069 309.691 127.546V287.194C309.682 289.667 308.693 292.035 306.942 293.779C305.192 295.523 302.821 296.506 300.347 296.506Z" fill="#21252B"/>
<path d="M292.699 296.506H217.787C215.124 296.503 212.57 295.443 210.687 293.559C208.803 291.674 207.743 289.12 207.739 286.458V128.218C207.743 125.554 208.803 123.001 210.687 121.118C212.57 119.234 215.124 118.174 217.787 118.17H292.699C295.361 118.174 297.915 119.234 299.8 121.118C301.685 123.001 302.744 125.554 302.747 128.218V286.426C302.75 287.748 302.494 289.059 301.992 290.282C301.486 291.504 300.747 292.615 299.816 293.552C298.881 294.487 297.771 295.229 296.552 295.738C295.329 296.243 294.021 296.506 292.699 296.506Z" fill="#61656D"/>
<path d="M292.571 122.266H273.179C272.539 122.262 271.918 122.485 271.426 122.894C270.934 123.304 270.603 123.875 270.491 124.506C270.375 125.134 270.042 125.702 269.551 126.111C269.061 126.52 268.442 126.744 267.803 126.746H242.747C242.107 126.75 241.486 126.526 240.994 126.117C240.502 125.707 240.171 125.136 240.059 124.506C239.943 123.877 239.61 123.31 239.119 122.901C238.629 122.491 238.01 122.267 237.371 122.266H217.979C216.333 122.267 214.755 122.922 213.591 124.086C212.427 125.25 211.773 126.828 211.771 128.474V286.138C211.773 287.783 212.427 289.36 213.591 290.525C214.755 291.69 216.333 292.342 217.979 292.346H292.635C294.28 292.342 295.861 291.69 297.022 290.525C298.187 289.36 298.843 287.783 298.843 286.138V128.506C298.833 126.848 298.168 125.262 296.993 124.092C295.819 122.923 294.229 122.266 292.571 122.266Z" fill="#304FFE"/>
<path opacity="0.5" d="M292.571 122.266H273.179C272.539 122.262 271.918 122.485 271.426 122.894C270.934 123.304 270.603 123.875 270.491 124.506C270.375 125.134 270.042 125.702 269.551 126.111C269.061 126.52 268.442 126.744 267.803 126.746H242.747C242.107 126.75 241.486 126.526 240.994 126.117C240.502 125.707 240.171 125.136 240.059 124.506C239.943 123.877 239.61 123.31 239.119 122.901C238.629 122.491 238.01 122.267 237.371 122.266H217.979C216.333 122.267 214.755 122.922 213.591 124.086C212.427 125.25 211.773 126.828 211.771 128.474V286.138C211.773 287.783 212.427 289.36 213.591 290.525C214.755 291.69 216.333 292.342 217.979 292.346H292.635C294.28 292.342 295.861 291.69 297.022 290.525C298.187 289.36 298.843 287.783 298.843 286.138V128.506C298.833 126.848 298.168 125.262 296.993 124.092C295.819 122.923 294.229 122.266 292.571 122.266Z" fill="white"/>
<path opacity="0.5" d="M265.243 123.705H245.243C245.056 123.705 244.878 123.631 244.745 123.499C244.614 123.367 244.539 123.188 244.539 123.001C244.539 122.815 244.614 122.636 244.745 122.504C244.878 122.372 245.056 122.297 245.243 122.297H265.243C265.43 122.299 265.607 122.374 265.739 122.505C265.871 122.637 265.946 122.815 265.947 123.001C265.949 123.094 265.932 123.187 265.897 123.273C265.863 123.359 265.811 123.438 265.745 123.503C265.679 123.569 265.601 123.621 265.515 123.655C265.429 123.69 265.336 123.707 265.243 123.705Z" fill="black"/>
<path d="M199.835 154.617L196.379 152.793L196.219 153.081C190.977 151.358 185.293 151.547 180.177 153.616C175.061 155.685 170.844 159.5 168.274 164.383C165.703 169.267 164.946 174.903 166.138 180.292C167.329 185.68 170.39 190.472 174.779 193.817L174.619 194.105L178.075 195.929C183.527 198.566 189.791 198.982 195.544 197.09C201.297 195.197 206.09 191.144 208.913 185.786C211.735 180.427 212.366 174.182 210.673 168.367C208.979 162.552 205.093 157.622 199.835 154.617Z" fill="#304FFE"/>
<path opacity="0.3" d="M199.835 154.617L196.379 152.793L196.219 153.081C190.977 151.358 185.293 151.547 180.177 153.616C175.061 155.685 170.844 159.5 168.274 164.383C165.703 169.267 164.946 174.903 166.138 180.292C167.329 185.68 170.39 190.472 174.779 193.817L174.619 194.105L178.075 195.929C183.527 198.566 189.791 198.982 195.544 197.09C201.297 195.197 206.09 191.144 208.913 185.786C211.735 180.427 212.366 174.182 210.673 168.367C208.979 162.552 205.093 157.622 199.835 154.617Z" fill="black"/>
<path d="M186.683 197.37C191.297 197.37 195.807 196.002 199.643 193.438C203.479 190.875 206.47 187.232 208.235 182.969C210.001 178.706 210.463 174.016 209.563 169.491C208.663 164.966 206.441 160.809 203.178 157.546C199.916 154.284 195.759 152.062 191.234 151.162C186.709 150.262 182.018 150.724 177.756 152.489C173.493 154.255 169.85 157.245 167.286 161.081C164.723 164.918 163.355 169.428 163.355 174.042C163.355 180.229 165.813 186.162 170.188 190.537C174.562 194.912 180.496 197.37 186.683 197.37Z" fill="#304FFE"/>
<path d="M193.115 174.106C193.097 174.05 193.068 173.999 193.029 173.955C192.991 173.911 192.944 173.875 192.891 173.85L190.939 172.826C191.139 172.162 191.183 171.461 191.067 170.778L193.755 172.186C193.802 172.215 193.856 172.232 193.911 172.238C193.967 172.243 194.022 172.236 194.075 172.218C194.13 172.2 194.182 172.171 194.226 172.132C194.27 172.094 194.306 172.047 194.331 171.994L194.939 170.81C194.967 170.762 194.985 170.709 194.991 170.654C194.996 170.598 194.989 170.542 194.971 170.49C194.953 170.434 194.924 170.383 194.885 170.339C194.847 170.295 194.8 170.259 194.747 170.234L185.179 165.21C185.131 165.181 185.078 165.164 185.022 165.158C184.967 165.152 184.911 165.159 184.859 165.178C184.803 165.196 184.752 165.225 184.708 165.264C184.664 165.302 184.628 165.349 184.603 165.402L183.803 166.938C183.774 166.985 183.756 167.039 183.75 167.094C183.745 167.15 183.752 167.206 183.771 167.258C183.805 167.362 183.873 167.452 183.963 167.514L185.627 168.378C187.259 169.242 188.059 170.202 188.027 171.29L183.291 168.794C183.243 168.765 183.19 168.748 183.134 168.742C183.079 168.736 183.023 168.743 182.971 168.762C182.915 168.78 182.864 168.809 182.82 168.848C182.776 168.886 182.74 168.933 182.715 168.986L182.107 170.17C182.078 170.217 182.061 170.271 182.055 170.326C182.05 170.382 182.056 170.438 182.075 170.49C182.093 170.545 182.122 170.597 182.16 170.641C182.199 170.685 182.246 170.721 182.299 170.746L187.227 173.338C186.975 173.602 186.673 173.812 186.337 173.955C186.001 174.098 185.64 174.171 185.275 174.17C184.316 174.129 183.383 173.855 182.555 173.37L181.275 172.698C181.227 172.669 181.174 172.651 181.119 172.645C181.063 172.64 181.007 172.647 180.955 172.666C180.851 172.7 180.761 172.768 180.699 172.858L179.931 174.33C179.902 174.377 179.884 174.431 179.878 174.486C179.873 174.542 179.88 174.598 179.899 174.65C180.539 176.986 180.987 178.65 181.851 182.714C181.863 182.776 181.89 182.834 181.929 182.884C181.968 182.935 182.018 182.975 182.075 183.002L184.315 184.186C184.384 184.228 184.464 184.248 184.544 184.242C184.625 184.236 184.701 184.206 184.763 184.154C184.834 184.114 184.889 184.051 184.918 183.975C184.947 183.899 184.949 183.815 184.923 183.738C184.123 179.802 183.771 178.362 183.195 176.314C184.404 176.836 185.742 176.981 187.035 176.73C188.211 176.476 189.25 175.791 189.947 174.81L191.867 175.834C191.914 175.863 191.968 175.88 192.023 175.886C192.079 175.891 192.134 175.884 192.187 175.866C192.242 175.848 192.294 175.819 192.338 175.78C192.382 175.742 192.418 175.695 192.443 175.642L193.051 174.458C193.115 174.353 193.138 174.227 193.115 174.106Z" fill="#304FFE"/>
<path opacity="0.3" d="M186.683 193.242C190.481 193.242 194.193 192.116 197.35 190.006C200.507 187.896 202.969 184.898 204.422 181.389C205.875 177.881 206.255 174.021 205.514 170.296C204.773 166.572 202.945 163.151 200.259 160.465C197.574 157.78 194.153 155.952 190.429 155.211C186.705 154.47 182.844 154.85 179.336 156.304C175.827 157.757 172.829 160.217 170.719 163.375C168.609 166.532 167.483 170.245 167.483 174.042C167.483 179.134 169.506 184.018 173.107 187.618C176.707 191.219 181.591 193.242 186.683 193.242Z" fill="black"/>
<path opacity="0.2" d="M171.579 166.105C173.866 161.768 177.725 158.469 182.366 156.887C187.008 155.304 192.078 155.557 196.539 157.593C196.241 157.404 195.931 157.233 195.611 157.081C191.131 154.92 185.986 154.581 181.261 156.137C176.536 157.694 172.599 161.023 170.281 165.424C167.962 169.825 167.442 174.955 168.83 179.732C170.218 184.509 173.406 188.56 177.723 191.033L178.683 191.513C174.48 188.985 171.404 184.945 170.083 180.221C168.762 175.497 169.297 170.448 171.579 166.105Z" fill="black"/>
<path d="M194.683 174.938C194.665 174.882 194.636 174.83 194.597 174.786C194.559 174.742 194.511 174.707 194.459 174.682L192.507 173.658C192.707 172.994 192.751 172.293 192.635 171.61L195.323 173.018C195.37 173.046 195.424 173.064 195.479 173.069C195.534 173.075 195.59 173.068 195.643 173.05C195.698 173.032 195.75 173.003 195.794 172.964C195.838 172.926 195.874 172.878 195.899 172.826L196.507 171.642C196.535 171.594 196.553 171.541 196.559 171.485C196.564 171.43 196.557 171.374 196.539 171.322C196.521 171.266 196.492 171.214 196.453 171.17C196.415 171.126 196.367 171.091 196.315 171.066L186.779 166.074C186.731 166.045 186.678 166.027 186.622 166.022C186.567 166.016 186.511 166.023 186.459 166.042C186.403 166.06 186.351 166.089 186.308 166.127C186.263 166.166 186.228 166.213 186.203 166.266L185.403 167.802C185.374 167.849 185.356 167.902 185.35 167.958C185.344 168.013 185.351 168.069 185.371 168.122C185.405 168.226 185.472 168.316 185.563 168.378L187.227 169.242C188.859 170.106 189.659 171.066 189.627 172.154L184.891 169.658C184.843 169.629 184.79 169.611 184.734 169.606C184.679 169.6 184.623 169.607 184.571 169.626C184.515 169.644 184.463 169.673 184.42 169.711C184.375 169.75 184.34 169.797 184.315 169.85L183.707 171.034C183.678 171.081 183.661 171.135 183.655 171.19C183.649 171.245 183.656 171.301 183.675 171.354C183.693 171.409 183.722 171.461 183.76 171.505C183.799 171.549 183.846 171.584 183.899 171.61L188.827 174.202C188.575 174.466 188.272 174.676 187.937 174.819C187.601 174.962 187.239 175.035 186.875 175.034C185.916 174.993 184.982 174.718 184.155 174.234L182.875 173.562C182.827 173.532 182.774 173.514 182.719 173.509C182.663 173.503 182.607 173.51 182.555 173.53C182.451 173.564 182.361 173.631 182.299 173.722L181.531 175.194C181.502 175.241 181.484 175.294 181.478 175.35C181.472 175.405 181.479 175.461 181.499 175.514C182.139 177.85 182.587 179.514 183.451 183.578C183.463 183.64 183.49 183.698 183.529 183.748C183.567 183.798 183.617 183.838 183.675 183.866L185.915 185.05C185.983 185.092 186.063 185.112 186.144 185.106C186.224 185.1 186.301 185.069 186.363 185.018C186.434 184.978 186.489 184.914 186.518 184.838C186.547 184.763 186.549 184.679 186.523 184.602C185.723 180.666 185.371 179.226 184.795 177.178C186.004 177.699 187.342 177.844 188.635 177.594C189.811 177.339 190.85 176.654 191.547 175.674L193.467 176.698C193.514 176.726 193.568 176.744 193.623 176.749C193.678 176.755 193.734 176.748 193.787 176.73C193.842 176.712 193.894 176.683 193.938 176.644C193.982 176.606 194.018 176.558 194.043 176.506L194.651 175.322C194.708 175.202 194.719 175.065 194.683 174.938Z" fill="#304FFE"/>
<path opacity="0.3" d="M194.683 174.938C194.665 174.882 194.636 174.83 194.597 174.786C194.559 174.742 194.511 174.707 194.459 174.682L192.507 173.658C192.707 172.994 192.751 172.293 192.635 171.61L195.323 173.018C195.37 173.046 195.424 173.064 195.479 173.069C195.534 173.075 195.59 173.068 195.643 173.05C195.698 173.032 195.75 173.003 195.794 172.964C195.838 172.926 195.874 172.878 195.899 172.826L196.507 171.642C196.535 171.594 196.553 171.541 196.559 171.485C196.564 171.43 196.557 171.374 196.539 171.322C196.521 171.266 196.492 171.214 196.453 171.17C196.415 171.126 196.367 171.091 196.315 171.066L186.779 166.074C186.731 166.045 186.678 166.027 186.622 166.022C186.567 166.016 186.511 166.023 186.459 166.042C186.403 166.06 186.351 166.089 186.308 166.127C186.263 166.166 186.228 166.213 186.203 166.266L185.403 167.802C185.374 167.849 185.356 167.902 185.35 167.958C185.344 168.013 185.351 168.069 185.371 168.122C185.405 168.226 185.472 168.316 185.563 168.378L187.227 169.242C188.859 170.106 189.659 171.066 189.627 172.154L184.891 169.658C184.843 169.629 184.79 169.611 184.734 169.606C184.679 169.6 184.623 169.607 184.571 169.626C184.515 169.644 184.463 169.673 184.42 169.711C184.375 169.75 184.34 169.797 184.315 169.85L183.707 171.034C183.678 171.081 183.661 171.135 183.655 171.19C183.649 171.245 183.656 171.301 183.675 171.354C183.693 171.409 183.722 171.461 183.76 171.505C183.799 171.549 183.846 171.584 183.899 171.61L188.827 174.202C188.575 174.466 188.272 174.676 187.937 174.819C187.601 174.962 187.239 175.035 186.875 175.034C185.916 174.993 184.982 174.718 184.155 174.234L182.875 173.562C182.827 173.532 182.774 173.514 182.719 173.509C182.663 173.503 182.607 173.51 182.555 173.53C182.451 173.564 182.361 173.631 182.299 173.722L181.531 175.194C181.502 175.241 181.484 175.294 181.478 175.35C181.472 175.405 181.479 175.461 181.499 175.514C182.139 177.85 182.587 179.514 183.451 183.578C183.463 183.64 183.49 183.698 183.529 183.748C183.567 183.798 183.617 183.838 183.675 183.866L185.915 185.05C185.983 185.092 186.063 185.112 186.144 185.106C186.224 185.1 186.301 185.069 186.363 185.018C186.434 184.978 186.489 184.914 186.518 184.838C186.547 184.763 186.549 184.679 186.523 184.602C185.723 180.666 185.371 179.226 184.795 177.178C186.004 177.699 187.342 177.844 188.635 177.594C189.811 177.339 190.85 176.654 191.547 175.674L193.467 176.698C193.514 176.726 193.568 176.744 193.623 176.749C193.678 176.755 193.734 176.748 193.787 176.73C193.842 176.712 193.894 176.683 193.938 176.644C193.982 176.606 194.018 176.558 194.043 176.506L194.651 175.322C194.708 175.202 194.719 175.065 194.683 174.938Z" fill="black"/>
<path d="M193.115 174.106C193.097 174.05 193.068 173.999 193.029 173.955C192.991 173.911 192.944 173.875 192.891 173.85L190.939 172.826C191.139 172.162 191.183 171.461 191.067 170.778L193.755 172.186C193.802 172.215 193.856 172.232 193.911 172.238C193.967 172.243 194.022 172.236 194.075 172.218C194.13 172.2 194.182 172.171 194.226 172.132C194.27 172.094 194.306 172.047 194.331 171.994L194.939 170.81C194.967 170.762 194.985 170.709 194.991 170.654C194.996 170.598 194.989 170.542 194.971 170.49C194.953 170.434 194.924 170.383 194.885 170.339C194.847 170.295 194.8 170.259 194.747 170.234L185.179 165.21C185.131 165.181 185.078 165.164 185.022 165.158C184.967 165.152 184.911 165.159 184.859 165.178C184.803 165.196 184.752 165.225 184.708 165.264C184.664 165.302 184.628 165.349 184.603 165.402L183.803 166.938C183.774 166.985 183.756 167.039 183.75 167.094C183.745 167.15 183.752 167.206 183.771 167.258C183.805 167.362 183.873 167.452 183.963 167.514L185.627 168.378C187.259 169.242 188.059 170.202 188.027 171.29L183.291 168.794C183.243 168.765 183.19 168.748 183.134 168.742C183.079 168.736 183.023 168.743 182.971 168.762C182.915 168.78 182.864 168.809 182.82 168.848C182.776 168.886 182.74 168.933 182.715 168.986L182.107 170.17C182.078 170.217 182.061 170.271 182.055 170.326C182.05 170.382 182.056 170.438 182.075 170.49C182.093 170.545 182.122 170.597 182.16 170.641C182.199 170.685 182.246 170.721 182.299 170.746L187.227 173.338C186.975 173.602 186.673 173.812 186.337 173.955C186.001 174.098 185.64 174.171 185.275 174.17C184.316 174.129 183.383 173.855 182.555 173.37L181.275 172.698C181.227 172.669 181.174 172.651 181.119 172.645C181.063 172.64 181.007 172.647 180.955 172.666C180.851 172.7 180.761 172.768 180.699 172.858L179.931 174.33C179.902 174.377 179.884 174.431 179.878 174.486C179.873 174.542 179.88 174.598 179.899 174.65C180.539 176.986 180.987 178.65 181.851 182.714C181.863 182.776 181.89 182.834 181.929 182.884C181.968 182.935 182.018 182.975 182.075 183.002L184.315 184.186C184.384 184.228 184.464 184.248 184.544 184.242C184.625 184.236 184.701 184.206 184.763 184.154C184.834 184.114 184.889 184.051 184.918 183.975C184.947 183.899 184.949 183.815 184.923 183.738C184.123 179.802 183.771 178.362 183.195 176.314C184.404 176.836 185.742 176.981 187.035 176.73C188.211 176.476 189.25 175.791 189.947 174.81L191.867 175.834C191.914 175.863 191.968 175.88 192.023 175.886C192.079 175.891 192.134 175.884 192.187 175.866C192.242 175.848 192.294 175.819 192.338 175.78C192.382 175.742 192.418 175.695 192.443 175.642L193.051 174.458C193.115 174.353 193.138 174.227 193.115 174.106Z" fill="#304FFE"/>
<path d="M285.211 148.922H222.267C222.109 148.914 221.958 148.848 221.846 148.735C221.734 148.623 221.667 148.472 221.659 148.314V144.41C221.667 144.251 221.734 144.101 221.846 143.989C221.958 143.876 222.109 143.81 222.267 143.802H285.211C285.371 143.81 285.521 143.876 285.633 143.989C285.745 144.101 285.813 144.251 285.819 144.41V148.314C285.819 148.475 285.755 148.63 285.64 148.744C285.528 148.858 285.371 148.922 285.211 148.922Z" fill="white"/>
<path d="M277.755 159.834H229.723C229.564 159.826 229.414 159.76 229.302 159.647C229.189 159.535 229.123 159.385 229.115 159.226V155.322C229.123 155.163 229.189 155.013 229.302 154.9C229.414 154.788 229.564 154.722 229.723 154.714H277.755C277.915 154.722 278.065 154.788 278.177 154.9C278.289 155.013 278.357 155.163 278.363 155.322V159.226C278.363 159.387 278.299 159.542 278.184 159.656C278.072 159.77 277.915 159.834 277.755 159.834Z" fill="#FDD835"/>
<path d="M270.011 265.242H237.467C236.975 265.242 236.503 265.046 236.155 264.698C235.807 264.35 235.611 263.878 235.611 263.386V258.074C235.611 257.581 235.807 257.109 236.155 256.761C236.503 256.413 236.975 256.218 237.467 256.218H270.011C270.504 256.218 270.976 256.413 271.324 256.761C271.672 257.109 271.867 257.581 271.867 258.074V263.386C271.87 263.63 271.824 263.873 271.731 264.099C271.639 264.325 271.502 264.531 271.329 264.704C271.156 264.877 270.951 265.013 270.724 265.106C270.498 265.198 270.256 265.244 270.011 265.242Z" fill="#304FFE"/>
<path d="M258.011 182.33H255.067V182.97C253.855 183.536 252.828 184.435 252.109 185.563C251.389 186.69 251.005 188 251.003 189.338V238.394C251.005 239.732 251.389 241.041 252.109 242.169C252.828 243.297 253.855 244.196 255.067 244.762V245.402H258.011C258.932 245.402 259.843 245.222 260.693 244.869C261.544 244.517 262.317 244.001 262.968 243.35C263.618 242.7 264.135 241.927 264.487 241.076C264.839 240.226 265.019 239.314 265.019 238.394V189.338C265.019 188.417 264.839 187.506 264.487 186.656C264.135 185.805 263.618 185.032 262.968 184.382C262.317 183.731 261.544 183.215 260.693 182.863C259.843 182.511 258.932 182.329 258.011 182.33Z" fill="#304FFE"/>
<path opacity="0.3" d="M258.011 182.33H255.067V182.97C253.855 183.536 252.828 184.435 252.109 185.563C251.389 186.69 251.005 188 251.003 189.338V238.394C251.005 239.732 251.389 241.041 252.109 242.169C252.828 243.297 253.855 244.196 255.067 244.762V245.402H258.011C258.932 245.402 259.843 245.222 260.693 244.869C261.544 244.517 262.317 244.001 262.968 243.35C263.618 242.7 264.135 241.927 264.487 241.076C264.839 240.226 265.019 239.314 265.019 238.394V189.338C265.019 188.417 264.839 187.506 264.487 186.656C264.135 185.805 263.618 185.032 262.968 184.382C262.317 183.731 261.544 183.215 260.693 182.863C259.843 182.511 258.932 182.329 258.011 182.33Z" fill="white"/>
<path d="M255.035 245.402C254.114 245.402 253.203 245.222 252.352 244.869C251.502 244.517 250.729 244.001 250.078 243.35C249.428 242.7 248.911 241.927 248.559 241.076C248.207 240.226 248.026 239.314 248.027 238.394V189.338C248.027 187.48 248.765 185.697 250.079 184.383C251.394 183.068 253.176 182.33 255.035 182.33C256.893 182.33 258.676 183.068 259.99 184.383C261.304 185.697 262.043 187.48 262.043 189.338V238.394C262.043 239.314 261.862 240.226 261.51 241.076C261.158 241.927 260.642 242.7 259.991 243.35C259.34 244.001 258.567 244.517 257.717 244.869C256.867 245.222 255.955 245.402 255.035 245.402Z" fill="white"/>
<path d="M255.035 241.945C254.534 241.947 254.038 241.85 253.576 241.659C253.113 241.468 252.692 241.188 252.339 240.834C251.985 240.48 251.704 240.06 251.513 239.597C251.323 239.134 251.225 238.638 251.227 238.137V189.625C251.227 188.615 251.628 187.647 252.342 186.933C253.056 186.219 254.025 185.817 255.035 185.817C256.045 185.817 257.013 186.219 257.728 186.933C258.442 187.647 258.843 188.615 258.843 189.625V238.137C258.845 238.638 258.747 239.134 258.556 239.597C258.366 240.06 258.085 240.48 257.731 240.834C257.378 241.188 256.957 241.468 256.494 241.659C256.031 241.85 255.535 241.947 255.035 241.945Z" fill="#3F4249"/>
<path d="M258.875 190.554C256.908 190.052 254.888 189.794 252.859 189.786H248.859V190.106C243.247 191.053 238.152 193.957 234.478 198.304C230.803 202.651 228.787 208.158 228.787 213.85C228.787 219.541 230.803 225.048 234.478 229.395C238.152 233.742 243.247 236.646 248.859 237.594V237.914H252.859C254.889 237.921 256.912 237.662 258.875 237.146V190.554Z" fill="#304FFE"/>
<path opacity="0.3" d="M258.875 190.554C256.908 190.052 254.888 189.794 252.859 189.786H248.859V190.106C243.247 191.053 238.152 193.957 234.478 198.304C230.803 202.651 228.787 208.158 228.787 213.85C228.787 219.541 230.803 225.048 234.478 229.395C238.152 233.742 243.247 236.646 248.859 237.594V237.914H252.859C254.889 237.921 256.912 237.662 258.875 237.146V190.554Z" fill="black"/>
<path d="M258.875 191.418C256.101 190.334 253.149 189.78 250.171 189.786C246.63 189.784 243.133 190.562 239.927 192.065C236.721 193.568 233.887 195.76 231.624 198.483C229.361 201.206 227.727 204.395 226.836 207.822C225.946 211.248 225.822 214.829 226.472 218.31C227.123 221.79 228.532 225.084 230.6 227.958C232.669 230.831 235.345 233.214 238.439 234.936C241.532 236.658 244.967 237.677 248.499 237.92C252.031 238.164 255.574 237.626 258.875 236.346V191.418Z" fill="#304FFE"/>
<path opacity="0.3" d="M258.875 196.09C255.855 194.612 252.509 193.927 249.151 194.1C245.794 194.272 242.535 195.297 239.683 197.077C236.831 198.856 234.478 201.333 232.847 204.273C231.216 207.213 230.361 210.52 230.361 213.882C230.361 217.244 231.216 220.55 232.847 223.49C234.478 226.43 236.831 228.907 239.683 230.687C242.535 232.466 245.794 233.491 249.151 233.663C252.509 233.836 255.855 233.151 258.875 231.674V196.09Z" fill="black"/>
<path d="M256.059 210.842C256.018 210.799 255.968 210.765 255.913 210.743C255.858 210.72 255.798 210.711 255.739 210.714H253.435C253.292 210.018 252.997 209.362 252.571 208.794H255.707C255.766 208.795 255.825 208.784 255.88 208.762C255.935 208.741 255.984 208.708 256.026 208.666C256.068 208.624 256.101 208.574 256.123 208.519C256.145 208.464 256.156 208.405 256.155 208.346V206.97C256.156 206.911 256.145 206.852 256.123 206.797C256.101 206.742 256.068 206.692 256.026 206.65C255.984 206.608 255.935 206.576 255.88 206.553C255.825 206.531 255.766 206.521 255.707 206.522H244.539C244.479 206.521 244.421 206.531 244.366 206.553C244.311 206.576 244.261 206.608 244.219 206.65C244.177 206.692 244.144 206.742 244.122 206.797C244.1 206.852 244.089 206.911 244.091 206.97V208.762C244.086 208.817 244.095 208.872 244.117 208.923C244.139 208.973 244.174 209.017 244.219 209.05C244.255 209.09 244.3 209.122 244.349 209.144C244.399 209.166 244.453 209.178 244.507 209.178H246.459C248.347 209.178 249.531 209.69 250.043 210.682H244.507C244.447 210.681 244.389 210.691 244.334 210.713C244.279 210.736 244.229 210.768 244.187 210.81C244.145 210.852 244.112 210.902 244.09 210.957C244.068 211.012 244.057 211.071 244.059 211.13V212.506C244.057 212.565 244.068 212.624 244.09 212.679C244.112 212.734 244.145 212.784 244.187 212.826C244.229 212.868 244.279 212.901 244.334 212.922C244.389 212.944 244.447 212.955 244.507 212.954H250.235C250.142 213.316 249.971 213.652 249.733 213.94C249.495 214.227 249.197 214.459 248.859 214.618C247.971 215.04 246.993 215.238 246.011 215.194H244.507C244.452 215.189 244.396 215.198 244.346 215.22C244.296 215.242 244.252 215.278 244.219 215.322C244.179 215.359 244.146 215.403 244.124 215.453C244.102 215.502 244.091 215.556 244.091 215.61V217.306C244.086 217.361 244.095 217.416 244.117 217.467C244.139 217.517 244.174 217.561 244.219 217.594C245.947 219.418 247.131 220.73 249.883 223.994C249.922 224.041 249.971 224.08 250.026 224.108C250.081 224.135 250.141 224.151 250.203 224.154H252.827C252.91 224.158 252.992 224.136 253.061 224.089C253.13 224.043 253.183 223.976 253.211 223.898C253.256 223.828 253.274 223.744 253.262 223.662C253.25 223.58 253.209 223.504 253.147 223.45C250.523 220.25 249.499 219.098 248.027 217.498C249.38 217.375 250.669 216.863 251.739 216.026C252.69 215.236 253.307 214.116 253.467 212.89H255.707C255.766 212.891 255.825 212.88 255.88 212.858C255.935 212.837 255.984 212.804 256.026 212.762C256.068 212.72 256.101 212.67 256.123 212.615C256.145 212.56 256.156 212.501 256.155 212.442V211.066C256.168 211.023 256.165 210.977 256.148 210.936C256.13 210.896 256.099 210.862 256.059 210.842Z" fill="#304FFE"/>
<path opacity="0.2" d="M232.571 213.85C232.574 208.791 234.512 203.925 237.986 200.249C241.46 196.572 246.209 194.363 251.259 194.074C250.907 194.042 250.523 194.042 250.171 194.042C247.57 194.042 244.994 194.554 242.591 195.55C240.188 196.545 238.004 198.004 236.165 199.843C234.325 201.683 232.866 203.866 231.871 206.27C230.875 208.673 230.363 211.249 230.363 213.85C230.363 216.451 230.875 219.027 231.871 221.43C232.866 223.833 234.325 226.017 236.165 227.856C238.004 229.696 240.188 231.155 242.591 232.15C244.994 233.145 247.57 233.658 250.171 233.658C250.523 233.658 250.907 233.658 251.259 233.626C246.205 233.347 241.45 231.142 237.974 227.463C234.497 223.784 232.563 218.911 232.571 213.85Z" fill="black"/>
<path d="M257.915 210.842C257.874 210.799 257.824 210.765 257.769 210.743C257.714 210.72 257.654 210.711 257.595 210.714H255.291C255.149 210.018 254.853 209.362 254.427 208.794H257.563C257.622 208.795 257.681 208.784 257.736 208.762C257.791 208.741 257.841 208.708 257.883 208.666C257.925 208.624 257.957 208.574 257.98 208.519C258.002 208.464 258.012 208.405 258.011 208.346V206.97C258.012 206.911 258.002 206.852 257.98 206.797C257.957 206.742 257.925 206.692 257.883 206.65C257.841 206.608 257.791 206.576 257.736 206.553C257.681 206.531 257.622 206.521 257.563 206.522H246.395C246.336 206.521 246.277 206.531 246.222 206.553C246.167 206.576 246.117 206.608 246.075 206.65C246.033 206.692 246 206.742 245.978 206.797C245.956 206.852 245.946 206.911 245.947 206.97V208.762C245.941 208.817 245.95 208.872 245.973 208.923C245.996 208.973 246.03 209.017 246.075 209.05C246.111 209.09 246.156 209.122 246.205 209.144C246.255 209.166 246.309 209.178 246.363 209.178H248.315C250.203 209.178 251.387 209.69 251.899 210.682H246.363C246.304 210.681 246.245 210.691 246.19 210.713C246.135 210.736 246.085 210.768 246.043 210.81C246.001 210.852 245.968 210.902 245.946 210.957C245.924 211.012 245.914 211.071 245.915 211.13V212.506C245.914 212.565 245.924 212.624 245.946 212.679C245.968 212.734 246.001 212.784 246.043 212.826C246.085 212.868 246.135 212.901 246.19 212.922C246.245 212.944 246.304 212.955 246.363 212.954H252.091C251.998 213.316 251.827 213.652 251.589 213.94C251.351 214.227 251.052 214.459 250.715 214.618C249.827 215.04 248.849 215.238 247.867 215.194H246.363C246.308 215.189 246.253 215.198 246.202 215.22C246.152 215.242 246.108 215.278 246.075 215.322C246.035 215.359 246.003 215.403 245.981 215.453C245.958 215.502 245.947 215.556 245.947 215.61V217.306C245.941 217.361 245.95 217.416 245.973 217.467C245.996 217.517 246.03 217.561 246.075 217.594C247.803 219.418 248.987 220.73 251.739 223.994C251.778 224.041 251.827 224.08 251.882 224.108C251.937 224.135 251.997 224.151 252.059 224.154H254.683C254.766 224.158 254.848 224.136 254.917 224.089C254.986 224.043 255.039 223.976 255.067 223.898C255.112 223.828 255.13 223.744 255.118 223.662C255.107 223.58 255.066 223.504 255.003 223.45C252.379 220.25 251.355 219.098 249.883 217.498C251.236 217.375 252.525 216.863 253.595 216.026C254.546 215.236 255.164 214.116 255.323 212.89H257.563C257.622 212.891 257.681 212.88 257.736 212.858C257.791 212.837 257.841 212.804 257.883 212.762C257.925 212.72 257.957 212.67 257.98 212.615C258.002 212.56 258.012 212.501 258.011 212.442V211.066C258.024 211.023 258.021 210.977 258.004 210.936C257.986 210.896 257.955 210.862 257.915 210.842Z" fill="#304FFE"/>
<path opacity="0.3" d="M257.915 210.842C257.874 210.799 257.824 210.765 257.769 210.743C257.714 210.72 257.654 210.711 257.595 210.714H255.291C255.149 210.018 254.853 209.362 254.427 208.794H257.563C257.622 208.795 257.681 208.784 257.736 208.762C257.791 208.741 257.841 208.708 257.883 208.666C257.925 208.624 257.957 208.574 257.98 208.519C258.002 208.464 258.012 208.405 258.011 208.346V206.97C258.012 206.911 258.002 206.852 257.98 206.797C257.957 206.742 257.925 206.692 257.883 206.65C257.841 206.608 257.791 206.576 257.736 206.553C257.681 206.531 257.622 206.521 257.563 206.522H246.395C246.336 206.521 246.277 206.531 246.222 206.553C246.167 206.576 246.117 206.608 246.075 206.65C246.033 206.692 246 206.742 245.978 206.797C245.956 206.852 245.946 206.911 245.947 206.97V208.762C245.941 208.817 245.95 208.872 245.973 208.923C245.996 208.973 246.03 209.017 246.075 209.05C246.111 209.09 246.156 209.122 246.205 209.144C246.255 209.166 246.309 209.178 246.363 209.178H248.315C250.203 209.178 251.387 209.69 251.899 210.682H246.363C246.304 210.681 246.245 210.691 246.19 210.713C246.135 210.736 246.085 210.768 246.043 210.81C246.001 210.852 245.968 210.902 245.946 210.957C245.924 211.012 245.914 211.071 245.915 211.13V212.506C245.914 212.565 245.924 212.624 245.946 212.679C245.968 212.734 246.001 212.784 246.043 212.826C246.085 212.868 246.135 212.901 246.19 212.922C246.245 212.944 246.304 212.955 246.363 212.954H252.091C251.998 213.316 251.827 213.652 251.589 213.94C251.351 214.227 251.052 214.459 250.715 214.618C249.827 215.04 248.849 215.238 247.867 215.194H246.363C246.308 215.189 246.253 215.198 246.202 215.22C246.152 215.242 246.108 215.278 246.075 215.322C246.035 215.359 246.003 215.403 245.981 215.453C245.958 215.502 245.947 215.556 245.947 215.61V217.306C245.941 217.361 245.95 217.416 245.973 217.467C245.996 217.517 246.03 217.561 246.075 217.594C247.803 219.418 248.987 220.73 251.739 223.994C251.778 224.041 251.827 224.08 251.882 224.108C251.937 224.135 251.997 224.151 252.059 224.154H254.683C254.766 224.158 254.848 224.136 254.917 224.089C254.986 224.043 255.039 223.976 255.067 223.898C255.112 223.828 255.13 223.744 255.118 223.662C255.107 223.58 255.066 223.504 255.003 223.45C252.379 220.25 251.355 219.098 249.883 217.498C251.236 217.375 252.525 216.863 253.595 216.026C254.546 215.236 255.164 214.116 255.323 212.89H257.563C257.622 212.891 257.681 212.88 257.736 212.858C257.791 212.837 257.841 212.804 257.883 212.762C257.925 212.72 257.957 212.67 257.98 212.615C258.002 212.56 258.012 212.501 258.011 212.442V211.066C258.024 211.023 258.021 210.977 258.004 210.936C257.986 210.896 257.955 210.862 257.915 210.842Z" fill="black"/>
<path d="M256.059 210.842C256.018 210.799 255.968 210.765 255.913 210.743C255.858 210.72 255.798 210.711 255.739 210.714H253.435C253.292 210.018 252.997 209.362 252.571 208.794H255.707C255.766 208.795 255.825 208.784 255.88 208.762C255.935 208.741 255.984 208.708 256.026 208.666C256.068 208.624 256.101 208.574 256.123 208.519C256.145 208.464 256.156 208.405 256.155 208.346V206.97C256.156 206.911 256.145 206.852 256.123 206.797C256.101 206.742 256.068 206.692 256.026 206.65C255.984 206.608 255.935 206.576 255.88 206.553C255.825 206.531 255.766 206.521 255.707 206.522H244.539C244.479 206.521 244.421 206.531 244.366 206.553C244.311 206.576 244.261 206.608 244.219 206.65C244.177 206.692 244.144 206.742 244.122 206.797C244.1 206.852 244.089 206.911 244.091 206.97V208.762C244.086 208.817 244.095 208.872 244.117 208.923C244.139 208.973 244.174 209.017 244.219 209.05C244.255 209.09 244.3 209.122 244.349 209.144C244.399 209.166 244.453 209.178 244.507 209.178H246.459C248.347 209.178 249.531 209.69 250.043 210.682H244.507C244.447 210.681 244.389 210.691 244.334 210.713C244.279 210.736 244.229 210.768 244.187 210.81C244.145 210.852 244.112 210.902 244.09 210.957C244.068 211.012 244.057 211.071 244.059 211.13V212.506C244.057 212.565 244.068 212.624 244.09 212.679C244.112 212.734 244.145 212.784 244.187 212.826C244.229 212.868 244.279 212.901 244.334 212.922C244.389 212.944 244.447 212.955 244.507 212.954H250.235C250.142 213.316 249.971 213.652 249.733 213.94C249.495 214.227 249.197 214.459 248.859 214.618C247.971 215.04 246.993 215.238 246.011 215.194H244.507C244.452 215.189 244.396 215.198 244.346 215.22C244.296 215.242 244.252 215.278 244.219 215.322C244.179 215.359 244.146 215.403 244.124 215.453C244.102 215.502 244.091 215.556 244.091 215.61V217.306C244.086 217.361 244.095 217.416 244.117 217.467C244.139 217.517 244.174 217.561 244.219 217.594C245.947 219.418 247.131 220.73 249.883 223.994C249.922 224.041 249.971 224.08 250.026 224.108C250.081 224.135 250.141 224.151 250.203 224.154H252.827C252.91 224.158 252.992 224.136 253.061 224.089C253.13 224.043 253.183 223.976 253.211 223.898C253.256 223.828 253.274 223.744 253.262 223.662C253.25 223.58 253.209 223.504 253.147 223.45C250.523 220.25 249.499 219.098 248.027 217.498C249.38 217.375 250.669 216.863 251.739 216.026C252.69 215.236 253.307 214.116 253.467 212.89H255.707C255.766 212.891 255.825 212.88 255.88 212.858C255.935 212.837 255.984 212.804 256.026 212.762C256.068 212.72 256.101 212.67 256.123 212.615C256.145 212.56 256.156 212.501 256.155 212.442V211.066C256.168 211.023 256.165 210.977 256.148 210.936C256.13 210.896 256.099 210.862 256.059 210.842Z" fill="#304FFE"/>
<path opacity="0.3" d="M258.875 189.146H255.74V238.554H258.875V189.146Z" fill="#263238"/>
<path d="M163.099 296.506H150.171C149.429 296.506 148.712 296.237 148.153 295.747C147.594 295.261 147.231 294.586 147.131 293.85L143.579 268.537H162.715L166.139 292.986C166.207 293.424 166.178 293.869 166.056 294.294C165.934 294.72 165.72 295.114 165.431 295.446C165.143 295.782 164.784 296.048 164.382 296.234C163.979 296.416 163.542 296.509 163.099 296.506Z" fill="#3F4249"/>
<path d="M83.579 296.506H96.507C97.2494 296.506 97.9665 296.237 98.5252 295.747C99.0843 295.261 99.4472 294.586 99.547 293.85L103.099 268.537H83.963L80.539 292.986C80.4782 293.421 80.5109 293.866 80.6353 294.288C80.7598 294.71 80.9732 295.101 81.2609 295.434C81.5489 295.766 81.9044 296.035 82.3044 296.221C82.7041 296.406 83.1387 296.502 83.579 296.506Z" fill="#3F4249"/>
<path opacity="0.2" d="M83.579 296.506H96.507C97.2494 296.506 97.9665 296.237 98.5252 295.747C99.0843 295.261 99.4472 294.586 99.547 293.85L103.099 268.537H83.963L80.539 292.986C80.4782 293.421 80.5109 293.866 80.6353 294.288C80.7598 294.71 80.9732 295.101 81.2609 295.434C81.5489 295.766 81.9044 296.035 82.3044 296.221C82.7041 296.406 83.1387 296.502 83.579 296.506Z" fill="black"/>
<path d="M88.2511 293.85L91.8031 268.537H83.9631L80.5391 292.986C80.479 293.421 80.5122 293.862 80.6374 294.282C80.7625 294.704 80.9766 295.091 81.2646 295.421C81.5529 295.754 81.9084 296.016 82.3078 296.198C82.7071 296.381 83.1407 296.474 83.5791 296.474H85.2111C85.9516 296.486 86.6706 296.224 87.231 295.741C87.7916 295.258 88.1548 294.582 88.2511 293.85Z" fill="#3F4249"/>
<path opacity="0.2" d="M163.099 296.506H150.171C149.429 296.506 148.712 296.237 148.153 295.747C147.594 295.261 147.231 294.586 147.131 293.85L143.579 268.537H162.715L166.139 292.986C166.207 293.424 166.178 293.869 166.056 294.294C165.934 294.72 165.72 295.114 165.431 295.446C165.143 295.782 164.784 296.048 164.382 296.234C163.979 296.416 163.542 296.509 163.099 296.506Z" fill="black"/>
<path d="M156.283 292.986L152.859 268.537H143.579L147.131 293.85C147.236 294.582 147.601 295.254 148.159 295.741C148.716 296.227 149.431 296.499 150.171 296.506H153.243C153.684 296.502 154.118 296.406 154.518 296.221C154.918 296.035 155.274 295.766 155.561 295.434C155.849 295.101 156.063 294.71 156.187 294.288C156.312 293.866 156.344 293.421 156.283 292.986Z" fill="#3F4249"/>
<path d="M58.1073 296.506H71.0353C71.7774 296.506 72.4945 296.237 73.0535 295.747C73.6123 295.261 73.9755 294.586 74.0753 293.85L77.6273 268.537H58.4913L55.0673 292.986C55.0062 293.421 55.0388 293.866 55.1633 294.288C55.2878 294.71 55.5012 295.101 55.7889 295.434C56.0769 295.766 56.4327 296.035 56.8324 296.221C57.2321 296.406 57.667 296.502 58.1073 296.506Z" fill="#3F4249"/>
<path d="M137.627 296.506H124.699C123.957 296.506 123.239 296.237 122.68 295.747C122.122 295.261 121.759 294.586 121.659 293.85L118.107 268.537H137.243L140.667 292.986C140.734 293.424 140.705 293.869 140.583 294.294C140.461 294.72 140.248 295.114 139.959 295.446C139.67 295.782 139.312 296.048 138.909 296.234C138.506 296.416 138.069 296.509 137.627 296.506Z" fill="#3F4249"/>
<path opacity="0.2" d="M137.627 296.506H124.699C123.957 296.506 123.239 296.237 122.68 295.747C122.122 295.261 121.759 294.586 121.659 293.85L118.107 268.537H137.243L140.667 292.986C140.734 293.424 140.705 293.869 140.583 294.294C140.461 294.72 140.248 295.114 139.959 295.446C139.67 295.782 139.312 296.048 138.909 296.234C138.506 296.416 138.069 296.509 137.627 296.506Z" fill="black"/>
<path opacity="0.2" d="M58.1073 296.506H71.0353C71.7774 296.506 72.4945 296.237 73.0535 295.747C73.6123 295.261 73.9755 294.586 74.0753 293.85L77.6273 268.537H58.4913L55.0673 292.986C55.0062 293.421 55.0388 293.866 55.1633 294.288C55.2878 294.71 55.5012 295.101 55.7889 295.434C56.0769 295.766 56.4327 296.035 56.8324 296.221C57.2321 296.406 57.667 296.502 58.1073 296.506Z" fill="black"/>
<path d="M69.2429 220.378C73.6621 220.378 77.2429 214.49 77.2429 207.226C77.2429 199.962 73.6621 194.074 69.2429 194.074C64.8237 194.074 61.2429 199.962 61.2429 207.226C61.2429 214.49 64.8237 220.378 69.2429 220.378Z" fill="#3F4249"/>
<path opacity="0.3" d="M69.2429 220.378C73.6621 220.378 77.2429 214.49 77.2429 207.226C77.2429 199.962 73.6621 194.074 69.2429 194.074C64.8237 194.074 61.2429 199.962 61.2429 207.226C61.2429 214.49 64.8237 220.378 69.2429 220.378Z" fill="black"/>
<path d="M183.387 251.001C182.939 251.001 182.459 250.969 181.979 250.937C181.757 250.921 181.541 250.86 181.343 250.76C181.145 250.658 180.97 250.519 180.827 250.349C180.684 250.179 180.576 249.982 180.51 249.77C180.444 249.558 180.421 249.335 180.443 249.113C180.481 248.668 180.694 248.256 181.037 247.968C181.379 247.68 181.821 247.539 182.267 247.577C183.971 247.749 185.691 247.518 187.291 246.905C185.403 245.465 184.027 243.545 183.515 241.497C182.491 237.529 184.443 234.713 186.907 234.009C189.307 233.337 192.475 234.521 193.819 238.809C194.619 241.369 194.459 243.833 193.371 245.881C195.294 246.128 197.249 245.953 199.099 245.369C199.526 245.262 199.977 245.323 200.359 245.542C200.742 245.76 201.024 246.118 201.149 246.54C201.273 246.962 201.229 247.416 201.025 247.806C200.822 248.197 200.476 248.493 200.059 248.633C196.187 249.785 193.115 249.497 190.875 248.793C188.923 250.201 186.299 251.001 183.387 251.001ZM188.187 237.209C188.059 237.209 187.963 237.241 187.835 237.241C186.971 237.497 186.267 238.649 186.779 240.633C187.099 241.849 188.123 243.545 190.107 244.729C191.003 243.385 191.163 241.721 190.587 239.801C190.011 237.977 188.987 237.209 188.187 237.209Z" fill="#3F4249"/>
<g opacity="0.5">
<path opacity="0.5" d="M183.387 251.001C182.939 251.001 182.459 250.969 181.979 250.937C181.757 250.921 181.541 250.86 181.343 250.76C181.145 250.658 180.97 250.519 180.827 250.349C180.684 250.179 180.576 249.982 180.51 249.77C180.444 249.558 180.421 249.335 180.443 249.113C180.481 248.668 180.694 248.256 181.037 247.968C181.379 247.68 181.821 247.539 182.267 247.577C183.971 247.749 185.691 247.518 187.291 246.905C185.403 245.465 184.027 243.545 183.515 241.497C182.491 237.529 184.443 234.713 186.907 234.009C189.307 233.337 192.475 234.521 193.819 238.809C194.619 241.369 194.459 243.833 193.371 245.881C195.294 246.128 197.249 245.953 199.099 245.369C199.526 245.262 199.977 245.323 200.359 245.542C200.742 245.76 201.024 246.118 201.149 246.54C201.273 246.962 201.229 247.416 201.025 247.806C200.822 248.197 200.476 248.493 200.059 248.633C196.187 249.785 193.115 249.497 190.875 248.793C188.923 250.201 186.299 251.001 183.387 251.001ZM188.187 237.209C188.059 237.209 187.963 237.241 187.835 237.241C186.971 237.497 186.267 238.649 186.779 240.633C187.099 241.849 188.123 243.545 190.107 244.729C191.003 243.385 191.163 241.721 190.587 239.801C190.011 237.977 188.987 237.209 188.187 237.209Z" fill="black"/>
</g>
<path d="M140.731 285.594H84.6027C73.4593 285.594 62.7726 281.167 54.8929 273.288C47.0136 265.408 42.5867 254.721 42.5867 243.578C42.5867 232.434 47.0136 221.748 54.8929 213.868C62.7726 205.989 73.4593 201.562 84.6027 201.562H140.731C151.874 201.562 162.561 205.989 170.44 213.868C178.32 221.748 182.747 232.434 182.747 243.578C182.747 254.721 178.32 265.408 170.44 273.288C162.561 281.167 151.874 285.594 140.731 285.594Z" fill="#3F4249"/>
<path opacity="0.2" d="M162.875 207.866C167.417 214.284 170.106 221.828 170.649 229.672C171.192 237.516 169.568 245.358 165.954 252.342C162.341 259.325 156.876 265.18 150.159 269.267C143.442 273.353 135.73 275.514 127.867 275.514H70.5869C64.7796 275.512 59.0327 274.336 53.6909 272.058C57.6192 276.33 62.393 279.74 67.7088 282.07C73.0247 284.4 78.7668 285.6 84.5709 285.594H140.699C149.833 285.59 158.717 282.611 166.007 277.108C173.297 271.605 178.596 263.877 181.102 255.093C183.608 246.31 183.185 236.949 179.896 228.428C176.607 219.906 170.632 212.688 162.875 207.866Z" fill="#FDD835"/>
<path d="M47.1954 230.426H42.9714V231.802C39.0994 234.458 36.3794 240.666 36.3794 247.866C36.3794 255.066 39.0994 261.274 42.9714 263.93V265.306H47.1954C53.1794 265.306 58.0114 257.498 58.0114 247.866C58.0114 238.234 53.1794 230.426 47.1954 230.426Z" fill="#3F4249"/>
<path opacity="0.3" d="M47.1954 230.426H42.9714V231.802C39.0994 234.458 36.3794 240.666 36.3794 247.866C36.3794 255.066 39.0994 261.274 42.9714 263.93V265.306H47.1954C53.1794 265.306 58.0114 257.498 58.0114 247.866C58.0114 238.234 53.1794 230.426 47.1954 230.426Z" fill="black"/>
<path d="M42.971 265.338C48.9454 265.338 53.787 257.53 53.787 247.898C53.787 238.266 48.9454 230.458 42.971 230.458C36.9966 230.458 32.155 238.266 32.155 247.898C32.155 257.53 36.9966 265.338 42.971 265.338Z" fill="#3F4249"/>
<path opacity="0.3" d="M37.9154 252.73C38.7634 252.73 39.4514 250.49 39.4514 247.738C39.4514 244.986 38.7634 242.746 37.9154 242.746C37.0674 242.746 36.3794 244.986 36.3794 247.738C36.3794 250.49 37.0674 252.73 37.9154 252.73Z" fill="black"/>
<path opacity="0.3" d="M44.507 252.73C45.355 252.73 46.0429 250.49 46.0429 247.738C46.0429 244.986 45.355 242.746 44.507 242.746C43.659 242.746 42.9709 244.986 42.9709 247.738C42.9709 250.49 43.659 252.73 44.507 252.73Z" fill="black"/>
<path opacity="0.3" d="M69.2433 227.226C70.6033 227.226 71.7073 225.092 71.7073 222.458C71.7073 219.824 70.6033 217.69 69.2433 217.69C67.8833 217.69 66.7793 219.824 66.7793 222.458C66.7793 225.092 67.8833 227.226 69.2433 227.226Z" fill="black"/>
<path opacity="0.3" d="M53.4669 227.226C54.8269 227.226 55.9309 225.092 55.9309 222.458C55.9309 219.824 54.8269 217.69 53.4669 217.69C52.1069 217.69 51.0029 219.834 51.0029 222.458C51.0029 225.082 52.1069 227.226 53.4669 227.226Z" fill="black"/>
<path d="M97.0507 212.89C97.5627 211.045 97.8213 209.14 97.8187 207.226C97.8187 199.962 94.2347 194.074 89.8187 194.074C85.4027 194.074 81.8187 199.962 81.8187 207.226C81.8158 208.178 81.8798 209.13 82.0107 210.074L97.0507 212.89Z" fill="#3F4249"/>
<path opacity="0.3" d="M90.523 207.514C90.6081 207.53 90.6961 207.527 90.7803 207.506C90.8644 207.485 90.9429 207.445 91.0101 207.39C91.0773 207.335 91.1313 207.266 91.1688 207.188C91.2065 207.11 91.2264 207.024 91.227 206.938C91.259 205.466 91.195 202.874 91.195 202.298C91.195 199.802 89.819 197.786 88.155 197.786C86.491 197.786 85.115 199.802 85.115 202.298C85.115 202.586 85.083 204.922 85.083 205.978C85.0824 206.115 85.1301 206.248 85.2181 206.353C85.3057 206.458 85.428 206.529 85.563 206.554L90.523 207.514Z" fill="black"/>
<g opacity="0.2">
<path opacity="0.2" d="M81.9792 207.77C81.9456 207.77 81.912 207.764 81.8806 207.751C81.8496 207.739 81.8211 207.72 81.7971 207.696C81.7734 207.672 81.7545 207.644 81.7417 207.613C81.7292 207.581 81.7228 207.548 81.7232 207.514C81.7929 205.496 82.007 203.486 82.3632 201.498C82.3715 201.464 82.3865 201.433 82.407 201.405C82.4278 201.377 82.4537 201.353 82.4835 201.336C82.5132 201.318 82.5462 201.306 82.5804 201.301C82.6147 201.296 82.6496 201.298 82.6832 201.306C82.7168 201.314 82.7484 201.329 82.7763 201.35C82.8041 201.371 82.8275 201.397 82.8454 201.426C82.8633 201.456 82.8752 201.489 82.8803 201.523C82.8854 201.558 82.8835 201.592 82.8752 201.626C82.5193 203.581 82.3158 205.56 82.2672 207.546C82.2537 207.611 82.2172 207.67 82.1644 207.711C82.1116 207.752 82.046 207.773 81.9792 207.77Z" fill="black"/>
</g>
<path opacity="0.3" d="M100.827 210.362H101.467C101.083 207.108 99.7348 204.043 97.5953 201.562H97.0193C97.5447 203.403 97.8033 205.311 97.7873 207.226V207.258C97.7831 207.661 97.8583 208.062 98.0087 208.436C98.1591 208.81 98.3822 209.151 98.6644 209.44C98.9466 209.728 99.283 209.958 99.6542 210.116C100.025 210.274 100.424 210.358 100.827 210.362Z" fill="black"/>
<path d="M149.435 217.913H99.963C99.4197 217.913 98.8987 217.698 98.5147 217.314C98.1307 216.929 97.915 216.409 97.915 215.865C97.915 215.322 98.1307 214.801 98.5147 214.417C98.8987 214.033 99.4197 213.817 99.963 213.817H149.435C149.978 213.817 150.499 214.033 150.883 214.417C151.267 214.801 151.483 215.322 151.483 215.865C151.483 216.409 151.267 216.929 150.883 217.314C150.499 217.698 149.978 217.913 149.435 217.913Z" fill="#3F4249"/>
<path opacity="0.5" d="M149.435 217.913H99.963C99.4197 217.913 98.8987 217.698 98.5147 217.314C98.1307 216.929 97.915 216.409 97.915 215.865C97.915 215.322 98.1307 214.801 98.5147 214.417C98.8987 214.033 99.4197 213.817 99.963 213.817H149.435C149.978 213.817 150.499 214.033 150.883 214.417C151.267 214.801 151.483 215.322 151.483 215.865C151.483 216.409 151.267 216.929 150.883 217.314C150.499 217.698 149.978 217.913 149.435 217.913Z" fill="black"/>
<path d="M104.923 217.914H147.195C148.987 214.092 149.708 209.855 149.283 205.655C148.857 201.456 147.301 197.45 144.779 194.064C142.257 190.679 138.865 188.041 134.963 186.431C131.06 184.821 126.794 184.3 122.619 184.922L118.779 185.498L118.843 185.818C113.602 187.534 109.137 191.048 106.238 195.739C103.339 200.43 102.193 205.995 103.003 211.45C103.321 213.688 103.968 215.866 104.923 217.914Z" fill="#304FFE"/>
<path opacity="0.3" d="M104.923 217.914H147.195C148.987 214.092 149.708 209.855 149.283 205.655C148.857 201.456 147.301 197.45 144.779 194.064C142.257 190.679 138.865 188.041 134.963 186.431C131.06 184.821 126.794 184.3 122.619 184.922L118.779 185.498L118.843 185.818C113.602 187.534 109.137 191.048 106.238 195.739C103.339 200.43 102.193 205.995 103.003 211.45C103.321 213.688 103.968 215.866 104.923 217.914Z" fill="black"/>
<path d="M102.171 217.914H144.795C146.621 213.854 147.233 209.353 146.555 204.954C145.589 198.879 142.263 193.431 137.302 189.794C132.341 186.157 126.145 184.626 120.061 185.532C113.977 186.439 108.496 189.71 104.811 194.635C101.125 199.56 99.5327 205.741 100.379 211.834C100.723 213.927 101.325 215.969 102.171 217.914Z" fill="#304FFE"/>
<path d="M130.491 204.377C130.446 204.343 130.394 204.32 130.338 204.308C130.283 204.297 130.225 204.299 130.171 204.313L127.963 204.633C127.744 203.979 127.37 203.386 126.875 202.905L129.883 202.457C129.996 202.444 130.1 202.387 130.171 202.297C130.205 202.253 130.229 202.201 130.24 202.145C130.251 202.089 130.249 202.032 130.235 201.977L130.043 200.665C130.03 200.552 129.972 200.449 129.883 200.377C129.838 200.343 129.786 200.32 129.73 200.308C129.675 200.297 129.617 200.299 129.563 200.313L118.875 201.913C118.761 201.927 118.658 201.984 118.587 202.073C118.552 202.119 118.529 202.171 118.518 202.226C118.507 202.281 118.508 202.339 118.523 202.393L118.779 204.089C118.8 204.191 118.857 204.282 118.939 204.345C118.984 204.38 119.036 204.403 119.091 204.415C119.147 204.426 119.204 204.424 119.259 204.409L121.115 204.121C122.939 203.865 124.155 204.153 124.763 205.049L119.451 205.849C119.337 205.863 119.234 205.92 119.163 206.009C119.128 206.055 119.105 206.107 119.094 206.162C119.083 206.217 119.084 206.275 119.099 206.329L119.291 207.641C119.304 207.755 119.361 207.858 119.451 207.929C119.496 207.964 119.548 207.987 119.603 207.999C119.659 208.01 119.716 208.008 119.771 207.993L125.275 207.161C125.234 207.521 125.116 207.868 124.928 208.177C124.74 208.487 124.487 208.752 124.187 208.953C123.397 209.494 122.483 209.824 121.531 209.913L120.091 210.137C119.989 210.159 119.898 210.216 119.835 210.297C119.8 210.343 119.777 210.395 119.766 210.45C119.755 210.505 119.756 210.563 119.771 210.617L120.027 212.249C120.048 212.351 120.105 212.442 120.187 212.505C122.107 214.009 123.451 215.097 126.523 217.849C126.683 217.849 129.371 217.593 129.371 217.593C129.451 217.585 129.527 217.553 129.59 217.502C129.652 217.451 129.698 217.383 129.723 217.305C129.758 217.233 129.764 217.15 129.74 217.073C129.717 216.995 129.665 216.93 129.595 216.889C126.619 214.201 125.467 213.241 123.835 211.929C125.119 211.637 126.281 210.955 127.163 209.977C127.954 209.075 128.387 207.914 128.379 206.713L130.523 206.393C130.636 206.38 130.74 206.323 130.811 206.233C130.845 206.189 130.869 206.137 130.88 206.081C130.891 206.025 130.889 205.968 130.875 205.913L130.683 204.601C130.627 204.52 130.563 204.445 130.491 204.377Z" fill="#304FFE"/>
<path opacity="0.3" d="M106.811 217.913H140.123C141.64 215.257 142.5 212.277 142.631 209.221C142.761 206.164 142.159 203.121 140.874 200.345C139.589 197.569 137.659 195.141 135.244 193.263C132.829 191.385 130 190.112 126.994 189.55C123.987 188.988 120.889 189.154 117.959 190.033C115.029 190.912 112.352 192.479 110.151 194.604C107.95 196.728 106.29 199.349 105.308 202.246C104.326 205.143 104.051 208.233 104.507 211.257C104.852 213.601 105.633 215.859 106.811 217.913Z" fill="black"/>
<path opacity="0.3" d="M118.907 204.378C118.952 204.412 119.004 204.436 119.06 204.447C119.115 204.458 119.173 204.456 119.227 204.442L121.083 204.154C122.907 203.898 124.123 204.186 124.731 205.082L119.419 205.882C119.306 205.895 119.202 205.953 119.131 206.042C119.097 206.087 119.073 206.139 119.062 206.194C119.051 206.25 119.053 206.307 119.067 206.362L119.259 207.674C119.272 207.787 119.33 207.891 119.419 207.962C119.464 207.996 119.516 208.02 119.572 208.031C119.627 208.042 119.685 208.04 119.739 208.026L125.243 207.194C125.202 207.554 125.084 207.9 124.896 208.209C124.708 208.519 124.455 208.784 124.155 208.986C123.366 209.526 122.452 209.857 121.499 209.946L120.059 210.17C119.958 210.191 119.867 210.248 119.803 210.33C119.769 210.375 119.745 210.427 119.734 210.482C119.723 210.538 119.725 210.595 119.739 210.65L119.995 212.282C120.016 212.383 120.073 212.474 120.155 212.538C122.075 214.042 123.419 215.13 126.491 217.882H127.547L129.339 217.626C129.42 217.617 129.495 217.585 129.558 217.534C129.621 217.483 129.667 217.415 129.691 217.338C129.726 217.265 129.733 217.182 129.709 217.105C129.685 217.027 129.633 216.962 129.563 216.922C126.587 214.234 125.435 213.274 123.803 211.962C125.087 211.669 126.249 210.987 127.131 210.01C127.923 209.107 128.356 207.946 128.347 206.746L130.523 206.426C130.637 206.412 130.74 206.355 130.811 206.266C130.846 206.221 130.869 206.169 130.88 206.113C130.891 206.058 130.89 206.001 130.875 205.946L130.683 204.634C130.67 204.52 130.613 204.417 130.523 204.346C130.478 204.311 130.426 204.288 130.371 204.277C130.315 204.266 130.258 204.267 130.203 204.282L127.995 204.602C127.776 203.947 127.403 203.355 126.907 202.874L129.915 202.426C130.029 202.412 130.132 202.355 130.203 202.266C130.238 202.221 130.261 202.169 130.272 202.113C130.283 202.058 130.282 202.001 130.267 201.946L130.075 200.634C130.062 200.52 130.005 200.417 129.915 200.346C129.87 200.311 129.818 200.288 129.763 200.277C129.707 200.266 129.65 200.267 129.595 200.282L118.907 201.882C118.794 201.895 118.69 201.953 118.619 202.042C118.585 202.087 118.561 202.139 118.55 202.194C118.539 202.25 118.541 202.307 118.555 202.362L118.811 204.058C118.792 204.115 118.791 204.176 118.809 204.233C118.826 204.29 118.86 204.341 118.907 204.378Z" fill="black"/>
<path opacity="0.2" d="M106.811 217.914H109.083C107.514 215.283 106.597 212.316 106.408 209.259C106.22 206.202 106.766 203.145 108 200.342C109.233 197.538 111.12 195.071 113.502 193.146C115.884 191.22 118.692 189.893 121.691 189.274C121.339 189.306 120.987 189.338 120.635 189.402C118.142 189.773 115.747 190.633 113.586 191.931C111.426 193.23 109.543 194.941 108.044 196.968C106.546 198.996 105.463 201.298 104.856 203.745C104.249 206.191 104.13 208.733 104.507 211.226C104.847 213.58 105.629 215.849 106.811 217.914Z" fill="black"/>
<path d="M127.611 217.882C127.684 217.872 127.751 217.838 127.803 217.786C127.855 217.734 127.889 217.667 127.899 217.594C127.934 217.521 127.94 217.438 127.917 217.361C127.893 217.284 127.841 217.218 127.771 217.178C124.795 214.49 123.643 213.53 122.011 212.218C123.295 211.925 124.457 211.243 125.339 210.266C126.131 209.364 126.563 208.202 126.555 207.002L128.699 206.682C128.812 206.669 128.916 206.611 128.987 206.522C129.021 206.477 129.045 206.425 129.056 206.369C129.067 206.314 129.065 206.257 129.051 206.202L128.859 204.89C128.846 204.776 128.788 204.673 128.699 204.602C128.654 204.568 128.602 204.544 128.546 204.533C128.491 204.522 128.434 204.523 128.379 204.538L126.171 204.858C125.952 204.203 125.578 203.611 125.083 203.13L128.091 202.682C128.204 202.669 128.308 202.611 128.379 202.522C128.413 202.477 128.437 202.425 128.448 202.369C128.459 202.314 128.457 202.257 128.443 202.202L128.251 200.89C128.238 200.776 128.18 200.673 128.091 200.602C128.046 200.568 127.994 200.544 127.938 200.533C127.883 200.522 127.826 200.523 127.771 200.538L117.083 202.138C116.969 202.151 116.866 202.209 116.795 202.298C116.761 202.343 116.737 202.395 116.726 202.45C116.715 202.506 116.717 202.563 116.731 202.618L116.987 204.314C117.008 204.416 117.065 204.506 117.147 204.57C117.192 204.604 117.244 204.628 117.299 204.639C117.355 204.65 117.412 204.648 117.467 204.634L119.323 204.346C121.147 204.09 122.363 204.378 122.971 205.274L117.659 206.074C117.545 206.087 117.442 206.145 117.371 206.234C117.337 206.279 117.313 206.331 117.302 206.386C117.291 206.442 117.293 206.499 117.307 206.554L117.499 207.866C117.512 207.979 117.57 208.083 117.659 208.154C117.704 208.188 117.756 208.212 117.811 208.223C117.867 208.234 117.924 208.232 117.979 208.218L123.483 207.386C123.442 207.745 123.324 208.092 123.136 208.401C122.948 208.711 122.695 208.976 122.395 209.178C121.606 209.718 120.691 210.049 119.739 210.138L118.299 210.362C118.197 210.383 118.107 210.44 118.043 210.522C118.009 210.567 117.985 210.619 117.974 210.674C117.963 210.73 117.965 210.787 117.979 210.842L118.235 212.474C118.256 212.576 118.313 212.666 118.395 212.73C120.251 214.17 121.563 215.258 124.411 217.786H127.611V217.882Z" fill="#304FFE"/>
<path opacity="0.5" d="M151.515 215.897H97.915C97.925 216.435 98.1448 216.946 98.5278 217.323C98.9106 217.7 99.4258 217.912 99.963 217.913H149.435C149.976 217.913 150.495 217.702 150.883 217.326C151.271 216.95 151.497 216.438 151.515 215.897Z" fill="black"/>
<path d="M398.459 296.858H32.6991C32.623 296.858 32.5497 296.829 32.4956 296.775C32.4415 296.72 32.4111 296.647 32.4111 296.57C32.4111 296.493 32.4415 296.419 32.4956 296.365C32.5497 296.314 32.623 296.282 32.6991 296.282H398.459C398.536 296.282 398.609 296.314 398.664 296.365C398.718 296.419 398.747 296.493 398.747 296.57C398.747 296.647 398.718 296.72 398.664 296.775C398.609 296.829 398.536 296.858 398.459 296.858Z" fill="#B2B6BB"/>
<path d="M193.851 216.858C193.653 216.82 193.465 216.744 193.297 216.633C193.129 216.523 192.984 216.38 192.871 216.214C192.758 216.047 192.679 215.86 192.639 215.663C192.598 215.466 192.597 215.263 192.635 215.066C192.648 214.971 192.625 214.875 192.571 214.797C192.517 214.718 192.434 214.664 192.341 214.644C192.248 214.623 192.151 214.639 192.069 214.688C191.986 214.736 191.926 214.814 191.899 214.906C191.861 215.103 191.785 215.292 191.675 215.46C191.564 215.628 191.422 215.772 191.255 215.885C191.089 215.998 190.902 216.077 190.704 216.118C190.507 216.158 190.304 216.16 190.107 216.122C190.012 216.108 189.916 216.131 189.838 216.185C189.76 216.24 189.705 216.322 189.685 216.415C189.664 216.509 189.68 216.606 189.729 216.688C189.777 216.77 189.855 216.83 189.947 216.858C190.144 216.895 190.333 216.972 190.501 217.082C190.669 217.192 190.814 217.335 190.927 217.501C191.039 217.668 191.119 217.855 191.159 218.052C191.199 218.249 191.201 218.452 191.163 218.65C191.15 218.744 191.172 218.84 191.227 218.918C191.281 218.997 191.363 219.052 191.456 219.072C191.55 219.092 191.647 219.076 191.729 219.028C191.811 218.979 191.872 218.901 191.899 218.81C191.936 218.612 192.013 218.424 192.123 218.256C192.234 218.087 192.376 217.943 192.543 217.83C192.709 217.717 192.896 217.638 193.093 217.598C193.29 217.557 193.493 217.556 193.691 217.594C193.788 217.61 193.887 217.589 193.97 217.536C194.053 217.483 194.113 217.401 194.139 217.306C194.151 217.209 194.128 217.111 194.076 217.029C194.023 216.948 193.944 216.887 193.851 216.858Z" fill="#304FFE"/>
<path opacity="0.5" d="M193.851 216.858C193.653 216.82 193.465 216.744 193.297 216.633C193.129 216.523 192.984 216.38 192.871 216.214C192.758 216.047 192.679 215.86 192.639 215.663C192.598 215.466 192.597 215.263 192.635 215.066C192.648 214.971 192.625 214.875 192.571 214.797C192.517 214.718 192.434 214.664 192.341 214.644C192.248 214.623 192.151 214.639 192.069 214.688C191.986 214.736 191.926 214.814 191.899 214.906C191.861 215.103 191.785 215.292 191.675 215.46C191.564 215.628 191.422 215.772 191.255 215.885C191.089 215.998 190.902 216.077 190.704 216.118C190.507 216.158 190.304 216.16 190.107 216.122C190.012 216.108 189.916 216.131 189.838 216.185C189.76 216.24 189.705 216.322 189.685 216.415C189.664 216.509 189.68 216.606 189.729 216.688C189.777 216.77 189.855 216.83 189.947 216.858C190.144 216.895 190.333 216.972 190.501 217.082C190.669 217.192 190.814 217.335 190.927 217.501C191.039 217.668 191.119 217.855 191.159 218.052C191.199 218.249 191.201 218.452 191.163 218.65C191.15 218.744 191.172 218.84 191.227 218.918C191.281 218.997 191.363 219.052 191.456 219.072C191.55 219.092 191.647 219.076 191.729 219.028C191.811 218.979 191.872 218.901 191.899 218.81C191.936 218.612 192.013 218.424 192.123 218.256C192.234 218.087 192.376 217.943 192.543 217.83C192.709 217.717 192.896 217.638 193.093 217.598C193.29 217.557 193.493 217.556 193.691 217.594C193.788 217.61 193.887 217.589 193.97 217.536C194.053 217.483 194.113 217.401 194.139 217.306C194.151 217.209 194.128 217.111 194.076 217.029C194.023 216.948 193.944 216.887 193.851 216.858Z" fill="white"/>
<path d="M167.451 152.314C167.253 152.276 167.065 152.2 166.897 152.09C166.729 151.979 166.584 151.837 166.471 151.67C166.358 151.504 166.279 151.317 166.239 151.12C166.198 150.923 166.197 150.72 166.235 150.522C166.248 150.428 166.225 150.331 166.171 150.253C166.117 150.175 166.034 150.12 165.941 150.1C165.848 150.08 165.751 150.096 165.669 150.144C165.586 150.193 165.526 150.271 165.499 150.362C165.461 150.56 165.385 150.748 165.275 150.916C165.164 151.084 165.022 151.229 164.855 151.342C164.689 151.455 164.502 151.534 164.304 151.574C164.108 151.615 163.904 151.616 163.707 151.578C163.657 151.563 163.605 151.559 163.553 151.565C163.502 151.572 163.452 151.589 163.407 151.615C163.363 151.642 163.324 151.677 163.294 151.719C163.264 151.761 163.242 151.809 163.231 151.86C163.22 151.911 163.22 151.963 163.23 152.014C163.24 152.065 163.26 152.113 163.29 152.156C163.32 152.198 163.358 152.234 163.402 152.262C163.446 152.289 163.496 152.307 163.547 152.314C163.744 152.352 163.933 152.428 164.101 152.538C164.269 152.649 164.414 152.791 164.527 152.958C164.64 153.124 164.719 153.311 164.759 153.508C164.8 153.705 164.801 153.908 164.763 154.106C164.748 154.156 164.744 154.208 164.75 154.26C164.757 154.311 164.774 154.361 164.8 154.405C164.827 154.45 164.862 154.489 164.904 154.519C164.946 154.55 164.994 154.571 165.045 154.582C165.096 154.593 165.148 154.593 165.199 154.583C165.25 154.573 165.298 154.553 165.341 154.523C165.383 154.493 165.419 154.455 165.447 154.411C165.474 154.367 165.492 154.317 165.499 154.266C165.536 154.068 165.613 153.88 165.723 153.712C165.834 153.544 165.976 153.399 166.143 153.286C166.309 153.173 166.496 153.094 166.693 153.054C166.89 153.013 167.093 153.012 167.291 153.05C167.388 153.066 167.488 153.046 167.57 152.992C167.653 152.939 167.713 152.857 167.739 152.762C167.756 152.713 167.761 152.662 167.755 152.611C167.749 152.56 167.731 152.511 167.704 152.468C167.676 152.425 167.639 152.389 167.595 152.362C167.551 152.335 167.502 152.319 167.451 152.314Z" fill="#304FFE"/>
<path opacity="0.5" d="M167.451 152.314C167.253 152.276 167.065 152.2 166.897 152.09C166.729 151.979 166.584 151.837 166.471 151.67C166.358 151.504 166.279 151.317 166.239 151.12C166.198 150.923 166.197 150.72 166.235 150.522C166.248 150.428 166.225 150.331 166.171 150.253C166.117 150.175 166.034 150.12 165.941 150.1C165.848 150.08 165.751 150.096 165.669 150.144C165.586 150.193 165.526 150.271 165.499 150.362C165.461 150.56 165.385 150.748 165.275 150.916C165.164 151.084 165.022 151.229 164.855 151.342C164.689 151.455 164.502 151.534 164.304 151.574C164.108 151.615 163.904 151.616 163.707 151.578C163.657 151.563 163.605 151.559 163.553 151.565C163.502 151.572 163.452 151.589 163.407 151.615C163.363 151.642 163.324 151.677 163.294 151.719C163.264 151.761 163.242 151.809 163.231 151.86C163.22 151.911 163.22 151.963 163.23 152.014C163.24 152.065 163.26 152.113 163.29 152.156C163.32 152.198 163.358 152.234 163.402 152.262C163.446 152.289 163.496 152.307 163.547 152.314C163.744 152.352 163.933 152.428 164.101 152.538C164.269 152.649 164.414 152.791 164.527 152.958C164.64 153.124 164.719 153.311 164.759 153.508C164.8 153.705 164.801 153.908 164.763 154.106C164.748 154.156 164.744 154.208 164.75 154.26C164.757 154.311 164.774 154.361 164.8 154.405C164.827 154.45 164.862 154.489 164.904 154.519C164.946 154.55 164.994 154.571 165.045 154.582C165.096 154.593 165.148 154.593 165.199 154.583C165.25 154.573 165.298 154.553 165.341 154.523C165.383 154.493 165.419 154.455 165.447 154.411C165.474 154.367 165.492 154.317 165.499 154.266C165.536 154.068 165.613 153.88 165.723 153.712C165.834 153.544 165.976 153.399 166.143 153.286C166.309 153.173 166.496 153.094 166.693 153.054C166.89 153.013 167.093 153.012 167.291 153.05C167.388 153.066 167.488 153.046 167.57 152.992C167.653 152.939 167.713 152.857 167.739 152.762C167.756 152.713 167.761 152.662 167.755 152.611C167.749 152.56 167.731 152.511 167.704 152.468C167.676 152.425 167.639 152.389 167.595 152.362C167.551 152.335 167.502 152.319 167.451 152.314Z" fill="white"/>
<path d="M242.747 178.234C242.55 178.196 242.361 178.12 242.193 178.01C242.025 177.899 241.881 177.757 241.768 177.59C241.655 177.424 241.576 177.237 241.535 177.039C241.494 176.843 241.493 176.639 241.531 176.442C241.545 176.348 241.522 176.251 241.467 176.173C241.413 176.095 241.331 176.04 241.238 176.02C241.144 175.999 241.047 176.015 240.965 176.064C240.883 176.112 240.822 176.191 240.795 176.282C240.758 176.479 240.682 176.668 240.571 176.836C240.46 177.004 240.318 177.149 240.152 177.262C239.985 177.375 239.798 177.454 239.601 177.494C239.404 177.535 239.201 177.536 239.003 177.498C238.909 177.485 238.813 177.507 238.734 177.562C238.656 177.616 238.602 177.698 238.581 177.791C238.561 177.885 238.577 177.982 238.625 178.064C238.674 178.146 238.752 178.207 238.843 178.234C239.041 178.271 239.229 178.348 239.397 178.458C239.565 178.569 239.71 178.711 239.823 178.878C239.936 179.044 240.015 179.231 240.055 179.428C240.096 179.625 240.097 179.828 240.059 180.026C240.044 180.076 240.04 180.128 240.047 180.18C240.053 180.231 240.07 180.281 240.097 180.325C240.123 180.37 240.158 180.409 240.201 180.439C240.243 180.47 240.291 180.491 240.341 180.502C240.392 180.513 240.444 180.513 240.495 180.503C240.546 180.493 240.595 180.472 240.637 180.443C240.68 180.413 240.716 180.375 240.743 180.331C240.77 180.287 240.788 180.237 240.795 180.186C240.833 179.988 240.909 179.8 241.019 179.632C241.13 179.464 241.273 179.319 241.439 179.206C241.605 179.093 241.793 179.014 241.99 178.974C242.187 178.933 242.39 178.932 242.587 178.97C242.684 178.986 242.784 178.966 242.867 178.912C242.949 178.859 243.01 178.777 243.035 178.682C243.046 178.633 243.048 178.583 243.039 178.535C243.031 178.486 243.013 178.439 242.986 178.397C242.959 178.355 242.924 178.319 242.883 178.291C242.842 178.263 242.796 178.244 242.747 178.234Z" fill="#304FFE"/>
<path d="M128.603 175.961C128.405 175.924 128.217 175.848 128.049 175.737C127.88 175.627 127.736 175.484 127.623 175.318C127.51 175.151 127.431 174.964 127.39 174.767C127.35 174.57 127.349 174.367 127.387 174.169C127.401 174.12 127.406 174.067 127.399 174.016C127.393 173.964 127.376 173.915 127.35 173.87C127.323 173.825 127.287 173.787 127.246 173.756C127.203 173.726 127.156 173.705 127.105 173.694C127.054 173.683 127.002 173.682 126.951 173.692C126.9 173.703 126.852 173.723 126.809 173.753C126.766 173.782 126.73 173.82 126.703 173.865C126.676 173.909 126.658 173.958 126.651 174.009C126.613 174.207 126.537 174.395 126.426 174.563C126.316 174.732 126.173 174.876 126.007 174.989C125.84 175.102 125.653 175.181 125.456 175.222C125.259 175.262 125.056 175.264 124.859 175.225C124.764 175.212 124.668 175.235 124.59 175.289C124.512 175.344 124.457 175.426 124.437 175.519C124.416 175.612 124.432 175.71 124.481 175.792C124.529 175.874 124.607 175.935 124.699 175.961C124.896 175.999 125.085 176.075 125.253 176.186C125.421 176.296 125.566 176.439 125.678 176.605C125.791 176.772 125.87 176.959 125.911 177.156C125.951 177.353 125.953 177.556 125.915 177.753C125.9 177.803 125.896 177.856 125.902 177.907C125.909 177.959 125.926 178.008 125.952 178.053C125.978 178.097 126.014 178.136 126.056 178.167C126.098 178.197 126.146 178.218 126.197 178.229C126.247 178.241 126.3 178.241 126.351 178.231C126.402 178.221 126.45 178.2 126.493 178.17C126.535 178.141 126.571 178.103 126.598 178.058C126.626 178.014 126.643 177.965 126.651 177.913C126.688 177.716 126.765 177.528 126.875 177.36C126.985 177.192 127.128 177.047 127.294 176.934C127.461 176.821 127.648 176.742 127.845 176.701C128.042 176.661 128.245 176.659 128.443 176.697C128.54 176.714 128.639 176.693 128.722 176.64C128.805 176.587 128.865 176.505 128.891 176.409C128.905 176.361 128.91 176.31 128.903 176.26C128.896 176.209 128.878 176.161 128.851 176.119C128.823 176.076 128.787 176.04 128.744 176.013C128.701 175.986 128.653 175.968 128.603 175.961Z" fill="#304FFE"/>
<path d="M160.123 192.345C160.294 192.345 160.461 192.295 160.603 192.2C160.745 192.105 160.856 191.97 160.921 191.812C160.987 191.654 161.004 191.48 160.971 191.313C160.937 191.145 160.855 190.991 160.734 190.871C160.613 190.75 160.459 190.667 160.292 190.634C160.124 190.601 159.95 190.618 159.793 190.683C159.635 190.749 159.5 190.859 159.405 191.001C159.31 191.143 159.259 191.311 159.259 191.481C159.259 191.595 159.282 191.707 159.325 191.812C159.368 191.917 159.432 192.012 159.512 192.092C159.592 192.173 159.688 192.236 159.793 192.28C159.897 192.323 160.01 192.345 160.123 192.345Z" fill="#304FFE"/>
<path d="M222.523 205.305C222.694 205.305 222.861 205.255 223.003 205.16C223.145 205.065 223.256 204.93 223.321 204.772C223.387 204.614 223.404 204.44 223.371 204.273C223.337 204.105 223.255 203.951 223.134 203.83C223.013 203.71 222.859 203.627 222.692 203.594C222.524 203.561 222.351 203.578 222.193 203.643C222.035 203.709 221.9 203.819 221.805 203.961C221.71 204.103 221.659 204.27 221.659 204.441C221.659 204.555 221.682 204.667 221.725 204.772C221.769 204.877 221.832 204.972 221.913 205.052C221.993 205.133 222.088 205.196 222.193 205.24C222.298 205.283 222.41 205.305 222.523 205.305Z" fill="#304FFE"/>
<path d="M160.891 74.3938H106.491V119.546H160.891V74.3938Z" fill="#304FFE"/>
<path opacity="0.8" d="M160.891 74.3938H106.491V119.546H160.891V74.3938Z" fill="white"/>
<path d="M157.019 78.4574H110.363V115.481H157.019V78.4574Z" fill="white"/>
<path d="M162.075 74.3938H160.891V119.546H162.075V74.3938Z" fill="#B2B6BB"/>
<path d="M137.23 111.555V109.027H127.726V111.555H137.23Z" fill="#FDD835"/>
<path opacity="0.2" d="M132.475 106.041C134.728 106.041 136.931 105.373 138.804 104.122C140.678 102.87 142.138 101.091 143 99.0091C143.862 96.9275 144.088 94.637 143.648 92.4271C143.208 90.2171 142.124 88.1874 140.53 86.5941C138.937 85.0008 136.907 83.916 134.697 83.4763C132.488 83.037 130.197 83.2626 128.115 84.1247C126.034 84.9871 124.255 86.4472 123.003 88.3205C121.751 90.1938 121.083 92.3963 121.083 94.6495C121.083 97.6709 122.283 100.568 124.42 102.705C126.556 104.841 129.454 106.041 132.475 106.041Z" fill="black"/>
<path d="M213.115 51.6417H182.747V93.9777H213.115V51.6417Z" fill="#FDD835"/>
<path d="M213.099 94.0004H213.883V51.6644H213.115L213.099 94.0004Z" fill="#B2B6BB"/>
<path d="M209.307 55.7057H186.555V89.9777H209.307V55.7057Z" fill="#DADDDF"/>
<path d="M361.662 278.285C362.023 279.115 362.283 279.985 362.433 280.877L364.593 290.438C364.846 291.779 364.801 293.158 364.468 294.48C364.324 295.034 364.001 295.526 363.55 295.878C363.095 296.23 362.542 296.422 361.969 296.426H359.409C358.958 296.426 358.516 296.307 358.126 296.083C357.735 295.859 357.412 295.536 357.188 295.146L357.003 294.826C356.228 293.469 355.79 291.946 355.723 290.384L355.755 281.424C355.691 280.35 355.825 279.274 356.155 278.25L361.662 278.285Z" fill="#304FFE"/>
<path d="M330.475 255.274L327.483 273.69C327.163 276.189 326.959 277.299 326.987 279.149L320.971 290.006L314.216 293.37L312.488 290.995L319.954 278.006C320.571 277.174 320.971 275.51 320.971 273.936L321.496 257.248L330.475 255.274Z" fill="#FC9D9D"/>
<path opacity="0.15" d="M313.538 292.816L312.491 291.056L319.954 278.074C320.725 276.963 320.942 275.143 320.974 274L321.189 266.906H328.594L328.53 267.802L324.427 268.355C324.206 268.381 324.002 268.48 323.845 268.637C323.688 268.794 323.589 268.999 323.563 269.219L322.763 275.175C322.408 276.756 321.816 278.274 321.003 279.677L313.538 292.816Z" fill="black"/>
<path d="M306.907 295.315C306.856 295.437 306.837 295.568 306.85 295.703C306.859 295.834 306.904 295.959 306.978 296.067C307.051 296.179 307.15 296.269 307.269 296.33C307.384 296.394 307.515 296.426 307.646 296.426H314.958C316.002 296.426 317.029 296.192 317.97 295.744C318.914 295.296 319.742 294.643 320.398 293.834L325.09 288.096C325.17 287.995 325.275 287.921 325.4 287.883C325.522 287.846 325.653 287.848 325.774 287.888C325.896 287.929 326.002 288.006 326.078 288.109C326.155 288.212 326.197 288.336 326.2 288.464L326.446 296.394H327.339L328.45 288.682C328.917 285.434 328.424 282.121 327.032 279.149L319.352 288.464C318.539 289.45 317.48 290.205 316.283 290.656C315.086 291.104 313.794 291.232 312.533 291.024L308.984 293.181C308.043 293.597 307.298 294.362 306.907 295.315Z" fill="#304FFE"/>
<path d="M354.475 260.153L362.526 260.029L361.662 275.609C361.531 277.975 361.697 280.348 362.155 282.672L363.051 287.238C363.111 287.684 363.079 288.137 362.951 288.57C362.823 288.998 362.603 289.398 362.308 289.738C362.014 290.077 361.646 290.349 361.236 290.534C360.83 290.72 360.385 290.816 359.934 290.816H359.409C358.593 290.813 357.809 290.493 357.22 289.923C356.635 289.354 356.292 288.579 356.263 287.763L356.324 283.923C356.375 280.687 356.212 277.451 355.831 274.237L354.475 260.153Z" fill="#FC9D9D"/>
<path d="M361.105 149.002L362.309 153.936C365.454 167.023 366.721 180.492 366.072 193.936L362.552 266.8L354.552 266.861L346.715 168.365C346.689 168.02 346.539 167.697 346.286 167.46C346.037 167.223 345.704 167.089 345.358 167.085C345.032 167.077 344.712 167.189 344.462 167.399C344.213 167.609 344.049 167.904 344.001 168.227L328.933 266.874H320.817L322.699 196.474C322.945 187.405 323.47 178.355 324.273 169.325L324.913 162.17L330.529 149.05L361.105 149.002Z" fill="#3F4249"/>
<path opacity="0.15" d="M362.155 266.842L362.123 267.642L358.545 268.282C358.283 268.335 358.049 268.478 357.88 268.686C357.71 268.894 357.621 269.153 357.621 269.421L357.867 286.359C357.899 287.747 357.774 289.597 359.256 290.739C358.469 290.707 357.72 290.375 357.166 289.815C356.613 289.255 356.289 288.503 356.264 287.715L356.325 283.875C356.357 281.994 356.325 280.112 356.203 278.231V278.199C356.11 276.874 355.153 266.877 355.153 266.877L362.155 266.842Z" fill="black"/>
<path opacity="0.2" d="M322.731 196.474C322.978 187.405 323.502 178.355 324.306 169.325L324.946 162.17L330.562 149.05H330.651L338.149 149.018L361.16 148.957V148.989L338.149 149.05C338.149 152.135 338.789 155.28 338.734 158.458C338.674 162.298 336.05 167.098 329.234 167.098L324.088 266.874H320.85L322.731 196.474Z" fill="black"/>
<path d="M354.504 98.131L351.915 97.5774L337.105 97.699L335.163 98.2558C336.83 105.072 337.941 121.453 338.309 151.869L351.544 151.84C351.483 144.189 351.637 113.68 354.504 98.131Z" fill="white"/>
<path opacity="0.2" d="M348.798 151.84H351.544C351.483 144.375 351.297 115.098 353.95 99.2133C349.105 114.08 347.502 131.85 348.798 151.84Z" fill="black"/>
<path opacity="0.2" d="M348.83 151.808C348.984 154.688 349.013 154.739 349.262 157.67C349.457 159.913 350.488 162.002 352.145 163.525C353.803 165.049 355.969 165.897 358.222 165.904L365.749 166.275C364.936 161.93 363.877 157.635 362.571 153.411C361.832 152.131 361.246 150.883 361.029 149.773C360.984 149.526 348.798 151.84 348.83 151.808Z" fill="black"/>
<path d="M330.196 154.614H360.459V151.869H330.196V154.614Z" fill="black"/>
<path d="M338.095 77.2161C333.189 77.4337 329.394 82.0609 329.64 87.5809C329.887 93.1009 334.053 97.3921 338.959 97.1809C342.043 97.0273 341.055 94.0353 340.808 88.5121C340.562 82.9889 339.419 81.9361 338.095 77.2161Z" fill="#21252B"/>
<path d="M352.216 97.3698C357.259 96.9282 360.997 92.5922 360.565 87.6866C360.133 82.781 355.701 79.165 350.645 79.6066C345.589 80.0482 341.864 84.3842 342.296 89.2898C342.728 94.1954 347.176 97.8114 352.216 97.3698Z" fill="#21252B"/>
<path d="M351.112 97.3921C350.869 97.3291 350.648 97.1915 350.485 96.9982C350.322 96.805 350.223 96.5656 350.203 96.3138L349.122 84.1313L341.762 82.3105L341.733 82.7105L340.651 90.8546L340.331 93.0946L339.928 96.1474C339.896 96.3784 339.8 96.5953 339.647 96.771C339.493 96.9467 339.291 97.0738 339.067 97.1362L336.443 97.8434L337.186 98.4834C339.263 100.264 341.903 101.248 344.639 101.259C347.375 101.27 350.024 100.308 352.114 98.5442L353.01 97.805L351.112 97.3921Z" fill="#FC9D9D"/>
<path d="M338.683 86.6881L337.723 73.7633L352.004 73.6705L351.233 86.6241C351.147 88.2248 350.452 89.7317 349.291 90.8369C348.129 91.9422 346.59 92.5621 344.987 92.5704C343.383 92.5787 341.838 91.9742 340.667 90.8808C339.492 89.7877 338.782 88.2878 338.679 86.6881H338.683Z" fill="#FC9D9D"/>
<path d="M338.683 86.6881L337.723 73.7633L352.004 73.6705L351.233 86.6241C351.147 88.2248 350.452 89.7317 349.291 90.8369C348.129 91.9422 346.59 92.5621 344.987 92.5704C343.383 92.5787 341.838 91.9742 340.667 90.8808C339.492 89.7877 338.782 88.2878 338.679 86.6881H338.683Z" fill="#FC9D9D"/>
<path d="M348.459 82.9282C348.459 82.7813 348.418 82.6373 348.334 82.5147C348.254 82.3922 348.139 82.2965 348.002 82.2398C347.867 82.1832 347.717 82.1682 347.573 82.1963C347.429 82.2248 347.298 82.2952 347.192 82.3989C347.09 82.5026 347.019 82.6347 346.99 82.779C346.962 82.923 346.974 83.0725 347.032 83.2082C347.086 83.3442 347.182 83.4603 347.304 83.5419C347.426 83.6238 347.57 83.6674 347.717 83.6674C347.912 83.6674 348.101 83.5896 348.242 83.451C348.379 83.3125 348.459 83.1243 348.459 82.9282Z" fill="#21252B"/>
<path d="M347.563 82.7748C347.563 82.7444 347.553 82.7147 347.537 82.6894C347.521 82.6641 347.496 82.6446 347.467 82.6327C347.441 82.6212 347.409 82.6183 347.381 82.6241C347.349 82.6302 347.323 82.6446 347.301 82.6663C347.278 82.6878 347.265 82.715 347.259 82.7447C347.253 82.7745 347.256 82.8055 347.269 82.8337C347.278 82.8615 347.297 82.8855 347.323 82.9025C347.349 82.9195 347.377 82.9284 347.409 82.9284C347.451 82.9284 347.489 82.9121 347.518 82.8833C347.547 82.8545 347.563 82.8155 347.563 82.7748Z" fill="white"/>
<path d="M342.69 82.9282C342.69 82.781 342.648 82.637 342.565 82.5144C342.485 82.3919 342.37 82.2962 342.232 82.2396C342.098 82.1832 341.947 82.1682 341.803 82.1967C341.659 82.2252 341.528 82.2959 341.422 82.3999C341.32 82.5039 341.246 82.6367 341.218 82.781C341.192 82.9253 341.205 83.0748 341.262 83.2104C341.32 83.3464 341.416 83.4623 341.538 83.5435C341.659 83.6248 341.803 83.668 341.95 83.6674C342.146 83.6664 342.334 83.5883 342.472 83.4498C342.61 83.3115 342.69 83.124 342.69 82.9282Z" fill="#21252B"/>
<path d="M341.765 82.7426C341.765 82.7112 341.755 82.6805 341.739 82.6542C341.723 82.628 341.698 82.6072 341.669 82.595C341.64 82.5829 341.608 82.5794 341.579 82.5854C341.547 82.5912 341.518 82.6062 341.496 82.6283C341.474 82.6504 341.461 82.6789 341.454 82.7096C341.448 82.7403 341.451 82.772 341.464 82.8008C341.477 82.8296 341.496 82.8539 341.522 82.8709C341.55 82.8878 341.579 82.8968 341.611 82.8962C341.63 82.8962 341.653 82.892 341.669 82.8843C341.688 82.8766 341.707 82.8654 341.72 82.851C341.733 82.837 341.746 82.82 341.752 82.8011C341.762 82.7826 341.765 82.7627 341.765 82.7426Z" fill="white"/>
<g opacity="0.3">
<path opacity="0.3" d="M343.832 85.3918C343.832 85.155 343.925 84.9275 344.094 84.7595C344.261 84.5915 344.488 84.4968 344.725 84.4958C344.757 84.4923 344.786 84.4952 344.814 84.5042C344.846 84.5134 344.872 84.5288 344.894 84.549C344.92 84.5694 344.936 84.5947 344.949 84.6226C344.962 84.6507 344.968 84.6811 344.968 84.7118C344.968 84.7429 344.962 84.7733 344.949 84.8014C344.936 84.8293 344.92 84.8546 344.894 84.875C344.872 84.8952 344.846 84.9106 344.814 84.9198C344.786 84.9288 344.757 84.9317 344.725 84.9278C344.664 84.9272 344.603 84.9384 344.546 84.9614C344.491 84.9848 344.44 85.0187 344.395 85.0622C344.354 85.1054 344.318 85.157 344.296 85.2136C344.274 85.2702 344.264 85.331 344.264 85.3918C344.264 85.453 344.274 85.5134 344.296 85.5698C344.318 85.6264 344.354 85.6776 344.395 85.7208C344.44 85.7637 344.491 85.7976 344.546 85.8203C344.603 85.843 344.664 85.8542 344.725 85.8526H345.365C345.416 85.8594 345.467 85.8846 345.502 85.9246C345.538 85.9643 345.557 86.0155 345.557 86.0686C345.557 86.1221 345.538 86.1733 345.502 86.213C345.467 86.253 345.416 86.2782 345.365 86.2846H344.725C344.488 86.2846 344.261 86.1909 344.094 86.0232C343.925 85.8558 343.832 85.6286 343.832 85.3918Z" fill="black"/>
</g>
<path d="M356.511 81.5041L355.368 80.7041C354.783 81.7505 351.912 82.3361 351.912 82.3361L351.851 80.8257C351.851 80.8257 344.725 82.1057 341.931 76.2305C341.771 77.0484 341.346 77.7911 340.722 78.3431C340.098 78.8951 339.307 79.2254 338.475 79.2833C338.475 79.2833 338.754 82.4609 337.643 83.2001C337.119 81.8145 336.162 80.8865 335.64 78.8833L334.28 78.3265C334.597 78.1559 334.856 77.8942 335.019 77.5751C335.186 77.2561 335.25 76.8945 335.208 76.5377C334.93 73.8241 335.64 70.9537 338.754 68.3617C343.845 64.1377 354.149 65.7409 354.827 72.7425C354.875 73.1294 355.035 73.4935 355.288 73.7921C355.695 74.2302 356.011 74.7447 356.219 75.3063C356.424 75.8676 356.517 76.4647 356.491 77.0625C356.475 77.7441 356.363 78.4199 356.152 79.0689C356.152 79.0689 355.752 80.5185 356.863 81.2897L356.511 81.5041Z" fill="#21252B"/>
<path d="M338.741 84.7422L338.866 82.0894C338.834 79.6542 335.842 79.5902 335.967 82.0286C336.091 84.467 338.495 84.6814 338.495 84.6814L338.741 84.7422Z" fill="#FC9D9D"/>
<path opacity="0.3" d="M338.123 82.2756C338.126 82.3281 338.11 82.3799 338.075 82.4203C338.04 82.4606 337.992 82.4868 337.941 82.4932C337.893 82.49 337.848 82.4695 337.813 82.4353C337.777 82.4014 337.758 82.3556 337.755 82.3076C337.752 82.091 337.723 81.8756 337.662 81.6676C337.611 81.5188 337.512 81.3902 337.384 81.2996C337.259 81.2356 337.137 81.2676 336.952 81.3604C336.936 81.3758 336.913 81.3844 336.891 81.3844C336.865 81.3844 336.843 81.3758 336.827 81.3604C336.798 81.3604 336.766 81.3284 336.737 81.2676C336.718 81.2228 336.718 81.1726 336.734 81.1271C336.75 81.0814 336.785 81.0436 336.827 81.0212C336.933 80.9591 337.054 80.9217 337.176 80.9111C337.297 80.9006 337.422 80.9175 337.537 80.9604C337.653 81.0202 337.752 81.1034 337.832 81.2042C337.912 81.305 337.969 81.4215 338.001 81.546C338.085 81.7799 338.126 82.027 338.123 82.2756Z" fill="black"/>
<path d="M338.242 83.738C338.258 83.6241 338.229 83.5085 338.162 83.4151C338.098 83.3217 337.995 83.2574 337.883 83.2356C337.678 83.2356 337.509 83.45 337.502 83.722C337.486 83.8356 337.515 83.9511 337.582 84.0446C337.65 84.1383 337.749 84.2026 337.861 84.2244C338.066 84.2276 338.235 84.01 338.242 83.738Z" fill="#FDD835"/>
<path opacity="0.15" d="M338.123 84.1282C338.094 84.1579 338.062 84.1813 338.027 84.1966C337.989 84.2123 337.947 84.2194 337.909 84.2178C337.691 84.2178 337.538 84.0034 337.538 83.725C337.534 83.6514 337.547 83.5781 337.573 83.5093C337.598 83.4405 337.64 83.3778 337.691 83.325C337.656 83.4142 337.637 83.508 337.63 83.6033C337.618 83.6622 337.621 83.7227 337.634 83.7813C337.646 83.8398 337.669 83.8952 337.704 83.9442C337.739 83.9931 337.784 84.0347 337.835 84.0664C337.886 84.0977 337.941 84.1189 338.002 84.1282H338.123Z" fill="black"/>
<path d="M351.205 84.7422L351.08 82.0894C351.112 79.6542 354.104 79.5902 353.979 82.0286C353.854 84.467 351.451 84.6814 351.451 84.6814L351.205 84.7422Z" fill="#FC9D9D"/>
<path opacity="0.3" d="M351.822 82.2753C351.819 82.3281 351.835 82.3796 351.87 82.4203C351.906 82.4606 351.954 82.4865 352.005 82.4929C352.053 82.49 352.098 82.4696 352.133 82.4353C352.168 82.4011 352.187 82.3556 352.19 82.3073C352.219 82.0916 352.261 81.8779 352.315 81.6673C352.328 81.5886 352.363 81.514 352.411 81.4504C352.459 81.3864 352.52 81.3345 352.594 81.2993C352.686 81.2353 352.84 81.2673 353.026 81.3601C353.042 81.3755 353.064 81.3841 353.086 81.3841C353.109 81.3841 353.131 81.3755 353.147 81.3601C353.179 81.3601 353.208 81.3281 353.24 81.2673C353.259 81.2222 353.259 81.1716 353.243 81.1259C353.224 81.0801 353.192 81.0424 353.147 81.0209C353.035 80.9592 352.91 80.9217 352.782 80.9112C352.658 80.9006 352.53 80.9172 352.408 80.9601C352.29 81.0187 352.184 81.1009 352.101 81.2017C352.014 81.3025 351.954 81.4196 351.915 81.5457C351.81 81.7736 351.778 82.0283 351.822 82.2753Z" fill="black"/>
<path d="M352.078 84.202C352.184 84.2302 352.293 84.2248 352.395 84.1867C352.494 84.1483 352.584 84.0792 352.641 83.9892C352.702 83.899 352.731 83.7921 352.728 83.6843C352.725 83.5761 352.686 83.4721 352.619 83.387C352.552 83.3019 352.459 83.2398 352.357 83.2097C352.251 83.1796 352.142 83.1828 352.04 83.2193C351.937 83.2558 351.851 83.323 351.787 83.4123C351.726 83.5013 351.694 83.6075 351.697 83.7156C351.704 83.9876 351.873 84.2052 352.078 84.202Z" fill="#FDD835"/>
<path opacity="0.15" d="M351.822 84.1282C351.851 84.1579 351.883 84.1813 351.918 84.1966C351.957 84.2123 351.998 84.2194 352.037 84.2178C352.254 84.2178 352.408 84.0034 352.408 83.725C352.411 83.6514 352.398 83.5781 352.373 83.5093C352.347 83.4405 352.305 83.3778 352.254 83.325C352.289 83.4142 352.309 83.508 352.315 83.6033C352.325 83.6622 352.325 83.7227 352.312 83.7813C352.299 83.8398 352.277 83.8952 352.241 83.9442C352.206 83.9931 352.161 84.0347 352.11 84.0664C352.059 84.0977 352.005 84.1189 351.944 84.1282H351.822Z" fill="black"/>
<path d="M346.545 87.4882C346.67 87.4882 346.699 87.581 346.67 87.6738C346.497 88.0373 346.225 88.3442 345.886 88.5592C345.547 88.7742 345.153 88.8885 344.75 88.8885C344.347 88.8885 343.953 88.7742 343.614 88.5592C343.275 88.3442 343.003 88.0373 342.83 87.6738C342.824 87.6533 342.82 87.6312 342.824 87.6094C342.824 87.5877 342.833 87.5669 342.846 87.549C342.856 87.5307 342.875 87.5157 342.894 87.5051C342.913 87.4946 342.932 87.4888 342.955 87.4882H346.545Z" fill="white"/>
<path d="M338.462 82.5213C338.417 82.9824 338.481 83.4474 338.645 83.88C338.811 84.3124 339.073 84.7005 339.416 85.0138C339.758 85.3268 340.168 85.5565 340.613 85.6842C341.057 85.8119 341.525 85.8346 341.982 85.7501C342.437 85.666 342.865 85.4769 343.237 85.1981C343.605 84.9191 343.905 84.5584 344.113 84.1437C344.318 83.729 344.427 83.2724 344.427 82.809C344.424 82.346 344.318 81.8893 344.11 81.4749C344.593 81.32 345.112 81.3303 345.589 81.5037C345.457 81.809 345.374 82.1328 345.342 82.4637C345.291 83.0525 345.413 83.6439 345.697 84.1626C345.982 84.681 346.414 85.1041 346.936 85.3773C347.461 85.6509 348.056 85.7626 348.641 85.6989C349.23 85.6349 349.787 85.3981 350.238 85.0183C350.693 84.6388 351.022 84.1332 351.189 83.5655C351.355 82.9981 351.349 82.394 351.169 81.8301C350.993 81.2663 350.651 80.7674 350.19 80.3972C349.729 80.0269 349.169 79.802 348.581 79.7501C348.03 79.6938 347.473 79.794 346.977 80.0391C346.481 80.2842 346.065 80.6644 345.774 81.1357C345.179 80.9133 344.526 80.9031 343.925 81.1069C343.675 80.7348 343.349 80.4221 342.965 80.1927C342.581 79.9629 342.149 79.8215 341.704 79.7789C341.31 79.7412 340.913 79.7828 340.536 79.9008C340.158 80.0192 339.806 80.2116 339.505 80.4673C339.205 80.7226 338.955 81.0362 338.776 81.3888C338.597 81.7418 338.491 82.1268 338.462 82.5213ZM345.681 82.4605C345.726 81.9447 345.925 81.4541 346.248 81.0506C346.574 80.6474 347.009 80.3492 347.505 80.1943C347.998 80.0391 348.529 80.0343 349.025 80.1799C349.521 80.3255 349.963 80.6151 350.296 81.0122C350.629 81.4093 350.837 81.896 350.891 82.4109C350.945 82.9258 350.849 83.4455 350.609 83.9044C350.369 84.3633 349.998 84.7405 349.544 84.9888C349.089 85.2372 348.571 85.345 348.056 85.2989C347.365 85.2356 346.728 84.9015 346.283 84.3696C345.838 83.8378 345.621 83.1514 345.681 82.4605ZM338.801 82.4925C338.846 81.977 339.045 81.4864 339.368 81.0829C339.694 80.6797 340.129 80.3815 340.625 80.2263C341.118 80.0711 341.646 80.0656 342.142 80.2112C342.641 80.3565 343.083 80.6458 343.416 81.0426C343.749 81.4394 343.953 81.9258 344.011 82.4407C344.065 82.9553 343.969 83.4749 343.729 83.9338C343.489 84.3927 343.121 84.7706 342.667 85.0192C342.213 85.2679 341.694 85.3764 341.179 85.3309C340.488 85.2676 339.851 84.9335 339.406 84.4016C338.958 83.8701 338.744 83.1837 338.801 82.4925Z" fill="white"/>
<path opacity="0.15" d="M347.748 92.1537C347.739 92.1226 347.72 92.0942 347.697 92.0705C347.675 92.0468 347.649 92.0282 347.617 92.0164C347.588 92.0046 347.553 91.9994 347.521 92.0017C347.489 92.0036 347.457 92.0129 347.428 92.0289C346.708 92.339 345.928 92.497 345.144 92.4929H344.958C344.036 92.4695 343.124 92.2708 342.276 91.9073C341.691 91.6292 341.153 91.2644 340.676 90.8257L340.356 93.0657C341.06 93.2615 341.787 93.3447 342.516 93.3121C343.118 93.2903 343.713 93.1658 344.273 92.9441C344.552 92.9809 344.83 93.001 345.108 93.0049C345.956 93.0106 346.795 92.843 347.576 92.5121C347.63 92.4708 347.678 92.4167 347.707 92.3543C347.736 92.2916 347.752 92.2228 347.748 92.1537Z" fill="black"/>
<path d="M364.747 100.106L354.187 98.0388C350.347 114.112 349.128 134.81 351.01 156.9C351.221 159.29 352.319 161.516 354.088 163.137C355.858 164.758 358.171 165.657 360.571 165.658H365.323C365.41 165.657 365.496 165.637 365.576 165.599C365.656 165.562 365.723 165.507 365.781 165.44C365.835 165.373 365.877 165.294 365.899 165.21C365.922 165.125 365.925 165.037 365.909 164.951C364.738 159.242 363.669 153.812 362.856 149.616C361.845 144.3 361.647 138.861 362.271 133.485L364.367 115.655L370.936 108.375C370.763 104.548 368.603 101.063 364.747 100.106Z" fill="#304FFE"/>
<path d="M328.763 100.045C324.968 101.248 323.087 104.579 323.119 108.56L324.719 111.12L326.386 128.519C327.023 135.191 326.949 141.912 326.168 148.57L324.319 164.269C324.299 164.45 324.315 164.634 324.373 164.807C324.427 164.981 324.517 165.142 324.639 165.279C324.757 165.415 324.907 165.525 325.071 165.602C325.237 165.678 325.416 165.719 325.599 165.722H330.811C332.936 165.709 334.971 164.864 336.482 163.369C337.992 161.874 338.856 159.847 338.891 157.722C339.323 129.712 337.103 104.384 335.56 98.1217L328.763 100.045Z" fill="#304FFE"/>
<path d="M355.586 130.614L355.554 137.309L343.714 135.459L340.261 135.779C338.437 135.963 336.594 135.816 334.821 135.347C334.68 135.302 334.559 135.217 334.466 135.104C334.373 134.991 334.312 134.853 334.296 134.707C334.293 134.602 334.312 134.498 334.351 134.401C334.392 134.304 334.45 134.216 334.527 134.144C334.603 134.071 334.693 134.015 334.792 133.979C334.888 133.943 334.994 133.929 335.099 133.936L335.419 133.965L334.987 133.936C334.779 133.91 334.584 133.812 334.44 133.66C334.293 133.508 334.203 133.311 334.187 133.101C334.178 132.979 334.191 132.856 334.229 132.74C334.267 132.624 334.328 132.517 334.408 132.425C334.488 132.333 334.587 132.258 334.696 132.205C334.805 132.152 334.927 132.121 335.048 132.115C334.795 132.124 334.549 132.036 334.36 131.869C334.171 131.703 334.053 131.47 334.031 131.219C334.005 130.983 334.069 130.745 334.213 130.556C334.357 130.367 334.568 130.239 334.802 130.201L335.122 130.141C335.122 130.141 334.968 130.173 334.751 130.201C334.651 130.224 334.549 130.224 334.447 130.203C334.347 130.182 334.255 130.14 334.171 130.079C334.091 130.018 334.021 129.941 333.973 129.852C333.925 129.762 333.893 129.663 333.887 129.561V129.529C333.871 129.355 333.922 129.18 334.031 129.042C334.139 128.904 334.299 128.814 334.472 128.79L339.842 127.926V127.587C339.829 126.615 339.912 125.644 340.088 124.688L340.117 124.595C340.191 124.236 340.376 123.911 340.648 123.666C340.92 123.422 341.266 123.272 341.631 123.238H341.752C341.775 123.233 341.797 123.234 341.819 123.239C341.842 123.245 341.864 123.255 341.883 123.27C341.899 123.285 341.915 123.303 341.925 123.325C341.935 123.346 341.938 123.369 341.938 123.392L342.031 125.395C342.04 125.786 342.152 126.169 342.351 126.505L344.047 129.561L355.586 130.614Z" fill="#FC9D9D"/>
<path d="M375.915 136.413C376.014 136.994 375.969 137.591 375.79 138.152C375.608 138.713 375.291 139.222 374.869 139.634C374.449 140.047 373.934 140.351 373.368 140.521C372.805 140.692 372.206 140.722 371.627 140.611L352.529 136.909L352.123 130.214L364.155 131.046L362.526 119.993L363.297 117.926C363.144 113.021 364.686 109.661 367.214 105.446L370.734 106.726L375.915 136.413Z" fill="#304FFE"/>
<path opacity="0.15" d="M352.501 136.013L352.562 136.909L371.643 140.612C372.168 140.712 372.706 140.696 373.224 140.564C373.743 140.433 374.223 140.189 374.635 139.85C375.048 139.511 375.381 139.086 375.611 138.605C375.839 138.123 375.96 137.596 375.963 137.063C375.608 137.775 375.032 138.351 374.319 138.702C373.605 139.053 372.795 139.16 372.015 139.005L352.501 136.013Z" fill="black"/>
<path opacity="0.15" d="M364.161 131.078L365.393 131.2C365.479 131.209 365.566 131.192 365.643 131.153C365.719 131.114 365.783 131.053 365.825 130.978C365.867 130.903 365.889 130.817 365.883 130.731C365.876 130.645 365.847 130.562 365.796 130.493L363.665 127.683L364.161 131.078Z" fill="black"/>
<path opacity="0.15" d="M333.835 129.443V129.472C333.845 129.574 333.873 129.672 333.921 129.761C333.973 129.85 334.04 129.928 334.123 129.989C334.203 130.049 334.296 130.092 334.398 130.113C334.497 130.134 334.6 130.134 334.699 130.112H334.763C334.533 130.158 334.325 130.286 334.184 130.474C334.043 130.662 333.973 130.895 333.992 131.13C334.014 131.381 334.133 131.614 334.321 131.782C334.51 131.948 334.757 132.036 335.009 132.026C334.888 132.033 334.769 132.065 334.661 132.119C334.552 132.173 334.453 132.247 334.373 132.339C334.293 132.43 334.232 132.537 334.193 132.653C334.152 132.768 334.136 132.89 334.145 133.011C334.158 133.223 334.248 133.422 334.395 133.575C334.542 133.727 334.737 133.822 334.949 133.843H335.07C334.965 133.829 334.856 133.838 334.753 133.872C334.651 133.905 334.558 133.961 334.481 134.035C334.405 134.109 334.344 134.2 334.309 134.3C334.27 134.4 334.257 134.508 334.267 134.614C334.27 134.765 334.321 134.91 334.417 135.027C334.513 135.143 334.645 135.223 334.792 135.254C335.195 135.347 335.595 135.44 335.995 135.501L335.595 134.73C335.534 134.627 335.502 134.51 335.502 134.39C335.502 134.271 335.534 134.154 335.595 134.051L335.749 133.805C335.813 133.696 335.845 133.571 335.838 133.446C335.832 133.319 335.793 133.198 335.72 133.094L335.656 132.97C335.579 132.862 335.537 132.733 335.537 132.6C335.537 132.468 335.579 132.339 335.656 132.23L335.749 132.109C335.825 132 335.867 131.871 335.867 131.738C335.867 131.605 335.825 131.475 335.749 131.366L335.627 131.181C335.563 131.093 335.525 130.99 335.512 130.882C335.502 130.774 335.518 130.666 335.563 130.566L335.72 130.224C335.761 130.125 335.777 130.016 335.768 129.909C335.755 129.801 335.717 129.698 335.656 129.61C335.592 129.51 335.553 129.394 335.55 129.274C335.544 129.155 335.569 129.037 335.627 128.931L335.781 128.653C335.809 128.592 335.841 128.56 335.841 128.499L334.485 128.714C334.312 128.749 334.155 128.839 334.04 128.971C333.921 129.102 333.851 129.268 333.835 129.443Z" fill="black"/>
<path opacity="0.15" d="M352.529 136.816L352.469 136.013L346.453 135.395C345.611 135.303 344.763 135.303 343.925 135.395L343.707 135.427" fill="black"/>
<path opacity="0.2" d="M350.402 129.875C350.398 129.936 350.421 129.996 350.462 130.041C350.501 130.087 350.558 130.116 350.619 130.122L362.587 130.986L362.648 130.522L350.648 129.658C350.587 129.656 350.526 129.677 350.482 129.718C350.437 129.758 350.408 129.815 350.402 129.875Z" fill="black"/>
<path opacity="0.2" d="M352.622 174.019L357.422 266.871L354.584 266.903L346.718 168.375C346.696 168.031 346.542 167.709 346.286 167.479C346.165 167.357 346.021 167.261 345.861 167.197C345.704 167.133 345.531 167.103 345.361 167.107C347.227 167.109 349.019 167.827 350.373 169.114C351.723 170.4 352.529 172.156 352.622 174.019Z" fill="black"/>
<path opacity="0.2" d="M325.598 165.722H329.611L331.399 149.248C331.655 142.275 331.265 135.294 330.225 128.394L329.239 121.853C329.223 121.722 329.169 121.6 329.083 121.502C328.993 121.404 328.878 121.335 328.75 121.305C328.622 121.275 328.487 121.285 328.366 121.334C328.244 121.383 328.139 121.468 328.068 121.578L326.02 126.144L326.369 128.487C327.009 135.159 326.935 141.88 326.155 148.538L324.305 164.24C324.286 164.424 324.305 164.609 324.363 164.784C324.417 164.96 324.51 165.122 324.631 165.261C324.753 165.4 324.9 165.512 325.067 165.592C325.233 165.671 325.412 165.715 325.598 165.722Z" fill="black"/>
<path d="M301.138 116.845L298.546 116.042C297.195 115.309 295.65 115.008 294.123 115.18C292.594 115.352 291.157 115.987 290.002 117.002C289.71 117.252 289.493 117.576 289.368 117.939C289.24 118.302 289.214 118.692 289.291 119.069L290.341 122.215C290.389 122.34 290.472 122.448 290.584 122.525C290.693 122.602 290.824 122.644 290.958 122.647C291.048 122.644 291.138 122.622 291.221 122.582C291.301 122.543 291.374 122.486 291.432 122.416C291.49 122.346 291.534 122.264 291.557 122.176C291.582 122.089 291.586 121.997 291.573 121.907L291.051 118.327L291.758 123.127C291.781 123.314 291.874 123.487 292.014 123.613C292.155 123.738 292.341 123.806 292.53 123.805C292.638 123.808 292.747 123.788 292.846 123.747C292.949 123.705 293.038 123.644 293.115 123.566C293.189 123.487 293.25 123.394 293.285 123.292C293.323 123.19 293.339 123.081 293.333 122.973L293.115 118.285C293.115 118.285 293.301 121.523 293.365 123.066C293.378 123.259 293.464 123.44 293.602 123.574C293.742 123.707 293.928 123.783 294.12 123.787C294.315 123.791 294.504 123.723 294.648 123.595C294.792 123.467 294.885 123.29 294.907 123.098L295.227 118.378C295.24 118.345 295.262 118.317 295.288 118.295C295.314 118.274 295.346 118.259 295.381 118.253C295.416 118.249 295.454 118.26 295.483 118.284C295.512 118.307 295.531 118.341 295.534 118.378L295.854 123.098C295.864 123.288 295.944 123.467 296.082 123.599C296.219 123.73 296.402 123.804 296.594 123.805C296.779 123.8 296.955 123.729 297.093 123.605C297.227 123.48 297.314 123.31 297.336 123.127L297.829 118.192H300.171C300.482 118.192 300.782 118.068 301 117.848C301.221 117.628 301.346 117.329 301.346 117.018C301.323 116.938 301.243 116.813 301.138 116.845Z" fill="#FC9D9D"/>
<g opacity="0.2">
<path opacity="0.2" d="M292.923 118.294L293.067 122.643H293.499L293.355 118.297L292.923 118.294Z" fill="black"/>
</g>
<g opacity="0.2">
<path opacity="0.2" d="M290.869 118.56L291.16 122.08L291.592 122.041L291.301 118.537L290.869 118.56Z" fill="black"/>
</g>
<path opacity="0.2" d="M297.899 117.306C297.902 117.226 297.931 117.148 297.979 117.083C298.024 117.018 298.091 116.967 298.165 116.938C298.238 116.909 298.321 116.902 298.401 116.918C298.478 116.933 298.552 116.972 298.609 117.028L299.841 118.202H297.806L297.899 117.306Z" fill="black"/>
<path opacity="0.15" d="M362.648 130.521L360.459 130.368L362.001 119.325C362.008 119.285 362.03 119.25 362.062 119.224C362.091 119.199 362.133 119.185 362.171 119.185C362.213 119.185 362.251 119.199 362.28 119.224C362.312 119.25 362.334 119.285 362.341 119.325L363.301 124.937L362.648 130.521Z" fill="black"/>
</svg>
