<svg width="420" height="320" viewBox="0 0 420 320" fill="none" xmlns="http://www.w3.org/2000/svg">
<path d="M70.5799 293.543L9.61989 227.539C8.18693 225.989 7.28933 224.02 7.05893 221.922C6.82853 219.823 7.27749 217.706 8.33989 215.882L87.0183 80.8418C88.0749 79.0293 89.5453 77.4927 91.3095 76.357C93.0737 75.2213 95.0813 74.5189 97.1687 74.3074L277.194 56.0674C279.044 55.8805 280.913 56.0834 282.679 56.6632C284.445 57.2431 286.071 58.1871 287.45 59.4338L408.218 168.554C409.687 169.881 410.724 171.62 411.191 173.544C411.658 175.468 411.537 177.488 410.839 179.341L367.86 293.543H70.5799Z" fill="#F7F7F7"/>
<path d="M191.7 159.085C191.7 159.085 194.666 159.492 208.289 159.21C211.975 161.45 227.949 160.026 234.247 159.431C241.527 160.781 245.127 157.255 241.892 155.351C240.897 154.762 239.249 154.33 236.858 154.241C237.015 146.663 218.273 144.177 213.05 155.233C210.289 152.993 204.522 153.201 204.141 156.231C198.81 155.252 194.599 156.356 192.669 157.511C191.645 158.119 191.265 158.743 191.7 159.085Z" fill="white"/>
<path opacity="0.08" d="M191.7 159.084C191.7 159.084 194.667 159.491 208.289 159.209C211.976 161.449 227.95 160.025 234.248 159.43C241.528 160.78 245.128 157.254 241.892 155.35C241.918 155.824 241.757 156.289 241.444 156.646C240.705 157.491 239.313 157.843 238.043 157.734C236.806 157.586 235.614 157.185 234.539 156.557C234.042 156.235 233.486 156.017 232.904 155.917C231.825 155.811 230.894 156.492 230.136 157.123C229.496 156.112 227.924 155.564 226.593 155.897C225.262 156.23 224.353 157.411 224.529 158.531C221.921 158.064 219.262 159.312 216.606 159.113C213.576 158.883 210.846 156.806 207.87 157.334C207.118 157.465 206.424 157.763 205.668 157.888C204.919 157.975 204.162 157.996 203.409 157.948C200.98 157.904 198.552 158.214 196.129 158.092C194.953 158.044 193.788 157.85 192.66 157.513C191.646 158.118 191.265 158.742 191.7 159.084Z" fill="#21252B"/>
<path d="M89.1204 271.604H156.724V139.677H89.1204V271.604Z" fill="#E6E6E6"/>
<path d="M101.411 271.604H156.723V139.677H101.411V271.604Z" fill="#F0F0F0"/>
<path d="M88.3269 141.83H158.177V139.676H88.3269V141.83Z" fill="#E0E0E0"/>
<path d="M88.3269 137.524H158.177V135.37H88.3269V137.524Z" fill="#E0E0E0"/>
<path d="M89.7996 139.678H156.728V137.524H89.7996V139.678Z" fill="#FFF9C4"/>
<path d="M141.089 157.834H151.476V147.447H141.089V157.834Z" fill="#E6E6E6"/>
<path d="M141.088 157.834H150.56V147.447H141.088V157.834Z" fill="#F5F5F5"/>
<path d="M125.351 157.834H135.742V147.447H125.351V157.834Z" fill="#E6E6E6"/>
<path d="M125.354 157.834H134.826V147.447H125.354V157.834Z" fill="#F5F5F5"/>
<path d="M109.62 157.834H120.011V147.447H109.62V157.834Z" fill="#E6E6E6"/>
<path d="M109.623 157.834H119.095V147.447H109.623V157.834Z" fill="#F5F5F5"/>
<path d="M141.089 173.13H151.476V162.743H141.089V173.13Z" fill="#E6E6E6"/>
<path d="M141.088 173.13H150.56V162.743H141.088V173.13Z" fill="#F5F5F5"/>
<path d="M125.351 173.13H135.742V162.743H125.351V173.13Z" fill="#E6E6E6"/>
<path d="M125.354 173.13H134.826V162.743H125.354V173.13Z" fill="#F5F5F5"/>
<path d="M109.62 173.13H120.011V162.743H109.62V173.13Z" fill="#E6E6E6"/>
<path d="M109.623 173.13H119.095V162.743H109.623V173.13Z" fill="#F5F5F5"/>
<path d="M141.089 201.147H151.476V190.756H141.089V201.147Z" fill="#E6E6E6"/>
<path d="M141.088 201.147H150.56V190.756H141.088V201.147Z" fill="#F5F5F5"/>
<path d="M125.351 201.147H135.742V190.756H125.351V201.147Z" fill="#E6E6E6"/>
<path d="M125.354 201.147H134.826V190.756H125.354V201.147Z" fill="#F5F5F5"/>
<path d="M109.62 201.147H120.011V190.756H109.62V201.147Z" fill="#E6E6E6"/>
<path d="M109.623 201.147H119.095V190.756H109.623V201.147Z" fill="#F5F5F5"/>
<path d="M141.089 216.441H151.476V206.051H141.089V216.441Z" fill="#E6E6E6"/>
<path d="M141.088 216.441H150.56V206.051H141.088V216.441Z" fill="#F5F5F5"/>
<path d="M125.351 216.441H135.742V206.051H125.351V216.441Z" fill="#E6E6E6"/>
<path d="M125.354 216.441H134.826V206.051H125.354V216.441Z" fill="#F5F5F5"/>
<path d="M109.62 216.441H120.011V206.051H109.62V216.441Z" fill="#E6E6E6"/>
<path d="M109.623 216.441H119.095V206.051H109.623V216.441Z" fill="#F5F5F5"/>
<path d="M141.089 247.575H151.476V237.185H141.089V247.575Z" fill="#E6E6E6"/>
<path d="M141.088 247.575H150.56V237.185H141.088V247.575Z" fill="#F5F5F5"/>
<path d="M125.351 247.575H135.742V237.185H125.351V247.575Z" fill="#E6E6E6"/>
<path d="M125.354 247.575H134.826V237.185H125.354V247.575Z" fill="#F5F5F5"/>
<path d="M109.62 247.575H120.011V237.185H109.62V247.575Z" fill="#E6E6E6"/>
<path d="M109.623 247.575H119.095V237.185H109.623V247.575Z" fill="#F5F5F5"/>
<path d="M141.089 262.874H151.476V252.483H141.089V262.874Z" fill="#E6E6E6"/>
<path d="M141.088 262.874H150.56V252.483H141.088V262.874Z" fill="#F5F5F5"/>
<path d="M125.351 262.874H135.742V252.483H125.351V262.874Z" fill="#E6E6E6"/>
<path d="M125.354 262.874H134.826V252.483H125.354V262.874Z" fill="#F5F5F5"/>
<path d="M109.62 262.874H120.011V252.483H109.62V262.874Z" fill="#E6E6E6"/>
<path d="M109.623 262.874H119.095V252.483H109.623V262.874Z" fill="#F5F5F5"/>
<path d="M89.1204 181.395H156.724V180.435H89.1204V181.395Z" fill="#E0E0E0"/>
<path d="M89.1204 229.28H156.724V228.32H89.1204V229.28Z" fill="#E0E0E0"/>
<path d="M282.148 178.346H235.392V292.119H282.148V178.346Z" fill="#E0E0E0"/>
<path d="M268.832 178.346H235.392V292.119H268.832V178.346Z" fill="#F0F0F0"/>
<path d="M251.284 187.696H238.84V193.738H251.284V187.696Z" fill="#E6E6E6"/>
<path d="M251.284 187.696H239.668V193.738H251.284V187.696Z" fill="#F5F5F5"/>
<path d="M265.677 187.696H253.232V193.738H265.677V187.696Z" fill="#E6E6E6"/>
<path d="M265.678 187.696H254.062V193.738H265.678V187.696Z" fill="#F5F5F5"/>
<path d="M251.284 199.066H238.84V205.108H251.284V199.066Z" fill="#E6E6E6"/>
<path d="M251.284 199.066H239.668V205.108H251.284V199.066Z" fill="#F5F5F5"/>
<path d="M265.677 199.066H253.232V205.108H265.677V199.066Z" fill="#E6E6E6"/>
<path d="M265.678 199.066H254.062V205.108H265.678V199.066Z" fill="#F5F5F5"/>
<path d="M251.284 213.6H238.84V219.642H251.284V213.6Z" fill="#E6E6E6"/>
<path d="M251.284 213.6H239.668V219.642H251.284V213.6Z" fill="#F5F5F5"/>
<path d="M265.677 213.6H253.232V219.642H265.677V213.6Z" fill="#E6E6E6"/>
<path d="M265.678 213.6H254.062V219.642H265.678V213.6Z" fill="#F5F5F5"/>
<path d="M251.284 221.949H238.84V227.991H251.284V221.949Z" fill="#E6E6E6"/>
<path d="M251.284 221.949H239.668V227.991H251.284V221.949Z" fill="#F5F5F5"/>
<path d="M265.677 221.949H253.232V227.991H265.677V221.949Z" fill="#E6E6E6"/>
<path d="M265.678 221.949H254.062V227.991H265.678V221.949Z" fill="#F5F5F5"/>
<path d="M251.284 235.668H238.84V241.709H251.284V235.668Z" fill="#E6E6E6"/>
<path d="M251.284 235.668H239.668V241.709H251.284V235.668Z" fill="#F5F5F5"/>
<path d="M265.677 235.668H253.232V241.709H265.677V235.668Z" fill="#E6E6E6"/>
<path d="M265.678 235.668H254.062V241.709H265.678V235.668Z" fill="#F5F5F5"/>
<path d="M251.284 244.019H238.84V250.06H251.284V244.019Z" fill="#E6E6E6"/>
<path d="M251.284 244.019H239.668V250.06H251.284V244.019Z" fill="#F5F5F5"/>
<path d="M265.677 244.019H253.232V250.06H265.677V244.019Z" fill="#E6E6E6"/>
<path d="M265.678 244.019H254.062V250.06H265.678V244.019Z" fill="#F5F5F5"/>
<path d="M251.284 258.948H238.84V264.989H251.284V258.948Z" fill="#E6E6E6"/>
<path d="M251.284 258.948H239.668V264.989H251.284V258.948Z" fill="#F5F5F5"/>
<path d="M265.677 258.948H253.232V264.989H265.677V258.948Z" fill="#E6E6E6"/>
<path d="M265.678 258.948H254.062V264.989H265.678V258.948Z" fill="#F5F5F5"/>
<path d="M251.284 269.975H238.84V276.017H251.284V269.975Z" fill="#E6E6E6"/>
<path d="M251.284 269.975H239.668V276.017H251.284V269.975Z" fill="#F5F5F5"/>
<path d="M265.677 269.975H253.232V276.017H265.677V269.975Z" fill="#E6E6E6"/>
<path d="M265.678 269.975H254.062V276.017H265.678V269.975Z" fill="#F5F5F5"/>
<path opacity="0.05" d="M282.148 208.833H235.392V209.873H282.148V208.833Z" fill="black"/>
<path opacity="0.05" d="M282.148 231.309H235.392V232.349H282.148V231.309Z" fill="black"/>
<path opacity="0.05" d="M282.148 253.984H235.392V255.024H282.148V253.984Z" fill="black"/>
<path d="M282.148 174.979H233.191V178.614H282.148V174.979Z" fill="#E0E0E0"/>
<path opacity="0.05" d="M282.148 174.979H270.96V178.614H282.148V174.979Z" fill="black"/>
<path d="M353.485 144.32V269.002L347.159 287.012H298.583V144.32H353.485Z" fill="#E6E6E6"/>
<path d="M333.162 144.32H278.257V287.015H333.162V144.32Z" fill="#F0F0F0"/>
<path d="M328.372 154.006H283.047V161.274H328.372V154.006Z" fill="#E6E6E6"/>
<path d="M328.371 154.006H284.807V161.274H328.371V154.006Z" fill="#F5F5F5"/>
<path d="M328.372 166.24H283.047V173.507H328.372V166.24Z" fill="#E6E6E6"/>
<path d="M328.371 166.24H284.807V173.507H328.371V166.24Z" fill="#F5F5F5"/>
<path d="M328.372 178.958H283.047V186.225H328.372V178.958Z" fill="#E6E6E6"/>
<path d="M328.371 178.958H284.807V186.225H328.371V178.958Z" fill="#F5F5F5"/>
<path d="M328.372 191.67H283.047V198.937H328.372V191.67Z" fill="#E6E6E6"/>
<path d="M328.371 191.67H284.807V198.937H328.371V191.67Z" fill="#F5F5F5"/>
<path d="M328.372 204.388H283.047V211.655H328.372V204.388Z" fill="#E6E6E6"/>
<path d="M328.371 204.388H284.807V211.655H328.371V204.388Z" fill="#F5F5F5"/>
<path d="M328.372 217.101H283.047V224.369H328.372V217.101Z" fill="#E6E6E6"/>
<path d="M328.371 217.101H284.807V224.369H328.371V217.101Z" fill="#F5F5F5"/>
<path d="M328.372 231.114H283.047V238.381H328.372V231.114Z" fill="#E6E6E6"/>
<path d="M328.371 231.114H284.807V238.381H328.371V231.114Z" fill="#F5F5F5"/>
<path d="M328.372 245.13H283.047V252.397H328.372V245.13Z" fill="#E6E6E6"/>
<path d="M328.371 245.13H284.807V252.397H328.371V245.13Z" fill="#F5F5F5"/>
<path d="M328.372 259.143H283.047V266.41H328.372V259.143Z" fill="#E6E6E6"/>
<path d="M328.371 259.143H284.807V266.41H328.371V259.143Z" fill="#F5F5F5"/>
<path d="M328.372 273.155H283.047V280.422H328.372V273.155Z" fill="#E6E6E6"/>
<path d="M328.371 273.155H284.807V280.422H328.371V273.155Z" fill="#F5F5F5"/>
<path d="M354.913 142.884H276.705V146.365H354.913V142.884Z" fill="#E0E0E0"/>
<path d="M354.913 136.602H276.705V140.083H354.913V136.602Z" fill="#E0E0E0"/>
<path d="M352.314 139.401H278.257V142.883H352.314V139.401Z" fill="#FFF9C4"/>
<path d="M353.486 154.004H338.187V161.274H353.486V154.004Z" fill="#E0E0E0"/>
<path d="M353.486 165.968H338.187V173.238H353.486V165.968Z" fill="#E0E0E0"/>
<path d="M353.486 177.933H338.187V185.203H353.486V177.933Z" fill="#E0E0E0"/>
<path d="M353.486 191.67H338.187V198.94H353.486V191.67Z" fill="#E0E0E0"/>
<path d="M353.486 204.384H338.187V211.654H353.486V204.384Z" fill="#E0E0E0"/>
<path d="M353.486 217.101H338.187V224.372H353.486V217.101Z" fill="#E0E0E0"/>
<path d="M353.486 231.114H338.187V238.384H353.486V231.114Z" fill="#E0E0E0"/>
<path d="M353.486 245.126H338.187V252.397H353.486V245.126Z" fill="#E0E0E0"/>
<path d="M353.486 259.139H338.187V266.409H353.486V259.139Z" fill="#E0E0E0"/>
<path d="M407.569 167.761L407.185 167.412C400.724 171.294 397.975 178.049 397.975 178.049C395.022 174.558 389.278 168.692 385.21 170.369C379.518 172.737 387.713 181.226 387.713 181.226C368.228 187.646 371.562 201.466 371.562 201.466C369.598 199.601 367.252 198.398 364.522 198.666C354.852 199.626 361.642 212.193 361.642 212.193C325.85 208.26 323.63 231.585 323.63 231.585C323.63 231.585 319.527 216.759 314.551 217.639C309.575 218.519 312.279 234.436 312.279 234.436C312.279 234.436 309.05 224.884 303.022 226.778C296.993 228.673 303.022 242.705 303.022 242.705C285.422 243.409 288.689 253.265 288.689 253.265C285.166 251.625 281.326 250.787 277.441 250.81C264.279 250.759 261.652 258.42 261.201 260.321L260.9 260.042C259.076 255.428 248.778 250.442 241.738 249.863C239.772 249.702 237.797 249.651 235.825 249.71C234.032 249.651 232.238 249.702 230.452 249.863C228.025 250.142 225.652 250.779 223.412 251.754C219.24 253.056 215.286 254.972 211.678 257.438C210.078 254.532 206.41 250.775 198.026 250.81C194.473 250.794 190.969 251.636 187.812 253.265C187.812 253.265 190.788 243.396 174.794 242.705C174.794 242.705 180.27 228.673 174.794 226.778C169.319 224.884 166.42 234.452 166.42 234.452C166.42 234.452 168.881 218.535 164.359 217.655C159.838 216.775 156.113 231.601 156.113 231.601C156.113 231.601 154.097 208.276 121.585 212.209C121.585 212.209 127.761 199.636 118.98 198.682C116.51 198.414 114.382 199.617 112.596 201.482C112.596 201.482 115.626 187.662 97.9272 181.242C97.9272 181.242 105.37 172.753 100.199 170.385C96.5064 168.692 91.2872 174.545 88.6056 178.065C88.6056 178.065 84.3464 168.538 75.076 165.172C43.54 153.703 45.46 202.663 45.46 202.663C14.1 199.143 5.69358 221.143 8.97998 226.663L39.38 259.655L69.94 292.743H367.22L410.19 178.548C410.887 176.695 411.009 174.674 410.542 172.751C410.074 170.827 409.038 169.088 407.569 167.761Z" fill="#D9DCDE"/>
<path d="M397.441 212.427C391.818 215.348 390.542 219.671 390.542 219.671C387.018 219.994 383.655 221.283 380.82 223.396C373.21 229.191 378.58 236.801 378.58 236.801C376.202 234.935 372.276 233.377 366.74 236.004C360.116 239.14 361.895 246.804 361.895 246.804C335.383 240.471 330.017 260.615 330.017 260.615C318.769 262.267 321.658 268.577 321.658 268.577C290.02 265.457 291.694 284.433 291.694 284.433C291.214 281.873 289.537 279.313 286.74 279.233C281.194 279.076 282.698 284.993 282.698 284.993C282.698 284.993 274.772 275.879 268.5 278.756C262.845 281.351 265.015 290.916 265.485 292.743H367.22L397.441 212.427Z" fill="#AFB3B8"/>
<path d="M69.9399 292.742H216.925C221.261 274.822 207.146 275.782 199.677 285.142C201.725 279.04 192.433 276.227 190.679 284.592C190.679 284.592 192.353 265.616 160.714 268.736C160.714 268.736 162.58 253.542 146.58 261.222C146.58 261.222 146.58 243.942 122.9 254.182C125.46 246.032 103.837 240.217 95.6999 246.502C100.647 239.942 102.74 220.582 81.2999 227.942C81.2999 227.942 78.1287 219.571 71.6999 217.702C65.6199 215.932 56.4519 220.512 49.9399 225.382C40.2407 210.812 22.5863 219.548 20.1799 229.222C18.0679 231.907 18.5607 233.9 18.3975 236.947L69.9399 292.742Z" fill="#AFB3B8"/>
<path d="M171.105 229.357C169.963 248.272 171.515 268.292 170.545 287.229L177.3 288.103L177.569 284.243L177.62 284.263C178.9 266.343 182.312 247.101 183.982 229.136L171.105 229.357Z" fill="#FC9D9D"/>
<path d="M178.088 278.627H170.824C170.776 281.507 170.692 284.387 170.545 287.229L173.691 287.635L177.355 287.315L177.569 284.234L177.62 284.253C177.755 282.39 177.918 280.512 178.094 278.624L178.088 278.627Z" fill="#FDD835"/>
<path d="M170.407 284.698L170.384 285.364C170.378 285.93 170.277 286.492 170.083 287.024L169.255 289.351C169.026 290.009 168.909 290.702 168.909 291.399V291.514C168.913 291.628 168.939 291.74 168.986 291.843C169.034 291.947 169.101 292.039 169.185 292.117C169.269 292.194 169.367 292.254 169.474 292.292C169.581 292.331 169.695 292.348 169.808 292.343H178.077C178.305 292.35 178.528 292.267 178.696 292.112C178.864 291.957 178.965 291.742 178.976 291.514V291.216C178.976 290.614 178.882 290.014 178.698 289.44L177.984 287.069C177.828 286.585 177.75 286.08 177.754 285.572V284.698C177.75 284.148 177.536 283.62 177.155 283.223L177.04 283.085C176.281 282.312 175.247 281.871 174.164 281.858C173.08 281.845 172.036 282.261 171.258 283.015L171.053 283.223C170.668 283.621 170.438 284.144 170.407 284.698Z" fill="#304FFE"/>
<path opacity="0.6" d="M168.909 290.87H178.954C178.972 290.984 178.98 291.1 178.976 291.216V291.513C178.973 291.627 178.946 291.739 178.899 291.843C178.852 291.946 178.784 292.039 178.7 292.116C178.616 292.193 178.519 292.253 178.411 292.292C178.304 292.331 178.191 292.348 178.077 292.342H169.808C169.58 292.349 169.358 292.266 169.19 292.111C169.021 291.957 168.921 291.742 168.909 291.513V290.873V290.87Z" fill="black"/>
<path d="M175.866 285.066C175.887 285.016 175.889 284.96 175.872 284.909C175.855 284.858 175.82 284.815 175.773 284.787C175.239 284.526 174.653 284.39 174.058 284.39C173.464 284.39 172.877 284.526 172.343 284.787C172.318 284.799 172.296 284.816 172.278 284.837C172.26 284.857 172.246 284.881 172.238 284.907C172.229 284.933 172.226 284.96 172.228 284.988C172.23 285.015 172.238 285.041 172.25 285.066C172.262 285.09 172.278 285.112 172.299 285.13C172.319 285.148 172.342 285.162 172.368 285.171C172.394 285.179 172.421 285.183 172.448 285.181C172.475 285.179 172.501 285.171 172.525 285.159C173 284.933 173.52 284.815 174.045 284.815C174.571 284.815 175.091 284.933 175.565 285.159C175.593 285.176 175.626 285.184 175.658 285.181C175.7 285.181 175.74 285.17 175.777 285.15C175.813 285.13 175.844 285.101 175.866 285.066Z" fill="white"/>
<path d="M175.866 286.125C175.887 286.076 175.888 286.021 175.871 285.97C175.854 285.92 175.819 285.877 175.773 285.85C175.24 285.587 174.653 285.45 174.058 285.45C173.463 285.45 172.876 285.587 172.343 285.85C172.294 285.874 172.257 285.917 172.24 285.969C172.222 286.02 172.226 286.076 172.25 286.125C172.274 286.174 172.317 286.211 172.368 286.229C172.42 286.246 172.477 286.242 172.525 286.218C173 285.991 173.519 285.873 174.045 285.873C174.571 285.873 175.091 285.991 175.565 286.218C175.593 286.235 175.625 286.243 175.658 286.241C175.7 286.24 175.741 286.23 175.777 286.21C175.813 286.189 175.844 286.161 175.866 286.125Z" fill="white"/>
<path d="M175.866 287.162C175.887 287.112 175.889 287.057 175.872 287.006C175.855 286.955 175.82 286.911 175.773 286.884C175.239 286.622 174.653 286.486 174.058 286.486C173.464 286.486 172.877 286.622 172.343 286.884C172.318 286.896 172.296 286.912 172.278 286.933C172.26 286.954 172.246 286.978 172.238 287.003C172.229 287.029 172.226 287.057 172.228 287.084C172.23 287.111 172.238 287.138 172.25 287.162C172.262 287.186 172.278 287.209 172.299 287.227C172.319 287.245 172.342 287.258 172.368 287.267C172.394 287.276 172.421 287.279 172.448 287.277C172.475 287.275 172.501 287.267 172.525 287.255C173 287.029 173.52 286.912 174.045 286.912C174.571 286.912 175.091 287.029 175.565 287.255C175.593 287.273 175.626 287.28 175.658 287.277C175.7 287.277 175.74 287.266 175.777 287.246C175.813 287.226 175.844 287.197 175.866 287.162Z" fill="white"/>
<path d="M209.939 287.904L204.499 283.818C204.065 283.482 203.706 283.057 203.448 282.572C203.19 282.087 203.038 281.553 203.002 281.005L203.859 242.662C203.859 242.454 203.859 242.25 203.84 242.042L202.88 229.062L189.44 230.567L191.92 245.478V245.798C191.625 252.112 192.087 258.439 193.296 264.643L193.501 265.706C194.208 269.415 195.034 274.371 195.587 278.938L196.301 287.562L209.939 287.904Z" fill="#FC9D9D"/>
<path d="M195.607 278.928L196.321 287.552L209.94 287.904L204.5 283.818C204.065 283.482 203.707 283.057 203.449 282.573C203.19 282.088 203.038 281.553 203.002 281.005L203.185 278.628L195.604 278.928" fill="#FDD835"/>
<path opacity="0.15" d="M196.82 282.663C196.951 284.189 199.088 285.165 200.525 285.741L202.58 286.557L196.324 287.242L195.684 279.639C195.133 274.88 194.26 269.6 193.514 265.696L193.309 264.634C192.1 258.43 191.638 252.103 191.933 245.789V245.469L190.42 234.983L192.98 234.663L194.26 245.223C194.26 245.223 193.3 257.383 195.373 266.864C195.373 266.864 196.205 274.544 196.653 279.639C196.724 280.458 196.781 281.21 196.826 281.85L196.82 282.663Z" fill="black"/>
<path d="M196.215 284.391L199.265 285.351C199.483 285.419 199.715 285.43 199.939 285.384C200.163 285.338 200.371 285.235 200.545 285.085L202.954 283.031C203.217 282.805 203.55 282.677 203.896 282.669C204.243 282.661 204.582 282.773 204.855 282.986L210.295 287.207L214.583 288.621C215.199 288.83 215.734 289.225 216.114 289.753C216.495 290.28 216.701 290.912 216.705 291.562C216.704 291.744 216.632 291.917 216.503 292.046C216.375 292.174 216.201 292.246 216.02 292.247H197.012C196.797 292.248 196.584 292.206 196.385 292.124C196.186 292.042 196.005 291.922 195.853 291.77C195.7 291.618 195.58 291.438 195.497 291.239C195.415 291.04 195.373 290.827 195.373 290.612V285.012C195.376 284.911 195.401 284.811 195.447 284.722C195.493 284.632 195.56 284.554 195.641 284.494C195.722 284.434 195.817 284.394 195.916 284.376C196.016 284.358 196.118 284.363 196.215 284.391Z" fill="#304FFE"/>
<path opacity="0.6" d="M195.396 290.868H216.615C216.679 291.09 216.71 291.321 216.705 291.552C216.704 291.734 216.632 291.907 216.503 292.036C216.375 292.164 216.202 292.236 216.02 292.237H197.012C196.624 292.236 196.249 292.099 195.954 291.848C195.658 291.597 195.461 291.25 195.396 290.868Z" fill="black"/>
<path d="M204.878 285.165L206.03 283.927C206.06 283.894 206.077 283.85 206.077 283.805C206.077 283.761 206.06 283.717 206.03 283.684C205.997 283.652 205.953 283.634 205.908 283.634C205.863 283.634 205.819 283.652 205.786 283.684L204.634 284.922C204.604 284.955 204.587 284.999 204.587 285.044C204.587 285.089 204.604 285.132 204.634 285.165C204.665 285.193 204.705 285.209 204.746 285.21C204.793 285.206 204.838 285.191 204.878 285.165Z" fill="white"/>
<path d="M205.78 285.863L206.929 284.625C206.961 284.592 206.979 284.549 206.979 284.503C206.979 284.457 206.961 284.414 206.929 284.381C206.896 284.351 206.852 284.334 206.807 284.334C206.762 284.334 206.719 284.351 206.685 284.381L205.536 285.62C205.504 285.652 205.487 285.696 205.487 285.741C205.487 285.787 205.504 285.831 205.536 285.863C205.566 285.891 205.605 285.907 205.645 285.908C205.693 285.903 205.739 285.888 205.78 285.863Z" fill="white"/>
<path d="M206.692 286.579L207.841 285.341C207.873 285.308 207.891 285.265 207.891 285.219C207.891 285.174 207.873 285.13 207.841 285.098C207.807 285.067 207.764 285.05 207.719 285.05C207.674 285.05 207.63 285.067 207.597 285.098L206.449 286.336C206.417 286.368 206.399 286.412 206.399 286.458C206.399 286.503 206.417 286.547 206.449 286.579C206.478 286.607 206.517 286.623 206.557 286.624C206.606 286.627 206.654 286.611 206.692 286.579Z" fill="white"/>
<path d="M184.522 235.623L169.93 235.6L170.772 216.186C170.858 214.213 170.795 212.236 170.583 210.272C170.158 206.288 170.263 202.663 170.484 198.336L170.9 196.263L199.809 199.347L203.761 233.533L189.242 235.037L186.26 215.463L184.522 235.623Z" fill="#21252B"/>
<g opacity="0.3">
<path opacity="0.3" d="M186.58 215.785L186.26 215.779L186.42 201.417H187.998V210.134L187.044 212.016L186.756 211.869L187.678 210.057V201.737H186.74L186.58 215.785Z" fill="black"/>
</g>
<path opacity="0.3" d="M172.548 235.623L173.271 221.991C173.381 220.046 173.381 218.095 173.271 216.151C172.976 211.223 173.146 206.278 173.78 201.383L170.26 198.823V203.303C170.116 205.463 170.317 206.944 170.436 209.107C170.832 212.577 170.939 216.074 170.756 219.562L169.94 235.623H172.548Z" fill="black"/>
<g opacity="0.3">
<path opacity="0.3" d="M199.729 206.782C196.692 203.998 195.847 200.062 195.838 200.039L196.158 199.975C196.158 200.014 196.993 203.815 199.953 206.545L199.729 206.782Z" fill="black"/>
</g>
<path opacity="0.3" d="M189.242 235.037L191.345 234.717L188.5 217.581C188.135 214.977 186.26 215.783 186.26 215.783L189.242 235.037Z" fill="black"/>
<path d="M166.049 175.642L166.369 172.595L169.031 182.397L169.991 201.578L178.551 202.157C185.953 202.702 193.388 201.73 200.401 199.302C199.799 186.371 197.521 169.078 197.521 169.078L196.724 163.75L206.964 158.63L202.804 148.966L198.209 150.016C196.078 150.285 190.987 151.258 190.987 151.258L182.519 151.632L171.876 151.152L160.516 155.213C156.788 157.075 156.788 162.403 156.788 162.403L155.774 174.563L166.049 175.642Z" fill="#304FFE"/>
<path d="M166.247 208.903L165.14 190.503L165.092 190.525L164.73 184.794L165.409 175.642L156.417 174.593L156.289 184.135C156.237 184.779 156.287 185.427 156.436 186.055L157.809 194.081L161.969 210.081L166.247 208.903Z" fill="#FC9D9D"/>
<path d="M217.969 148.026C214.148 142.157 196.75 133.588 196.75 133.588L193.3 136.423L206.974 148.026L202.814 148.986L206.974 158.65L215.156 154.567C219.71 152.295 217.969 148.026 217.969 148.026Z" fill="#FC9D9D"/>
<path d="M170.515 215.262L159.91 212.704C159.761 212.668 159.61 212.76 159.574 212.91L158.354 217.968C158.318 218.117 158.41 218.267 158.56 218.304L169.164 220.861C169.314 220.897 169.464 220.805 169.5 220.656L170.72 215.598C170.756 215.448 170.664 215.298 170.515 215.262Z" fill="#21252B"/>
<path opacity="0.3" d="M170.515 215.262L159.91 212.704C159.761 212.668 159.61 212.76 159.574 212.91L158.354 217.968C158.318 218.117 158.41 218.267 158.56 218.304L169.164 220.861C169.314 220.897 169.464 220.805 169.5 220.656L170.72 215.598C170.756 215.448 170.664 215.298 170.515 215.262Z" fill="black"/>
<path d="M170.152 215.168L159.547 212.61C159.398 212.574 159.247 212.666 159.212 212.816L157.991 217.874C157.956 218.023 158.047 218.174 158.197 218.21L168.802 220.768C168.951 220.804 169.101 220.712 169.138 220.562L170.357 215.504C170.394 215.354 170.301 215.204 170.152 215.168Z" fill="#21252B"/>
<path opacity="0.4" d="M169.431 216.167C169.499 216.103 169.541 216.017 169.551 215.925C169.56 215.832 169.536 215.74 169.482 215.664C169.455 215.629 169.421 215.6 169.383 215.579C169.344 215.558 169.301 215.545 169.257 215.541C169.214 215.537 169.169 215.543 169.128 215.557C169.086 215.57 169.048 215.593 169.015 215.623C168.946 215.686 168.904 215.772 168.895 215.864C168.886 215.957 168.912 216.05 168.967 216.125C168.994 216.159 169.027 216.188 169.066 216.208C169.104 216.229 169.146 216.242 169.19 216.246C169.233 216.25 169.277 216.245 169.319 216.231C169.36 216.217 169.398 216.195 169.431 216.167Z" fill="black"/>
<path d="M169.495 216.198C169.565 216.136 169.609 216.05 169.618 215.957C169.628 215.864 169.602 215.771 169.546 215.696C169.52 215.662 169.486 215.633 169.448 215.613C169.409 215.592 169.367 215.579 169.323 215.575C169.28 215.571 169.236 215.576 169.195 215.59C169.153 215.604 169.115 215.625 169.082 215.654C169.015 215.718 168.972 215.804 168.963 215.896C168.953 215.988 168.977 216.081 169.031 216.157C169.058 216.191 169.092 216.22 169.13 216.24C169.169 216.261 169.211 216.274 169.254 216.278C169.298 216.282 169.342 216.277 169.383 216.263C169.425 216.249 169.463 216.227 169.495 216.198Z" fill="#3F4249"/>
<path opacity="0.5" d="M169.428 216.102C169.47 216.061 169.496 216.006 169.501 215.948C169.506 215.889 169.491 215.83 169.457 215.782C169.44 215.757 169.417 215.736 169.39 215.72C169.364 215.705 169.334 215.695 169.304 215.692C169.273 215.69 169.243 215.694 169.213 215.704C169.185 215.715 169.159 215.732 169.137 215.754C169.095 215.795 169.069 215.85 169.064 215.908C169.059 215.967 169.075 216.025 169.108 216.074C169.125 216.099 169.148 216.12 169.175 216.136C169.201 216.151 169.231 216.161 169.261 216.164C169.292 216.166 169.323 216.162 169.352 216.152C169.38 216.141 169.407 216.124 169.428 216.102Z" fill="black"/>
<path opacity="0.4" d="M169.428 215.92C169.431 215.869 169.416 215.819 169.385 215.778C169.355 215.737 169.311 215.708 169.261 215.696H169.3C169.328 215.696 169.356 215.702 169.383 215.713C169.409 215.724 169.433 215.741 169.452 215.762C169.472 215.782 169.488 215.807 169.497 215.834C169.508 215.86 169.512 215.889 169.511 215.917C169.51 215.976 169.487 216.032 169.448 216.076C169.409 216.119 169.355 216.147 169.297 216.154H169.252C169.304 216.143 169.351 216.113 169.383 216.07C169.415 216.027 169.431 215.974 169.428 215.92Z" fill="black"/>
<path opacity="0.4" d="M169.431 216.167C169.499 216.103 169.541 216.017 169.551 215.925C169.56 215.832 169.536 215.74 169.482 215.664C169.455 215.629 169.421 215.6 169.383 215.579C169.344 215.558 169.301 215.545 169.257 215.541C169.214 215.537 169.169 215.543 169.128 215.557C169.086 215.57 169.048 215.593 169.015 215.623C168.946 215.686 168.904 215.772 168.895 215.864C168.886 215.957 168.912 216.05 168.967 216.125C168.994 216.159 169.027 216.188 169.066 216.208C169.104 216.229 169.146 216.242 169.19 216.246C169.233 216.25 169.277 216.245 169.319 216.231C169.36 216.217 169.398 216.195 169.431 216.167Z" fill="black"/>
<path d="M169.495 216.198C169.565 216.136 169.609 216.05 169.618 215.957C169.628 215.864 169.602 215.771 169.546 215.696C169.52 215.662 169.486 215.633 169.448 215.613C169.409 215.592 169.367 215.579 169.323 215.575C169.28 215.571 169.236 215.576 169.195 215.59C169.153 215.604 169.115 215.625 169.082 215.654C169.015 215.718 168.972 215.804 168.963 215.896C168.953 215.988 168.977 216.081 169.031 216.157C169.058 216.191 169.092 216.22 169.13 216.24C169.169 216.261 169.211 216.274 169.254 216.278C169.298 216.282 169.342 216.277 169.383 216.263C169.425 216.249 169.463 216.227 169.495 216.198Z" fill="#3F4249"/>
<path opacity="0.5" d="M169.428 216.102C169.47 216.061 169.496 216.006 169.501 215.948C169.506 215.889 169.491 215.83 169.457 215.782C169.44 215.757 169.417 215.736 169.39 215.72C169.364 215.705 169.334 215.695 169.304 215.692C169.273 215.69 169.243 215.694 169.213 215.704C169.185 215.715 169.159 215.732 169.137 215.754C169.095 215.795 169.069 215.85 169.064 215.908C169.059 215.967 169.075 216.025 169.108 216.074C169.125 216.099 169.148 216.12 169.175 216.136C169.201 216.151 169.231 216.161 169.261 216.164C169.292 216.166 169.323 216.162 169.352 216.152C169.38 216.141 169.407 216.124 169.428 216.102Z" fill="black"/>
<path opacity="0.4" d="M169.428 215.92C169.431 215.869 169.416 215.819 169.385 215.778C169.355 215.737 169.311 215.708 169.261 215.696H169.3C169.328 215.696 169.356 215.702 169.383 215.713C169.409 215.724 169.433 215.741 169.452 215.762C169.472 215.782 169.488 215.807 169.497 215.834C169.508 215.86 169.512 215.889 169.511 215.917C169.51 215.976 169.487 216.032 169.448 216.076C169.409 216.119 169.355 216.147 169.297 216.154H169.252C169.304 216.143 169.351 216.113 169.383 216.07C169.415 216.027 169.431 215.974 169.428 215.92Z" fill="black"/>
<g opacity="0.3">
<path opacity="0.3" d="M165.693 165.119C165.661 165.122 165.63 165.112 165.605 165.093C165.579 165.073 165.562 165.045 165.556 165.014C165.279 163.584 164.718 162.224 163.907 161.015C163.095 159.805 162.048 158.771 160.829 157.974C160.814 157.966 160.801 157.954 160.79 157.94C160.78 157.927 160.772 157.911 160.767 157.894C160.763 157.877 160.761 157.86 160.764 157.842C160.765 157.825 160.771 157.808 160.78 157.793C160.788 157.778 160.8 157.765 160.813 157.754C160.827 157.743 160.843 157.735 160.86 157.731C160.876 157.727 160.894 157.725 160.911 157.727C160.929 157.729 160.945 157.735 160.961 157.743C162.211 158.559 163.284 159.617 164.118 160.855C164.952 162.093 165.529 163.485 165.815 164.95C165.819 164.967 165.819 164.984 165.816 165.001C165.812 165.018 165.806 165.034 165.796 165.049C165.787 165.063 165.774 165.075 165.76 165.085C165.746 165.094 165.73 165.101 165.713 165.103L165.693 165.119Z" fill="black"/>
</g>
<path opacity="0.2" d="M170 201.577L174.372 201.933V201.293L172.56 183.648C172.432 182.413 172.096 181.209 171.568 180.086L166.74 167.078L165.674 164.681L165.914 165.523C166.432 167.782 166.752 170.982 166.554 172.653L166.72 173.555L169.063 182.397L170 201.577Z" fill="black"/>
<path d="M193.156 131.335L192.02 130.794L189.102 129.325L186.311 129.309C186.239 129.323 186.176 129.364 186.133 129.423C186.09 129.483 186.071 129.556 186.081 129.629C186.106 129.949 186.247 130.426 186.855 130.32L184.823 130.122C184.748 130.116 184.673 130.133 184.609 130.171C184.544 130.21 184.492 130.267 184.462 130.336L184.385 130.512C184.26 130.794 184.935 131.203 185.236 131.255L185.396 131.283L183.601 131.047C183.557 131.052 183.515 131.067 183.477 131.091C183.439 131.114 183.407 131.145 183.381 131.181C183.356 131.218 183.339 131.259 183.33 131.302C183.322 131.346 183.322 131.39 183.332 131.434C183.357 131.642 183.43 131.842 183.546 132.016C183.662 132.08 182.266 131.965 181.732 131.923C181.706 131.92 181.679 131.924 181.655 131.933C181.63 131.942 181.608 131.957 181.59 131.976C181.571 131.995 181.558 132.019 181.551 132.044C181.543 132.069 181.542 132.096 181.546 132.122C181.601 132.442 181.908 133.082 183.358 133.309C185.38 133.629 186.202 133.431 186.202 133.431L187.735 134.138L187.505 135.082L185.322 134.672L185.207 135.917C185.505 136.125 187.956 136.835 187.956 136.835C187.956 136.835 191.329 137.475 192.321 137.191C193.313 136.906 194.039 136.666 194.039 136.666L197.121 133.837L193.156 131.335Z" fill="#FC9D9D"/>
<path opacity="0.15" d="M188.071 133.818C188.071 133.818 189.991 133.104 190.973 131.978" stroke="black" stroke-width="0.6" stroke-miterlimit="10" stroke-linecap="round"/>
<path opacity="0.15" d="M185.437 134.771L188.506 135.36C188.506 135.36 190.106 134.115 191.488 134.698" stroke="black" stroke-width="0.6" stroke-miterlimit="10" stroke-linecap="round"/>
<path opacity="0.15" d="M183.7 132.186C183.7 132.186 185.818 132.506 186.737 132.086C186.737 132.086 187.086 132.726 188.228 132.886" stroke="black" stroke-width="0.6" stroke-miterlimit="10" stroke-linecap="round"/>
<path opacity="0.15" d="M185.399 131.27C186.131 131.335 186.868 131.335 187.601 131.27C188.014 131.765 188.575 132.114 189.201 132.265" stroke="black" stroke-width="0.6" stroke-miterlimit="10" stroke-linecap="round"/>
<path opacity="0.15" d="M186.609 130.365C187.252 130.502 187.915 130.509 188.561 130.384L189.809 131.248" stroke="black" stroke-width="0.6" stroke-miterlimit="10" stroke-linecap="round"/>
<path opacity="0.15" d="M187.86 129.401C187.85 130.692 187.708 131.979 187.438 133.241L187.294 133.907L186.209 133.408L186.228 129.433L187.86 129.401Z" fill="black"/>
<path opacity="0.15" d="M187.54 135.143V136.743L185.892 136.18L186.132 134.81L187.54 135.143Z" fill="black"/>
<path opacity="0.15" d="M217.939 148.045C218.317 151.623 210.925 154.56 210.925 154.56L206 156.403L206.96 158.643L215.143 154.56C219.539 152.381 218.067 148.355 217.939 148.045Z" fill="black"/>
<path opacity="0.2" d="M206.973 158.644L196.749 163.751L195.655 160.282L206.01 156.404L206.973 158.644Z" fill="black"/>
<g opacity="0.3">
<path opacity="0.3" d="M196.75 163.882C196.721 163.883 196.693 163.874 196.67 163.857C196.647 163.841 196.63 163.817 196.622 163.79C196.622 163.738 195.153 158.858 194.631 157.815C194.615 157.783 194.613 157.747 194.624 157.713C194.636 157.68 194.66 157.652 194.692 157.636C194.707 157.628 194.724 157.624 194.742 157.623C194.759 157.622 194.776 157.624 194.792 157.63C194.809 157.635 194.824 157.644 194.837 157.656C194.85 157.667 194.86 157.681 194.868 157.697C195.402 158.759 196.817 163.511 196.874 163.713C196.884 163.747 196.88 163.783 196.864 163.814C196.847 163.846 196.818 163.869 196.785 163.879L196.75 163.882Z" fill="black"/>
</g>
<g opacity="0.3">
<path opacity="0.3" d="M183.082 189.623C183.053 189.622 183.025 189.612 183.002 189.594C182.979 189.576 182.962 189.552 182.954 189.524C182.95 189.507 182.948 189.489 182.951 189.472C182.953 189.454 182.959 189.437 182.967 189.422C182.976 189.407 182.988 189.393 183.003 189.383C183.017 189.372 183.033 189.365 183.05 189.361C183.105 189.361 188.609 187.818 191.191 183.066C191.198 183.048 191.208 183.032 191.222 183.019C191.236 183.005 191.252 182.995 191.27 182.988C191.288 182.982 191.307 182.979 191.327 182.98C191.346 182.982 191.364 182.987 191.381 182.997C191.398 183.006 191.413 183.018 191.424 183.034C191.436 183.049 191.444 183.067 191.448 183.086C191.452 183.104 191.452 183.124 191.448 183.143C191.444 183.161 191.436 183.179 191.425 183.194C188.785 188.049 183.175 189.594 183.105 189.617L183.082 189.623Z" fill="black"/>
</g>
<g opacity="0.15">
<path opacity="0.15" d="M163.287 184.928C163.261 184.928 163.236 184.896 163.226 184.844C163.217 184.815 163.216 184.784 163.222 184.754C163.228 184.724 163.242 184.696 163.261 184.672C163.745 184.262 164.724 184.646 164.765 184.672C164.807 184.697 164.826 184.758 164.82 184.828C164.813 184.899 164.778 184.947 164.74 184.934C164.701 184.921 163.757 184.547 163.313 184.934C163.304 184.935 163.294 184.933 163.287 184.928Z" fill="black"/>
</g>
<path d="M166.148 208.784L168.113 212.138L169.338 215.018L167.486 214.554C167.486 214.554 167.38 218.022 166.382 218.454C166.081 218.586 165.178 218.246 165.271 217.517C165.139 217.642 164.98 217.736 164.807 217.791C164.633 217.846 164.45 217.862 164.27 217.837C163.713 217.722 163.578 217.36 163.63 216.669C163.63 216.669 163.367 217.194 162.593 216.867C162.126 216.669 162.244 215.965 162.244 215.965C162.244 215.965 161.399 216.038 161.284 215.6C161.162 214.884 161.146 214.154 161.239 213.434L161.745 211.008L161.934 209.44L166.148 208.784Z" fill="#FC9D9D"/>
<path opacity="0.15" d="M162.26 215.978C162.403 215.493 162.496 214.995 162.535 214.49" stroke="black" stroke-width="0.61" stroke-miterlimit="10" stroke-linecap="round"/>
<path opacity="0.15" d="M163.614 216.643C163.795 216.074 163.913 215.487 163.966 214.893" stroke="black" stroke-width="0.61" stroke-miterlimit="10" stroke-linecap="round"/>
<path opacity="0.15" d="M165.271 217.52C165.472 216.804 165.611 216.072 165.687 215.332" stroke="black" stroke-width="0.61" stroke-miterlimit="10" stroke-linecap="round"/>
<path opacity="0.15" d="M159.441 193.703L157.681 185.255L157.758 174.8L156.417 174.599L156.289 184.141C156.237 184.785 156.287 185.433 156.436 186.061L157.809 194.087L161.886 209.882L161.3 213.223L161.198 213.885L161.233 215.146C161.268 216.045 161.626 215.924 161.626 215.924V213.645L162.529 209.703L159.441 193.703Z" fill="black"/>
<path opacity="0.2" d="M155.777 174.592L156.791 162.432C156.791 162.432 156.791 157.104 160.519 155.242L160.961 155.104C158.871 156.963 158.788 160.17 158.788 160.17L157.757 174.81L155.777 174.592Z" fill="black"/>
<path d="M170.996 134.867L172.558 143.35L172.276 151.232L176.702 152.896C178.162 153.443 179.694 153.779 181.249 153.894H181.483C181.7 153.908 181.918 153.874 182.121 153.794C182.324 153.714 182.506 153.59 182.655 153.431C182.804 153.271 182.916 153.081 182.983 152.873C183.049 152.666 183.069 152.446 183.041 152.23L182.42 147.085L184.98 147.005C185.068 147.009 185.155 147.009 185.243 147.005C186.891 146.912 187.819 146.627 187.828 143.942L187.646 140.72L188.568 140.112C188.586 140.102 188.604 140.089 188.619 140.073C188.736 139.975 188.811 139.836 188.828 139.684C188.846 139.532 188.804 139.379 188.712 139.257L186.82 136.969L186.772 136.8L186.817 136.413C186.992 134.785 186.722 133.14 186.036 131.654L185.358 130.201L170.996 134.867Z" fill="#FC9D9D"/>
<path d="M185.472 132.262L181.693 133.002C179.901 134.282 182.695 136.218 178.362 137.142C178.282 137.638 178.925 139.584 178.093 139.702C177.453 139.859 177.389 138.989 177.296 138.557L174.903 139.35C175.274 142.355 174.199 143.165 172.57 143.83C170.163 139.811 164.938 130.976 172.01 129.45C172.698 129.488 172.938 128.714 173.13 128.455C173.77 126.749 176.768 125.629 178.813 126.378C179.516 126.826 180.318 127.095 181.148 127.161C181.979 127.227 182.813 127.089 183.578 126.758C187.456 125.28 189.587 131.046 185.472 132.262Z" fill="black"/>
<path d="M178.18 142.673L177.351 138.708C177.31 138.5 177.228 138.303 177.11 138.127C176.992 137.951 176.84 137.8 176.663 137.683C176.486 137.567 176.288 137.486 176.08 137.447C175.872 137.407 175.658 137.41 175.451 137.454C175.035 137.549 174.673 137.804 174.442 138.163C174.211 138.521 174.13 138.956 174.215 139.374L174.379 140.158C174.461 140.573 174.626 140.968 174.862 141.319C175.099 141.671 175.402 141.971 175.756 142.204C176.109 142.438 176.506 142.598 176.922 142.677C177.338 142.755 177.766 142.751 178.18 142.663V142.673Z" fill="#FC9D9D"/>
<g opacity="0.3">
<path opacity="0.3" d="M176.932 139.673L176.794 139.014C176.736 138.739 176.572 138.497 176.337 138.342C176.102 138.187 175.816 138.131 175.54 138.185C175.387 138.215 175.243 138.279 175.118 138.371C174.993 138.464 174.89 138.583 174.817 138.72V138.749C174.803 138.778 174.795 138.809 174.794 138.841C174.793 138.873 174.798 138.905 174.809 138.935C174.82 138.965 174.838 138.992 174.86 139.015C174.882 139.038 174.909 139.056 174.938 139.069C174.967 139.083 174.998 139.092 175.031 139.094C175.063 139.096 175.095 139.091 175.125 139.079C175.155 139.068 175.183 139.05 175.206 139.027C175.229 139.005 175.246 138.977 175.258 138.947C175.293 138.865 175.348 138.793 175.418 138.737C175.488 138.681 175.57 138.644 175.658 138.627C175.736 138.611 175.817 138.61 175.895 138.625C175.973 138.64 176.048 138.67 176.114 138.713C176.181 138.757 176.238 138.814 176.283 138.88C176.328 138.945 176.359 139.02 176.375 139.097L176.513 139.76C176.529 139.821 176.568 139.874 176.621 139.909C176.674 139.944 176.738 139.958 176.801 139.949C176.829 139.942 176.856 139.929 176.879 139.911C176.901 139.892 176.92 139.869 176.932 139.843C176.945 139.816 176.951 139.787 176.951 139.758C176.951 139.729 176.945 139.7 176.932 139.673Z" fill="#21252B"/>
</g>
<path opacity="0.15" d="M182.768 149.273L180.228 147.571C180.177 147.529 180.139 147.475 180.115 147.414C180.091 147.353 180.082 147.287 180.09 147.222C180.101 147.121 180.152 147.027 180.232 146.963C180.312 146.899 180.414 146.869 180.516 146.88L182.407 147.059L182.768 149.273Z" fill="black"/>
<path d="M182.382 147.146L180.516 146.88C177.278 146.774 177.351 138.707 177.351 138.707L178.475 138.246C178.67 141.68 179.863 143.168 179.863 143.168C181.303 145.123 182.743 144.694 183.668 144.026C184.222 143.622 184.644 142.765 184.919 142.131C185.745 140.211 187.655 141.027 187.655 141.027L187.819 143.939C187.819 146.624 186.881 146.909 185.233 147.002C185.145 147.006 185.058 147.006 184.971 147.002" fill="black"/>
<path opacity="0.15" d="M173.838 143.171L176.023 142.384C175.643 142.127 175.299 141.822 174.999 141.475C174.929 141.821 174.791 142.15 174.591 142.441C174.391 142.733 174.135 142.981 173.838 143.171Z" fill="black"/>
<path d="M184.74 137.548C185.067 137.488 185.279 137.143 185.211 136.778C185.144 136.412 184.825 136.165 184.497 136.225C184.17 136.285 183.959 136.63 184.026 136.995C184.093 137.361 184.413 137.608 184.74 137.548Z" fill="black"/>
<path d="M185.77 137.105C185.82 137.105 185.86 137.063 185.86 137.012C185.86 136.961 185.82 136.919 185.77 136.919C185.721 136.919 185.68 136.961 185.68 137.012C185.68 137.063 185.721 137.105 185.77 137.105Z" fill="white"/>
<path d="M187.783 142.797C187.265 142.776 186.747 142.835 186.247 142.97C186.22 142.979 186.191 142.978 186.164 142.967C186.138 142.957 186.115 142.938 186.101 142.913C186.087 142.889 186.082 142.86 186.086 142.832C186.09 142.804 186.104 142.778 186.125 142.759C186.571 142.309 187.134 141.994 187.751 141.85L187.783 142.797Z" fill="white"/>
<path d="M186.446 135.011C186.411 135.149 185.806 135.2 185.092 135.399C184.379 135.597 183.844 135.856 183.729 135.76C183.678 135.712 183.755 135.571 183.966 135.405C184.252 135.187 184.578 135.027 184.926 134.935C185.282 134.834 185.654 134.799 186.023 134.832C186.311 134.867 186.462 134.944 186.446 135.011Z" fill="black"/>
<path opacity="0.15" d="M206.973 148.026C206.973 148.026 208.66 149.543 209.94 150.183" stroke="black" stroke-miterlimit="10" stroke-linecap="round"/>
<path opacity="0.2" d="M175.885 244.237C175.885 244.237 178.093 244.196 178.977 243.428" stroke="black" stroke-miterlimit="10"/>
<path opacity="0.2" d="M201.006 244.154C201.006 244.154 203.018 244.196 203.441 243.748" stroke="black" stroke-miterlimit="10"/>
<path opacity="0.15" d="M170.676 284.202L172.151 282.352L172.228 246.627L172.548 235.623L170.833 235.383C170.299 251.472 171.278 268.176 170.676 284.202Z" fill="black"/>
<g opacity="0.3">
<path opacity="0.3" d="M171.61 208.714L171.514 208.394C175.265 207.232 176.199 202.381 176.206 202.333L176.526 202.39C176.513 202.454 175.546 207.491 171.61 208.714Z" fill="black"/>
</g>
<path d="M308.298 287.108C308.298 287.108 308.026 279.469 312.254 277.149C316.481 274.829 347.454 273.604 347.454 273.604L362.58 284.109L361.78 292.209H308.292L308.298 287.108Z" fill="#3F4249"/>
<path d="M286.784 292.209C286.784 292.209 286.727 291.889 291.479 286.817C296.231 281.745 316.493 283.079 318.407 283.297C320.32 283.514 322.707 292.222 322.707 292.222L286.784 292.209Z" fill="#868A91"/>
<path d="M146.848 254.484H148.992V218.465H146.848V254.484Z" fill="#B2B6BB"/>
<path d="M130.122 254.484H132.266V218.465H130.122V254.484Z" fill="#B2B6BB"/>
<path opacity="0.2" d="M146.849 218.467H148.993V222.182L146.849 221.949V218.467ZM130.126 221.43L132.27 221.664V218.464H130.126V221.43Z" fill="black"/>
<path d="M130.18 215.783H148.935C149.216 215.786 149.485 215.901 149.681 216.102C149.878 216.303 149.987 216.573 149.985 216.855V218.343C149.987 218.624 149.878 218.895 149.681 219.096C149.485 219.297 149.216 219.411 148.935 219.415H145.735C144.719 219.426 143.718 219.167 142.836 218.663C141.823 218.137 140.699 217.863 139.558 217.863C138.416 217.863 137.292 218.137 136.279 218.663C135.389 219.16 134.383 219.409 133.364 219.386H130.164C130.025 219.384 129.887 219.355 129.759 219.3C129.632 219.246 129.516 219.166 129.419 219.067C129.321 218.967 129.245 218.849 129.193 218.72C129.142 218.591 129.116 218.453 129.118 218.314V216.842C129.118 216.702 129.145 216.564 129.198 216.436C129.252 216.307 129.33 216.19 129.429 216.092C129.527 215.993 129.645 215.916 129.773 215.862C129.902 215.809 130.04 215.782 130.18 215.783Z" fill="#21252B"/>
<path d="M126.833 288.404H151.281C152.267 288.404 153.066 287.604 153.066 286.618V242.497C153.066 241.511 152.267 240.711 151.281 240.711H126.833C125.846 240.711 125.047 241.511 125.047 242.497V286.618C125.047 287.604 125.846 288.404 126.833 288.404Z" fill="#304FFE"/>
<path opacity="0.2" d="M126.833 288.404H151.281C152.267 288.404 153.066 287.604 153.066 286.618V242.497C153.066 241.511 152.267 240.711 151.281 240.711H126.833C125.846 240.711 125.047 241.511 125.047 242.497V286.618C125.047 287.604 125.846 288.404 126.833 288.404Z" fill="black"/>
<path d="M148.532 240.71V288.403" stroke="#4D61FC" stroke-width="1.42" stroke-miterlimit="10"/>
<path d="M116.874 288.404H141.322C142.308 288.404 143.108 287.604 143.108 286.618V242.497C143.108 241.511 142.308 240.711 141.322 240.711H116.874C115.888 240.711 115.089 241.511 115.089 242.497V286.618C115.089 287.604 115.888 288.404 116.874 288.404Z" fill="#304FFE"/>
<path d="M148.436 240.71H147.982V288.403H148.436V240.71Z" fill="#21252B"/>
<path d="M146.375 255.126H150.039V253.491H146.375V255.126Z" fill="#FDD835"/>
<path d="M146.375 275.622H150.039V273.987H146.375V275.622Z" fill="#FDD835"/>
<g opacity="0.3">
<path opacity="0.3" d="M138.113 284.634C138.358 284.634 138.593 284.537 138.767 284.363C138.94 284.19 139.038 283.955 139.038 283.709V245.898C139.038 245.777 139.015 245.656 138.968 245.543C138.922 245.431 138.854 245.328 138.768 245.242C138.682 245.156 138.58 245.088 138.468 245.041C138.355 244.994 138.235 244.97 138.113 244.97C137.991 244.97 137.871 244.994 137.758 245.041C137.646 245.088 137.544 245.156 137.458 245.242C137.372 245.328 137.304 245.431 137.258 245.543C137.211 245.656 137.188 245.777 137.188 245.898V283.709C137.188 283.955 137.286 284.19 137.459 284.363C137.632 284.537 137.868 284.634 138.113 284.634Z" fill="black"/>
<path opacity="0.3" d="M132.104 284.634C132.349 284.634 132.584 284.537 132.758 284.363C132.931 284.19 133.028 283.955 133.028 283.709V245.898C133.029 245.777 133.005 245.656 132.959 245.543C132.912 245.431 132.845 245.328 132.759 245.242C132.673 245.156 132.571 245.088 132.458 245.041C132.346 244.994 132.225 244.97 132.104 244.97C131.982 244.97 131.861 244.994 131.749 245.041C131.637 245.088 131.534 245.156 131.448 245.242C131.363 245.328 131.295 245.431 131.248 245.543C131.202 245.656 131.178 245.777 131.179 245.898V283.709C131.179 283.955 131.276 284.19 131.45 284.363C131.623 284.537 131.858 284.634 132.104 284.634Z" fill="black"/>
<path opacity="0.3" d="M126.1 284.634C126.346 284.634 126.581 284.537 126.754 284.363C126.928 284.19 127.025 283.955 127.025 283.709V245.898C127.026 245.777 127.002 245.656 126.956 245.543C126.91 245.431 126.841 245.328 126.755 245.242C126.67 245.156 126.568 245.088 126.455 245.041C126.343 244.994 126.222 244.97 126.1 244.97C125.979 244.97 125.858 244.994 125.746 245.041C125.633 245.088 125.531 245.156 125.445 245.242C125.36 245.328 125.291 245.431 125.245 245.543C125.199 245.656 125.175 245.777 125.176 245.898V283.709C125.176 283.955 125.273 284.19 125.447 284.363C125.62 284.537 125.855 284.634 126.1 284.634Z" fill="black"/>
<path opacity="0.3" d="M120.084 284.634C120.206 284.634 120.326 284.61 120.438 284.564C120.55 284.517 120.652 284.449 120.738 284.363C120.824 284.277 120.892 284.176 120.939 284.063C120.985 283.951 121.009 283.831 121.009 283.709V245.898C121.009 245.777 120.986 245.656 120.939 245.543C120.893 245.431 120.825 245.328 120.739 245.242C120.653 245.156 120.551 245.088 120.439 245.041C120.326 244.994 120.206 244.97 120.084 244.97C119.962 244.97 119.842 244.994 119.729 245.041C119.617 245.088 119.515 245.156 119.429 245.242C119.343 245.328 119.275 245.431 119.229 245.543C119.182 245.656 119.159 245.777 119.159 245.898V283.709C119.159 283.955 119.257 284.19 119.43 284.363C119.604 284.537 119.839 284.634 120.084 284.634Z" fill="black"/>
</g>
<path d="M128.03 292.416C129.081 292.416 129.934 291.563 129.934 290.512C129.934 289.46 129.081 288.608 128.03 288.608C126.978 288.608 126.126 289.46 126.126 290.512C126.126 291.563 126.978 292.416 128.03 292.416Z" fill="#3F4249"/>
<path d="M116.731 290.512C116.731 290.888 116.842 291.257 117.052 291.57C117.261 291.883 117.559 292.127 117.907 292.271C118.255 292.415 118.638 292.452 119.007 292.379C119.377 292.305 119.716 292.124 119.982 291.857C120.248 291.59 120.429 291.251 120.503 290.881C120.576 290.512 120.537 290.129 120.393 289.781C120.248 289.433 120.004 289.136 119.69 288.927C119.376 288.718 119.008 288.607 118.632 288.608C118.382 288.608 118.134 288.657 117.903 288.753C117.672 288.848 117.463 288.989 117.286 289.165C117.11 289.342 116.97 289.552 116.874 289.783C116.779 290.014 116.73 290.262 116.731 290.512Z" fill="#3F4249"/>
<path d="M118.635 289.571H149.435V288.327H118.635V289.571Z" fill="#21252B"/>
<path d="M147.511 290.511C147.511 290.887 147.622 291.255 147.831 291.568C148.039 291.88 148.336 292.125 148.683 292.269C149.03 292.414 149.412 292.452 149.781 292.38C150.149 292.308 150.489 292.128 150.756 291.863C151.023 291.599 151.205 291.261 151.281 290.893C151.356 290.525 151.32 290.142 151.179 289.794C151.037 289.446 150.795 289.147 150.484 288.936C150.173 288.725 149.807 288.611 149.431 288.607C149.18 288.606 148.931 288.653 148.698 288.748C148.465 288.843 148.253 288.983 148.075 289.159C147.896 289.336 147.754 289.547 147.658 289.779C147.561 290.011 147.511 290.26 147.511 290.511Z" fill="#3F4249"/>
<path d="M140.017 292.416C141.068 292.416 141.921 291.563 141.921 290.512C141.921 289.46 141.068 288.608 140.017 288.608C138.965 288.608 138.113 289.46 138.113 290.512C138.113 291.563 138.965 292.416 140.017 292.416Z" fill="#3F4249"/>
<path d="M140.017 291.251C140.425 291.251 140.756 290.92 140.756 290.512C140.756 290.104 140.425 289.773 140.017 289.773C139.608 289.773 139.278 290.104 139.278 290.512C139.278 290.92 139.608 291.251 140.017 291.251Z" fill="#868A91"/>
<path d="M148.676 290.512C148.676 290.658 148.719 290.801 148.8 290.922C148.882 291.044 148.997 291.139 149.132 291.195C149.267 291.251 149.416 291.266 149.559 291.237C149.703 291.208 149.834 291.138 149.938 291.034C150.041 290.931 150.112 290.8 150.14 290.656C150.169 290.513 150.154 290.364 150.098 290.229C150.042 290.094 149.947 289.978 149.826 289.897C149.704 289.816 149.561 289.773 149.415 289.773C149.219 289.773 149.031 289.85 148.892 289.989C148.754 290.128 148.676 290.316 148.676 290.512Z" fill="#868A91"/>
<path d="M257.777 130.343H252.503V292.279H257.777V130.343Z" fill="#B2B6BB"/>
<path opacity="0.2" d="M252.503 153.639L257.78 146.851V130.343H252.503V153.639Z" fill="black"/>
<path d="M294.903 98.3425H218.583V133.463H294.903V98.3425Z" fill="#304FFE"/>
<path opacity="0.2" d="M294.903 98.3425H218.583V133.463H294.903V98.3425Z" fill="black"/>
<path d="M293.3 98.3425H218.811V131.328H293.3V98.3425Z" fill="#304FFE"/>
<path d="M243.201 121.264H240.75V125.482H236.548V121.264H227.86V118.272L236.782 105.133H240.747V117.933H243.198L243.201 121.264ZM236.548 117.926V114.474C236.548 113.898 236.571 113.062 236.619 111.968C236.663 110.874 236.702 110.237 236.727 110.048H236.619C236.267 110.827 235.851 111.576 235.377 112.288L231.649 117.926H236.548Z" fill="#FFF59D"/>
<path d="M261.752 115.303C261.752 118.855 261.169 121.485 260.004 123.194C258.84 124.903 257.047 125.756 254.625 125.754C252.279 125.754 250.509 124.873 249.316 123.111C248.124 121.349 247.528 118.746 247.528 115.303C247.528 111.713 248.107 109.066 249.265 107.364C250.424 105.661 252.21 104.808 254.625 104.804C256.972 104.804 258.747 105.696 259.95 107.479C261.153 109.263 261.754 111.871 261.752 115.303ZM251.8 115.303C251.8 117.799 252.013 119.588 252.44 120.669C252.866 121.751 253.593 122.291 254.619 122.289C255.621 122.289 256.345 121.741 256.788 120.647C257.232 119.553 257.455 117.771 257.457 115.303C257.457 112.807 257.232 111.014 256.782 109.924C256.334 108.833 255.611 108.289 254.619 108.289C253.627 108.289 252.884 108.833 252.446 109.924C252.008 111.015 251.8 112.813 251.8 115.303Z" fill="#FFF59D"/>
<path d="M281.441 121.264H278.993V125.482H274.788V121.264H266.103V118.272L275.025 105.133H278.993V117.933H281.441V121.264ZM274.788 117.926V114.474C274.788 113.898 274.811 113.062 274.858 111.968C274.906 110.874 274.942 110.237 274.97 110.048H274.858C274.509 110.828 274.095 111.577 273.62 112.288L269.889 117.926H274.788Z" fill="#FFF59D"/>
<path d="M275.54 95.5205L276.615 97.9237C276.629 97.9474 276.65 97.9669 276.674 97.9803C276.698 97.9938 276.725 98.0008 276.753 98.0005H278.212C278.721 98.0005 279.354 97.8917 279.409 98.6149C279.409 98.8165 279.729 98.8197 279.729 98.6149C279.633 97.3349 278.033 97.6869 277.149 97.6869H276.829C276.66 97.6869 276.916 97.8341 276.858 97.7029L276.5 96.8965C276.269 96.3845 276.04 95.8725 275.812 95.3605C275.729 95.1781 275.457 95.3381 275.54 95.5205Z" fill="#21252B"/>
<path d="M276.762 97.7023C275.937 97.7023 274.589 97.4399 274.522 98.6303C274.522 98.8351 274.842 98.8351 274.842 98.6303C274.865 98.1791 275.162 98.0159 275.559 98.0159H276.756C276.798 98.0159 276.839 97.9989 276.869 97.9689C276.899 97.9388 276.916 97.8981 276.916 97.8559C276.916 97.8133 276.899 97.7727 276.869 97.7426C276.839 97.7125 276.798 97.6959 276.756 97.6959" fill="#21252B"/>
<path d="M267.453 91.4556C267.453 91.4556 273.146 86.2492 275.044 84.1564C276.942 82.0636 279.377 80.8956 281.764 81.5772C284.151 82.2588 285.703 84.886 284.877 88.1948C284.052 91.5036 280.225 96.3676 275.047 96.1244C269.87 95.8812 268.18 92.4284 267.453 91.4556Z" fill="#DADDDF"/>
<path opacity="0.1" d="M267.453 91.4556C267.453 91.4556 273.146 86.2492 275.044 84.1564C276.942 82.0636 279.377 80.8956 281.764 81.5772C284.151 82.2588 285.703 84.886 284.877 88.1948C284.052 91.5036 280.225 96.3676 275.047 96.1244C269.87 95.8812 268.18 92.4284 267.453 91.4556Z" fill="#FDD835"/>
<path d="M269.203 93.7212C269.562 93.9743 269.976 94.1372 270.412 94.1964C270.847 94.2552 271.289 94.2088 271.703 94.0604C271.703 94.0604 270.951 94.8924 272.285 95.0588C273.619 95.2252 276.368 94.1404 276.368 94.1404C276.368 94.1404 275.728 95.1356 276.714 95.078C277.7 95.0204 279.764 93.878 281.46 92.1404C283.156 90.4028 285.553 87.6188 284.045 84.342C282.836 81.7148 278.996 80.006 273.52 86.1372L269.203 93.7212Z" fill="#FCEB55"/>
<path d="M281.761 81.5772C279.377 80.8956 276.942 82.0636 275.041 84.1564C274.366 84.902 273.204 86.0444 271.994 87.206L273.3 88.518L275.719 86.6972C275.719 86.6972 275.719 84.7548 277.319 84.5948C279.662 84.3644 279.31 89.1772 285.076 86.6588C285.159 84.0988 283.742 82.1468 281.742 81.5772" fill="#304FFE"/>
<path opacity="0.2" d="M281.761 81.5772C279.377 80.8956 276.942 82.0636 275.041 84.1564C274.366 84.902 273.204 86.0444 271.994 87.206L273.3 88.518L275.719 86.6972C275.719 86.6972 275.719 84.7548 277.319 84.5948C279.662 84.3644 279.31 89.1772 285.076 86.6588C285.159 84.0988 283.742 82.1468 281.742 81.5772" fill="black"/>
<path d="M282.734 85.5686C282.734 85.7232 282.689 85.8743 282.602 86.0026C282.516 86.1312 282.394 86.2311 282.25 86.2903C282.106 86.3491 281.95 86.3645 281.799 86.3341C281.649 86.3037 281.508 86.2291 281.399 86.1194C281.29 86.0099 281.217 85.8704 281.188 85.7187C281.156 85.5674 281.172 85.4103 281.233 85.2675C281.29 85.1248 281.393 85.0032 281.521 84.9178C281.649 84.8323 281.802 84.7872 281.956 84.7878C282.058 84.7878 282.161 84.808 282.254 84.8474C282.35 84.8864 282.436 84.944 282.506 85.0166C282.58 85.0893 282.638 85.1754 282.676 85.2701C282.714 85.3648 282.734 85.4662 282.734 85.5686Z" fill="black"/>
<path d="M284.922 84.9827C284.922 84.9827 286.541 85.7859 286.577 86.1155C286.612 86.4451 285.012 87.5075 285.012 87.5075C285.012 87.5075 284.289 85.9683 284.922 84.9827Z" fill="#3F4249"/>
<path d="M274.81 95.7826L275.885 98.1826C275.899 98.2072 275.919 98.2277 275.943 98.2418C275.967 98.2558 275.995 98.2632 276.023 98.2626H277.482C277.994 98.2626 278.625 98.1538 278.679 98.877C278.695 99.0786 278.999 99.0786 278.999 98.877C278.903 97.597 277.303 97.9458 276.439 97.9458H276.119C275.946 97.9458 276.202 98.093 276.145 97.965L275.783 97.1586L275.095 95.6226C275.012 95.437 274.74 95.597 274.823 95.7826" fill="#21252B"/>
<path d="M276.023 97.9334C275.197 97.9334 273.853 97.671 273.783 98.8646C273.783 99.0694 274.103 99.0662 274.103 98.8646C274.125 98.4134 274.423 98.2502 274.82 98.2502H276.017C276.059 98.2502 276.1 98.2332 276.13 98.2035C276.16 98.1734 276.177 98.1328 276.177 98.0902C276.177 98.0476 276.16 98.007 276.13 97.9769C276.1 97.9472 276.059 97.9302 276.017 97.9302" fill="#21252B"/>
<path d="M264.34 93.0596C264.34 93.0596 271.082 87.3508 272.798 86.4356C274.513 85.5204 277.306 85.7668 278.014 88.1956C278.791 90.8708 276.126 95.6388 268.602 93.0596L266.334 96.6148L264.34 93.0596Z" fill="#304FFE"/>
<path opacity="0.2" d="M269.008 91.3022C269.008 91.3022 269.392 91.9422 271.364 90.3806C271.364 90.3806 270.525 91.4878 271.207 91.6606C271.888 91.8334 273.722 90.5278 273.722 90.5278C273.722 90.5278 272.788 91.4558 273.572 91.7246C274.356 91.9934 275.652 90.851 275.946 90.1758C276.24 89.5006 276.884 87.9166 275.604 87.2062C274.324 86.4958 272.119 87.331 270.596 88.5534C269.072 89.7758 268.64 90.5758 268.996 91.3022" fill="white"/>
<path d="M282.334 85.5072C282.334 85.5402 282.324 85.5728 282.308 85.6003C282.289 85.6282 282.263 85.6502 282.235 85.663C282.203 85.6762 282.171 85.68 282.135 85.6739C282.103 85.6678 282.075 85.6522 282.052 85.6291C282.027 85.6061 282.011 85.5763 282.004 85.544C281.998 85.5117 282.001 85.4781 282.014 85.4474C282.027 85.417 282.046 85.3907 282.075 85.3722C282.103 85.3539 282.135 85.344 282.167 85.344C282.212 85.344 282.254 85.361 282.283 85.3917C282.315 85.4221 282.334 85.4637 282.334 85.5072Z" fill="white"/>
<path d="M304.82 279.836C304.5 280.655 304.202 281.478 303.892 282.3C303.879 282.325 303.86 282.346 303.837 282.361C303.815 282.376 303.789 282.385 303.761 282.387L302.305 282.476C301.796 282.508 301.156 282.438 301.146 283.164C301.146 283.366 300.826 283.388 300.826 283.183C300.826 281.903 302.458 282.15 303.341 282.095L303.661 282.076C303.834 282.076 303.588 282.227 303.636 282.095L303.956 281.267C304.151 280.742 304.349 280.217 304.548 279.692C304.618 279.503 304.9 279.647 304.829 279.836" fill="#21252B"/>
<path d="M303.741 282.07C304.564 282.019 305.892 281.676 306.023 282.86C306.045 283.065 305.732 283.081 305.703 282.88C305.652 282.432 305.344 282.288 304.948 282.313L303.754 282.387C303.712 282.389 303.671 282.375 303.639 282.347C303.607 282.319 303.588 282.279 303.584 282.236C303.581 282.194 303.597 282.152 303.623 282.121C303.652 282.089 303.693 282.069 303.735 282.067" fill="#21252B"/>
<path d="M312.66 275.277C312.66 275.277 306.654 270.432 304.631 268.461C302.609 266.49 300.106 265.475 297.77 266.304C295.434 267.133 294.026 269.863 295.06 273.101C296.094 276.339 300.212 280.97 305.361 280.41C310.51 279.85 311.982 276.295 312.65 275.29" fill="#DADDDF"/>
<path opacity="0.1" d="M312.66 275.277C312.66 275.277 306.654 270.432 304.631 268.461C302.609 266.49 300.106 265.475 297.77 266.304C295.434 267.133 294.026 269.863 295.06 273.101C296.094 276.339 300.212 280.97 305.361 280.41C310.51 279.85 311.982 276.295 312.65 275.29" fill="black"/>
<path d="M311.038 277.648C310.695 277.922 310.292 278.111 309.863 278.196C309.431 278.282 308.989 278.263 308.567 278.141C308.567 278.141 309.367 278.925 308.045 279.174C306.724 279.424 303.914 278.512 303.914 278.512C303.914 278.512 304.625 279.472 303.63 279.472C302.634 279.472 300.51 278.467 298.708 276.835C296.906 275.203 294.343 272.576 295.645 269.213C296.692 266.515 300.417 264.57 306.263 270.352L311.038 277.648Z" fill="#FCEB55"/>
<path d="M297.758 266.304C300.094 265.475 302.593 266.493 304.618 268.461C305.338 269.165 306.567 270.234 307.85 271.318L306.625 272.707L304.097 271.04C304.097 271.04 303.985 269.12 302.356 269.043C300.004 268.957 300.65 273.738 294.743 271.581C294.5 269.021 295.793 266.998 297.758 266.304Z" fill="#304FFE"/>
<path opacity="0.2" d="M297.758 266.304C300.094 265.475 302.593 266.493 304.618 268.461C305.338 269.165 306.567 270.234 307.85 271.318L306.625 272.707L304.097 271.04C304.097 271.04 303.985 269.12 302.356 269.043C300.004 268.957 300.65 273.738 294.743 271.581C294.5 269.021 295.793 266.998 297.758 266.304Z" fill="black"/>
<path d="M297.031 270.346C297.04 270.499 297.095 270.646 297.188 270.769C297.284 270.89 297.408 270.982 297.556 271.032C297.7 271.082 297.856 271.088 298.007 271.048C298.154 271.009 298.288 270.927 298.391 270.811C298.49 270.696 298.557 270.553 298.576 270.401C298.599 270.249 298.573 270.094 298.506 269.956C298.439 269.818 298.333 269.703 298.199 269.625C298.068 269.547 297.914 269.511 297.76 269.52C297.556 269.533 297.364 269.628 297.226 269.782C297.088 269.937 297.018 270.14 297.031 270.346Z" fill="black"/>
<path d="M294.81 269.898C294.81 269.898 293.246 270.8 293.23 271.13C293.214 271.459 294.878 272.41 294.878 272.41C294.878 272.41 295.518 270.81 294.81 269.882" fill="#3F4249"/>
<path d="M305.572 280.039L304.644 282.503C304.631 282.528 304.612 282.55 304.589 282.565C304.567 282.58 304.541 282.589 304.513 282.59L303.06 282.679C302.548 282.711 301.911 282.644 301.898 283.367C301.898 283.569 301.578 283.591 301.578 283.386C301.597 282.106 303.213 282.353 304.093 282.298L304.413 282.279C304.583 282.279 304.337 282.433 304.388 282.298L304.708 281.473L305.3 279.898C305.37 279.706 305.652 279.85 305.581 280.039" fill="#21252B"/>
<path d="M304.493 282.273C305.319 282.221 306.644 281.879 306.775 283.066C306.797 283.268 306.484 283.287 306.455 283.085C306.404 282.634 306.096 282.49 305.7 282.515L304.506 282.589C304.464 282.592 304.423 282.577 304.391 282.549C304.359 282.521 304.34 282.481 304.336 282.439C304.333 282.396 304.349 282.355 304.375 282.323C304.404 282.291 304.445 282.272 304.487 282.269" fill="#21252B"/>
<path d="M315.86 276.689C315.86 276.689 308.775 271.405 307.009 270.609C305.242 269.812 302.468 270.221 301.911 272.689C301.3 275.409 304.257 280.004 311.604 276.964L314.087 280.369L315.86 276.689Z" fill="#304FFE"/>
<path opacity="0.2" d="M311.085 275.227C311.085 275.227 310.743 275.899 308.676 274.452C308.676 274.452 309.581 275.505 308.913 275.732C308.244 275.959 306.33 274.772 306.33 274.772C306.33 274.772 307.322 275.639 306.554 275.956C305.786 276.273 304.426 275.214 304.09 274.555C303.754 273.895 303.015 272.359 304.25 271.572C305.485 270.785 307.735 271.479 309.329 272.606C310.922 273.732 311.409 274.503 311.085 275.252" fill="white"/>
<path d="M297.428 270.263C297.441 270.297 297.463 270.327 297.492 270.347C297.524 270.368 297.559 270.377 297.595 270.375C297.633 270.373 297.665 270.359 297.694 270.335C297.723 270.312 297.742 270.28 297.748 270.244C297.755 270.219 297.751 270.193 297.748 270.168C297.742 270.143 297.729 270.12 297.713 270.101C297.694 270.081 297.675 270.066 297.649 270.056C297.627 270.046 297.601 270.041 297.575 270.043C297.55 270.044 297.524 270.052 297.502 270.064C297.479 270.077 297.46 270.095 297.447 270.116C297.431 270.138 297.425 270.162 297.422 270.188C297.419 270.213 297.419 270.239 297.428 270.263Z" fill="white"/>
<path d="M246.756 278.986C245.425 277.386 243.911 275.818 242.753 274.099C242.497 273.719 241.169 271.28 242.266 271.578C243.364 271.875 244.33 273.719 244.794 274.615C245.258 275.511 245.754 276.403 246.18 277.319C246.397 277.71 246.578 278.12 246.721 278.544C246.721 278.599 246.849 279.091 246.756 278.986C246.922 279.181 245.754 277.792 246.756 278.986Z" fill="#304FFE"/>
<path d="M252.122 292.262C252.106 291.696 252.02 291.134 251.866 290.589C251.546 289.482 251.04 288.439 250.372 287.501C248.977 285.497 247.034 283.609 244.717 282.749C244.181 282.54 243.621 282.397 243.05 282.323C242.781 282.294 241.949 282.166 241.741 282.403C241.533 282.64 241.796 282.589 242.001 282.675C242.409 282.858 242.803 283.072 243.178 283.315C246.698 285.478 250.858 288.006 251.789 292.275L252.122 292.262Z" fill="#304FFE"/>
<path opacity="0.2" d="M252.122 292.262C252.106 291.696 252.02 291.134 251.866 290.589C251.546 289.482 251.04 288.439 250.372 287.501C248.977 285.497 247.034 283.609 244.717 282.749C244.181 282.54 243.621 282.397 243.05 282.323C242.781 282.294 241.949 282.166 241.741 282.403C241.533 282.64 241.796 282.589 242.001 282.675C242.409 282.858 242.803 283.072 243.178 283.315C246.698 285.478 250.858 288.006 251.789 292.275L252.122 292.262Z" fill="black"/>
<path d="M252.891 292.263C252.689 288.99 251.716 285.838 250.651 282.756C250.167 281.354 249.691 279.934 249.089 278.574C248.363 276.929 247.473 275.332 246.603 273.774C246.19 273.031 245.764 272.298 245.303 271.585C245.095 271.265 244.881 270.945 244.663 270.625C244.574 270.506 244.145 270.106 244.142 269.966C244.142 269.758 244.337 269.93 244.462 270.001C244.753 270.185 245.03 270.392 245.291 270.618C245.919 271.169 246.493 271.779 247.006 272.439C248.116 273.831 249.026 275.371 249.71 277.015C250.337 278.648 250.879 280.312 251.332 282.001C251.923 283.948 252.39 285.93 252.727 287.937C252.874 288.835 252.974 289.741 253.028 290.65C253.047 291.034 253.054 291.418 253.051 291.802C253.051 291.895 253.092 292.164 253.051 292.234C253.015 292.231 252.903 292.462 252.891 292.263Z" fill="#304FFE"/>
<path opacity="0.2" d="M252.891 292.263C252.689 288.99 251.716 285.838 250.651 282.756C250.167 281.354 249.691 279.934 249.089 278.574C248.363 276.929 247.473 275.332 246.603 273.774C246.19 273.031 245.764 272.298 245.303 271.585C245.095 271.265 244.881 270.945 244.663 270.625C244.574 270.506 244.145 270.106 244.142 269.966C244.142 269.758 244.337 269.93 244.462 270.001C244.753 270.185 245.03 270.392 245.291 270.618C245.919 271.169 246.493 271.779 247.006 272.439C248.116 273.831 249.026 275.371 249.71 277.015C250.337 278.648 250.879 280.312 251.332 282.001C251.923 283.948 252.39 285.93 252.727 287.937C252.874 288.835 252.974 289.741 253.028 290.65C253.047 291.034 253.054 291.418 253.051 291.802C253.051 291.895 253.092 292.164 253.051 292.234C253.015 292.231 252.903 292.462 252.891 292.263Z" fill="black"/>
<path d="M252.781 292.263H253.05C253.05 292.084 253.015 291.895 253.008 291.755C252.976 290.962 252.894 290.172 252.762 289.39C252.486 287.681 251.975 286.019 251.242 284.452C249.876 281.572 247.86 278.958 245.021 277.444C244.752 277.303 241.597 275.905 241.501 276.331C241.447 276.535 242.538 277.131 242.711 277.255C243.271 277.662 243.824 278.084 244.362 278.535C246.727 280.455 248.999 282.574 250.49 285.255C251.653 287.442 252.428 289.812 252.781 292.263Z" fill="#304FFE"/>
<path d="M254.27 292.262H254.398C254.398 292.058 254.398 291.85 254.398 291.645C254.398 291.066 254.398 290.486 254.372 289.907C254.34 288.605 254.276 287.299 254.154 286.003C253.937 283.613 253.681 281.229 252.852 278.963C252.666 278.442 252.452 277.93 252.212 277.431C252.167 277.344 251.838 276.586 251.735 276.736C251.7 276.79 251.78 277.075 251.79 277.139C251.825 277.357 251.863 277.574 251.898 277.779C251.988 278.307 252.081 278.832 252.18 279.357C252.618 281.709 253.194 284.032 253.559 286.397C253.854 288.352 254.074 290.304 254.27 292.262Z" fill="#304FFE"/>
<path opacity="0.2" d="M254.27 292.262H254.398C254.398 292.058 254.398 291.85 254.398 291.645C254.398 291.066 254.398 290.486 254.372 289.907C254.34 288.605 254.276 287.299 254.154 286.003C253.937 283.613 253.681 281.229 252.852 278.963C252.666 278.442 252.452 277.93 252.212 277.431C252.167 277.344 251.838 276.586 251.735 276.736C251.7 276.79 251.78 277.075 251.79 277.139C251.825 277.357 251.863 277.574 251.898 277.779C251.988 278.307 252.081 278.832 252.18 279.357C252.618 281.709 253.194 284.032 253.559 286.397C253.854 288.352 254.074 290.304 254.27 292.262Z" fill="white"/>
<path d="M256.321 285.517C256.157 284.154 256.207 282.774 256.468 281.427C256.584 280.63 256.777 279.845 257.044 279.085C257.337 278.374 257.709 277.698 258.154 277.072C258.327 276.816 258.5 276.56 258.666 276.301C258.714 276.224 258.986 275.661 259.054 275.661C259.345 275.629 259.012 276.941 258.954 277.142C258.718 277.862 258.404 278.553 258.017 279.203C257.629 279.9 257.331 280.643 257.13 281.414C256.899 282.215 256.711 283.028 256.567 283.85C256.506 284.218 256.458 284.586 256.433 284.957C256.45 285.102 256.45 285.25 256.433 285.395C256.439 285.334 256.34 285.744 256.321 285.517Z" fill="#304FFE"/>
<path opacity="0.2" d="M256.321 285.517C256.157 284.154 256.207 282.774 256.468 281.427C256.584 280.63 256.777 279.845 257.044 279.085C257.337 278.374 257.709 277.698 258.154 277.072C258.327 276.816 258.5 276.56 258.666 276.301C258.714 276.224 258.986 275.661 259.054 275.661C259.345 275.629 259.012 276.941 258.954 277.142C258.718 277.862 258.404 278.553 258.017 279.203C257.629 279.9 257.331 280.643 257.13 281.414C256.899 282.215 256.711 283.028 256.567 283.85C256.506 284.218 256.458 284.586 256.433 284.957C256.45 285.102 256.45 285.25 256.433 285.395C256.439 285.334 256.34 285.744 256.321 285.517Z" fill="black"/>
<path d="M255.55 274.663C255.61 275.274 255.655 275.888 255.703 276.503C255.914 279.258 256.023 282.023 255.991 284.781C255.959 287.021 255.895 289.93 255.962 292.272H256.177C256.177 291.834 256.177 291.344 256.177 291.156C256.215 290.471 256.241 289.53 256.292 288.848C256.414 287.306 256.561 285.77 256.666 284.228C256.849 281.552 257.012 278.868 256.433 276.228C256.309 275.64 256.147 275.06 255.95 274.493C255.854 274.218 255.745 273.949 255.63 273.684C255.601 273.62 255.514 273.306 255.422 273.412C255.329 273.517 255.441 273.76 255.45 273.84C255.489 274.106 255.524 274.378 255.55 274.663Z" fill="#304FFE"/>
<path d="M257.71 292.583C257.857 291.303 258.03 289.62 258.148 289.034C258.484 287.332 258.871 285.642 259.326 283.968C260.055 281.284 261.178 278.682 262.321 276.151C262.618 275.492 262.916 274.829 263.23 274.176C263.313 274.01 263.87 273.092 263.55 273.108C263.39 273.108 262.996 273.575 262.868 273.693C262.606 273.935 262.357 274.19 262.122 274.458C261.661 274.969 261.242 275.517 260.871 276.096C259.296 278.544 258.676 281.376 258.145 284.199C257.682 286.974 257.375 289.773 257.226 292.583H257.71Z" fill="#304FFE"/>
<path d="M270.74 270.989C270.42 270.964 269.866 271.261 269.588 271.376C269.203 271.533 268.827 271.709 268.461 271.904C267.761 272.282 267.094 272.717 266.468 273.207C263.396 275.588 261.604 279.107 260.129 282.621C258.983 285.351 257.639 289.341 257.569 292.583H257.911C257.911 292.387 257.911 292.234 257.911 292.212C257.943 291.795 258.001 291.38 258.084 290.97C258.287 289.967 258.565 288.981 258.916 288.019C259.647 286.028 260.509 284.088 261.498 282.212C263.258 278.861 265.571 275.832 268.34 273.252C269.005 272.612 269.709 272.035 270.433 271.475C270.66 271.309 271.223 271.028 270.74 270.989Z" fill="#304FFE"/>
<path opacity="0.2" d="M270.74 270.989C270.42 270.964 269.866 271.261 269.588 271.376C269.203 271.533 268.827 271.709 268.461 271.904C267.761 272.282 267.094 272.717 266.468 273.207C263.396 275.588 261.604 279.107 260.129 282.621C258.983 285.351 257.639 289.341 257.569 292.583H257.911C257.911 292.387 257.911 292.234 257.911 292.212C257.943 291.795 258.001 291.38 258.084 290.97C258.287 289.967 258.565 288.981 258.916 288.019C259.647 286.028 260.509 284.088 261.498 282.212C263.258 278.861 265.571 275.832 268.34 273.252C269.005 272.612 269.709 272.035 270.433 271.475C270.66 271.309 271.223 271.028 270.74 270.989Z" fill="white"/>
<path d="M270.826 280.5C270.624 280.231 269.418 280.368 269.136 280.394C268.627 280.448 268.125 280.555 267.639 280.714C264.928 281.575 262.893 283.722 261.171 285.895C259.802 287.623 258.32 290.25 257.712 292.586H258.125C258.192 292.29 258.275 291.997 258.375 291.709C258.674 291.028 259.033 290.373 259.447 289.754C260.286 288.488 261.251 287.308 262.327 286.234C264.222 284.343 266.393 282.75 268.765 281.508C269.266 281.241 269.785 281.012 270.32 280.823C270.461 280.772 270.986 280.717 270.826 280.5Z" fill="#304FFE"/>
<path opacity="0.2" d="M270.826 280.5C270.624 280.231 269.418 280.368 269.136 280.394C268.627 280.448 268.125 280.555 267.639 280.714C264.928 281.575 262.893 283.722 261.171 285.895C259.802 287.623 258.32 290.25 257.712 292.586H258.125C258.192 292.29 258.275 291.997 258.375 291.709C258.674 291.028 259.033 290.373 259.447 289.754C260.286 288.488 261.251 287.308 262.327 286.234C264.222 284.343 266.393 282.75 268.765 281.508C269.266 281.241 269.785 281.012 270.32 280.823C270.461 280.772 270.986 280.717 270.826 280.5Z" fill="black"/>
<path d="M341.915 292.902C341.915 292.902 339.035 291.968 338.737 286.621C338.494 282.355 335.32 283.859 333.016 280.781C330.388 277.261 332.696 275.709 330.948 271.693C329.87 269.213 326.647 270.598 326.363 264.835C326.078 259.072 325.47 257.901 324.254 255.555C324.254 255.555 327.646 259.667 330.334 261.258C332.833 262.746 333.31 262.269 334.891 263.379C336.782 264.704 335.531 266.931 337.451 268.387C339.371 269.843 341.166 269.264 342.552 271.184C344.971 274.528 343.31 276.944 345.179 279.136C347.048 281.328 350.36 281.302 352.747 285.184C354.168 287.493 354.676 290.249 354.171 292.912L341.915 292.902Z" fill="#304FFE"/>
<path d="M348.829 292.903L331.767 268.189" stroke="black" stroke-width="0.61" stroke-linecap="round" stroke-linejoin="round"/>
<path d="M335.303 276.804L340.298 280.548" stroke="black" stroke-width="0.61" stroke-linecap="round" stroke-linejoin="round"/>
<path d="M335.505 269.802L336.126 274.505" stroke="black" stroke-width="0.61" stroke-linecap="round" stroke-linejoin="round"/>
<path d="M345.565 283.389L346.423 289.418" stroke="black" stroke-width="0.61" stroke-linecap="round" stroke-linejoin="round"/>
<path d="M349.713 292.903C349.713 292.903 346.068 284.155 346.423 278.228C346.778 272.302 348.567 270.9 347.61 266.567C346.653 262.235 343.13 261.156 344.609 255.547C346.087 249.937 348.225 249.051 347.809 236.987C347.809 236.987 349.335 245.716 353.309 250.795C356.705 255.134 358.087 256.279 356.829 264.215C355.681 271.524 357.604 272.59 359.578 275.575C361.553 278.561 362.733 286.321 360.218 292.887L349.713 292.903Z" fill="#304FFE"/>
<path opacity="0.3" d="M349.713 292.903C349.713 292.903 346.068 284.155 346.423 278.228C346.778 272.302 348.567 270.9 347.61 266.567C346.653 262.235 343.13 261.156 344.609 255.547C346.087 249.937 348.225 249.051 347.809 236.987C347.809 236.987 349.335 245.716 353.309 250.795C356.705 255.134 358.087 256.279 356.829 264.215C355.681 271.524 357.604 272.59 359.578 275.575C361.553 278.561 362.733 286.321 360.218 292.887L349.713 292.903Z" fill="white"/>
<path d="M349.383 249.322C349.383 249.322 351.943 255.187 351.879 264.95C351.828 274.23 353.018 285.75 356.096 292.902" stroke="black" stroke-width="0.61" stroke-linecap="round" stroke-linejoin="round"/>
<path d="M346.899 256.103C346.899 256.103 350.016 258.839 351.821 262.099" stroke="black" stroke-width="0.61" stroke-linecap="round" stroke-linejoin="round"/>
<path d="M353.86 262.103C353.86 262.103 353.905 265.178 351.966 269.911" stroke="black" stroke-width="0.61" stroke-linecap="round" stroke-linejoin="round"/>
<path d="M348.82 275.255C349.115 276.39 349.63 277.455 350.337 278.389C351.044 279.323 351.931 280.107 352.945 280.695" stroke="black" stroke-width="0.61" stroke-linecap="round" stroke-linejoin="round"/>
<path d="M361.018 267.757C361.018 267.757 359.61 264.365 363.578 257.578C367.546 250.791 371.373 248.791 372.858 249.658C374.944 250.861 370.845 265.338 361.018 267.757Z" fill="#304FFE"/>
<path d="M358.899 274.618C360.256 270.109 361.031 265.686 365.226 260.682" stroke="black" stroke-width="0.61" stroke-linecap="round" stroke-linejoin="round"/>
<path d="M365.425 287.117C365.425 287.117 363.364 284.041 364.814 275.565C366.263 267.088 368.724 263.619 370.574 264.029C372.57 264.477 373.71 280.87 365.425 287.117Z" fill="#304FFE"/>
<path d="M363.028 292.902C363.028 292.902 366.75 286.576 367.086 277.088" stroke="black" stroke-width="0.61" stroke-linecap="round" stroke-linejoin="round"/>
<path d="M107.329 289.274C107.329 289.274 107.508 284.199 104.698 282.656C101.889 281.114 81.3 280.301 81.3 280.301L71.252 287.28L71.7832 292.663H107.332L107.329 289.274Z" fill="#3F4249"/>
<path d="M96.1066 291.943C96.1962 291.191 96.2986 290.186 96.3658 289.84C96.5674 288.832 96.7978 287.827 97.0666 286.835C97.5354 285.247 98.1283 283.698 98.8394 282.202C99.0154 281.811 99.1914 281.421 99.3802 281.034C99.4282 280.935 99.7546 280.394 99.5722 280.394C99.4762 280.394 99.2522 280.669 99.169 280.739C99.0138 280.883 98.8662 281.035 98.7274 281.194C98.4534 281.493 98.2051 281.814 97.985 282.154C97.0538 283.607 96.6826 285.283 96.369 286.954C96.0938 288.599 95.912 290.258 95.825 291.923L96.1066 291.943Z" fill="#304FFE"/>
<path d="M103.834 279.143C103.595 279.178 103.364 279.256 103.153 279.373C102.924 279.468 102.701 279.575 102.484 279.693C102.069 279.916 101.674 280.174 101.303 280.464C99.4822 281.875 98.423 283.962 97.5462 286.045C96.8646 287.658 96.0678 290.023 96.0198 291.943H96.2214C96.2214 291.827 96.2214 291.738 96.2214 291.722C96.2447 291.473 96.2841 291.226 96.3398 290.983C96.4604 290.389 96.6252 289.805 96.8326 289.235C97.2646 288.055 97.7756 286.904 98.3622 285.792C99.4067 283.811 100.777 282.019 102.417 280.493C102.813 280.119 103.229 279.77 103.658 279.437C103.783 279.331 104.116 279.165 103.834 279.143Z" fill="#304FFE"/>
<path opacity="0.2" d="M103.834 279.143C103.595 279.178 103.364 279.256 103.153 279.373C102.924 279.468 102.701 279.575 102.484 279.693C102.069 279.916 101.674 280.174 101.303 280.464C99.4822 281.875 98.423 283.962 97.5462 286.045C96.8646 287.658 96.0678 290.023 96.0198 291.943H96.2214C96.2214 291.827 96.2214 291.738 96.2214 291.722C96.2447 291.473 96.2841 291.226 96.3398 290.983C96.4604 290.389 96.6252 289.805 96.8326 289.235C97.2646 288.055 97.7756 286.904 98.3622 285.792C99.4067 283.811 100.777 282.019 102.417 280.493C102.813 280.119 103.229 279.77 103.658 279.437C103.783 279.331 104.116 279.165 103.834 279.143Z" fill="white"/>
<path d="M103.882 284.781C103.764 284.621 103.047 284.701 102.88 284.717C102.578 284.748 102.28 284.811 101.991 284.906C100.391 285.414 99.1779 286.688 98.1507 287.978C97.2237 289.157 96.5306 290.503 96.1091 291.942H96.3395C96.3795 291.767 96.4285 291.594 96.4867 291.424C96.6666 291.019 96.8807 290.631 97.1267 290.262C97.6231 289.515 98.1923 288.818 98.8259 288.182C99.9498 287.061 101.237 286.115 102.644 285.379C102.941 285.222 103.249 285.087 103.565 284.973C103.664 284.941 103.975 284.902 103.882 284.781Z" fill="#304FFE"/>
<path opacity="0.2" d="M103.882 284.781C103.764 284.621 103.047 284.701 102.88 284.717C102.578 284.748 102.28 284.811 101.991 284.906C100.391 285.414 99.1779 286.688 98.1507 287.978C97.2237 289.157 96.5306 290.503 96.1091 291.942H96.3395C96.3795 291.767 96.4285 291.594 96.4867 291.424C96.6666 291.019 96.8807 290.631 97.1267 290.262C97.6231 289.515 98.1923 288.818 98.8259 288.182C99.9498 287.061 101.237 286.115 102.644 285.379C102.941 285.222 103.249 285.087 103.565 284.973C103.664 284.941 103.975 284.902 103.882 284.781Z" fill="black"/>
<path d="M86.4199 283.36C86.4199 283.36 89.8087 281.693 92.4743 275.238C94.6727 269.923 94.0167 266.787 92.8423 266.32C91.2007 265.673 83.3607 276.611 86.4199 283.36Z" fill="#304FFE"/>
<path opacity="0.15" d="M86.4199 283.36C86.4199 283.36 89.8087 281.693 92.4743 275.238C94.6727 269.923 94.0167 266.787 92.8423 266.32C91.2007 265.673 83.3607 276.611 86.4199 283.36Z" fill="black"/>
<path d="M84.7688 285.626C86.7688 283.143 89.412 278.653 90.4008 273.981" stroke="black" stroke-width="0.61" stroke-linecap="round" stroke-linejoin="round"/>
<path d="M80.4231 271.076C80.4231 271.076 84.1031 270.222 88.1639 264.542C91.5111 259.863 91.5847 256.66 90.5479 255.94C89.1079 254.942 78.9895 263.812 80.4231 271.076Z" fill="#304FFE"/>
<path opacity="0.15" d="M80.4231 271.076C80.4231 271.076 84.1031 270.222 88.1639 264.542C91.5111 259.863 91.5847 256.66 90.5479 255.94C89.1079 254.942 78.9895 263.812 80.4231 271.076Z" fill="black"/>
<path d="M79.3801 274.826C79.4665 270.404 83.4697 267.095 86.6729 263.181" stroke="black" stroke-width="0.61" stroke-linecap="round" stroke-linejoin="round"/>
<path d="M75.2195 270.502C75.2195 270.502 71.4435 270.467 66.2403 265.811C61.9555 261.971 61.1875 258.861 62.0419 257.933C63.2195 256.633 75.0243 263.091 75.2195 270.502Z" fill="#304FFE"/>
<path opacity="0.15" d="M75.2195 270.502C75.2195 270.502 71.4435 270.467 66.2403 265.811C61.9555 261.971 61.1875 258.861 62.0419 257.933C63.2195 256.633 75.0243 263.091 75.2195 270.502Z" fill="black"/>
<path d="M78.4388 272.663C78.4388 272.663 73.5812 270.183 69.2036 264.125" stroke="black" stroke-width="0.61" stroke-linecap="round" stroke-linejoin="round"/>
<path d="M79.5464 279.26C79.5464 279.26 76.4584 281.433 69.5176 280.681C63.796 280.06 61.3608 277.98 61.5176 276.726C61.7256 274.982 75.0824 273.353 79.5464 279.26Z" fill="#304FFE"/>
<path opacity="0.15" d="M79.5464 279.26C79.5464 279.26 76.4584 281.433 69.5176 280.681C63.796 280.06 61.3608 277.98 61.5176 276.726C61.7256 274.982 75.0824 273.353 79.5464 279.26Z" fill="black"/>
<path d="M83.0407 281.645C80.2343 279.069 77.4087 277.981 70.9543 277.588" stroke="black" stroke-width="0.61" stroke-linecap="round" stroke-linejoin="round"/>
<path d="M76.5288 261.466C76.5288 261.466 74.1544 258.529 74.4424 251.546C74.6792 245.786 76.5896 243.226 77.8536 243.297C79.6008 243.399 82.1256 256.618 76.5288 261.466Z" fill="#304FFE"/>
<path opacity="0.15" d="M76.5288 261.466C76.5288 261.466 74.1544 258.529 74.4424 251.546C74.6792 245.786 76.5896 243.226 77.8536 243.297C79.6008 243.399 82.1256 256.618 76.5288 261.466Z" fill="black"/>
<path d="M84.7686 289.264C85.1386 287.466 84.9373 285.596 84.1927 283.917C82.0263 279.236 78.1126 274.183 77.191 268.196C76.8454 265.933 75.7254 260.016 77.6262 252.781" stroke="black" stroke-width="0.61" stroke-linecap="round" stroke-linejoin="round"/>
<path d="M102.1 292.583C102.1 292.583 102.132 292.375 99.6521 288.999C97.1721 285.623 86.5961 286.516 85.5977 286.654C84.5993 286.791 83.3577 292.583 83.3577 292.583H102.1Z" fill="#868A91"/>
<path d="M90.7944 113.91C90.7944 113.91 94.516 114.419 111.63 114.063C116.257 116.873 136.318 115.087 144.225 114.342C153.367 116.038 157.886 111.609 153.825 109.222C152.574 108.483 150.503 107.942 147.502 107.827C147.697 98.3099 124.161 95.1899 117.604 109.075C114.132 106.265 106.894 106.515 106.404 110.323C99.7064 109.097 94.4168 110.483 92.004 111.923C90.74 112.694 90.26 113.478 90.7944 113.91Z" fill="white"/>
<path opacity="0.08" d="M90.7937 113.911C90.7937 113.911 94.5153 114.419 111.629 114.064C116.256 116.874 136.317 115.088 144.224 114.343C153.367 116.039 157.885 111.61 153.824 109.223C153.855 109.818 153.651 110.403 153.258 110.851C152.33 111.911 150.586 112.349 148.989 112.218C147.392 112.087 145.939 111.463 144.592 110.733C143.952 110.387 143.312 110.007 142.538 109.933C141.181 109.802 140.013 110.656 139.059 111.447C138.275 110.167 136.285 109.491 134.611 109.911C132.938 110.33 131.776 111.808 132.019 113.216C128.746 112.631 125.408 114.195 122.071 113.946C118.263 113.661 114.832 111.05 111.101 111.706C110.141 111.875 109.28 112.243 108.333 112.403C107.391 112.514 106.441 112.539 105.495 112.477C102.448 112.423 99.3985 112.813 96.3553 112.659C94.883 112.597 93.4245 112.351 92.0129 111.927C90.7393 112.695 90.2593 113.479 90.7937 113.911Z" fill="#FDD835"/>
<path d="M351.7 121.005C351.7 121.005 348.734 121.412 335.108 121.13C331.425 123.37 315.45 121.946 309.153 121.351C301.873 122.701 298.273 119.175 301.505 117.271C302.503 116.682 304.151 116.25 306.542 116.16C306.385 108.583 325.127 106.096 330.35 117.152C333.111 114.912 338.878 115.12 339.258 118.151C344.59 117.172 348.801 118.276 350.727 119.431C351.745 120.039 352.126 120.663 351.7 121.005Z" fill="white"/>
<path opacity="0.08" d="M351.7 121.004C351.7 121.004 348.734 121.411 335.108 121.129C331.425 123.369 315.45 121.945 309.153 121.35C301.873 122.7 298.273 119.174 301.505 117.27C301.482 117.744 301.642 118.209 301.956 118.566C302.695 119.411 304.084 119.763 305.358 119.654C306.599 119.508 307.799 119.107 308.878 118.476C309.374 118.154 309.93 117.936 310.513 117.836C311.591 117.731 312.522 118.412 313.281 119.043C313.921 118.032 315.489 117.484 316.823 117.817C318.158 118.15 319.063 119.331 318.887 120.451C321.495 119.984 324.154 121.232 326.807 121.033C329.841 120.803 332.567 118.726 335.546 119.254C336.298 119.385 336.993 119.683 337.748 119.808C338.497 119.895 339.255 119.916 340.007 119.868C342.433 119.824 344.862 120.134 347.287 120.012C348.458 119.962 349.62 119.767 350.743 119.43C351.745 120.038 352.126 120.662 351.7 121.004Z" fill="#FDD835"/>
<path d="M384.941 293.389H51.7379C51.6685 293.401 51.5971 293.397 51.5293 293.378C51.4611 293.359 51.3981 293.325 51.3443 293.28C51.2905 293.234 51.2477 293.177 51.2179 293.113C51.1881 293.049 51.1731 292.98 51.1731 292.909C51.1731 292.839 51.1881 292.769 51.2179 292.705C51.2477 292.641 51.2905 292.584 51.3443 292.539C51.3981 292.493 51.4611 292.459 51.5293 292.44C51.5971 292.421 51.6685 292.418 51.7379 292.429H384.941C385.012 292.418 385.082 292.421 385.149 292.44C385.217 292.459 385.281 292.493 385.335 292.539C385.389 292.584 385.431 292.641 385.46 292.705C385.492 292.769 385.508 292.839 385.508 292.909C385.508 292.98 385.492 293.049 385.46 293.113C385.431 293.177 385.389 293.234 385.335 293.28C385.281 293.325 385.217 293.359 385.149 293.378C385.082 293.397 385.012 293.401 384.941 293.389Z" fill="#B2B6BB"/>
<path d="M164.074 133.732L159.453 131.303C159.525 129.181 158.799 127.108 157.418 125.495C156.037 123.882 154.101 122.845 151.993 122.588C149.885 122.332 147.757 122.875 146.03 124.111C144.302 125.347 143.101 127.185 142.662 129.262C142.224 131.34 142.58 133.507 143.66 135.336C144.741 137.164 146.467 138.521 148.499 139.139C150.531 139.756 152.721 139.59 154.636 138.673C156.551 137.755 158.053 136.154 158.845 134.183L164.074 133.732Z" fill="white"/>
<path d="M150.987 139.673C149.783 139.663 148.595 139.401 147.498 138.905C146.402 138.409 145.421 137.689 144.619 136.792C143.817 135.894 143.211 134.839 142.841 133.694C142.47 132.549 142.343 131.339 142.467 130.142C142.591 128.945 142.964 127.787 143.562 126.742C144.16 125.697 144.969 124.789 145.939 124.076C146.908 123.362 148.016 122.859 149.191 122.599C150.366 122.338 151.583 122.326 152.762 122.563C154.733 122.979 156.496 124.07 157.748 125.647C158.999 127.225 159.66 129.19 159.617 131.203L164.631 133.843L158.958 134.339C158.307 135.918 157.202 137.267 155.783 138.217C154.363 139.167 152.694 139.674 150.987 139.673ZM150.987 122.694C149.477 122.697 147.997 123.109 146.704 123.889C145.412 124.668 144.355 125.784 143.648 127.117C142.941 128.451 142.61 129.952 142.691 131.459C142.772 132.966 143.261 134.423 144.106 135.673C144.951 136.924 146.121 137.921 147.489 138.558C148.857 139.194 150.374 139.447 151.874 139.288C153.376 139.129 154.805 138.565 156.01 137.656C157.215 136.747 158.15 135.528 158.714 134.128L158.75 134.038L163.534 133.619L159.307 131.395V131.302C159.371 129.348 158.746 127.433 157.54 125.895C156.334 124.356 154.624 123.29 152.711 122.886C152.14 122.761 151.556 122.696 150.97 122.694H150.987Z" fill="#B2B6BB"/>
<path d="M149.78 133.223L149.758 132.752C149.731 132.381 149.804 132.011 149.969 131.677C150.2 131.284 150.508 130.943 150.874 130.672C151.194 130.441 151.478 130.165 151.719 129.853C151.849 129.652 151.912 129.414 151.898 129.175C151.9 129.054 151.872 128.934 151.816 128.827C151.761 128.72 151.679 128.628 151.578 128.56C151.316 128.413 151.014 128.352 150.714 128.384C149.952 128.455 149.216 128.704 148.567 129.111L147.809 127.754C148.689 127.197 149.699 126.876 150.74 126.823C151.485 126.747 152.233 126.934 152.855 127.351C153.115 127.539 153.328 127.786 153.475 128.071C153.623 128.356 153.702 128.671 153.706 128.992C153.738 129.417 153.649 129.842 153.447 130.218C153.14 130.686 152.75 131.094 152.295 131.421C152.016 131.627 151.767 131.87 151.556 132.144C151.448 132.333 151.401 132.551 151.422 132.768L151.441 133.152L149.78 133.223ZM149.681 135.408C149.664 135.261 149.677 135.113 149.72 134.971C149.763 134.829 149.834 134.699 149.93 134.586C150.151 134.376 150.445 134.261 150.75 134.266C151.048 134.234 151.346 134.32 151.582 134.506C151.781 134.721 151.897 135 151.911 135.292C151.924 135.585 151.834 135.874 151.655 136.106C151.55 136.211 151.424 136.292 151.286 136.347C151.148 136.403 151.001 136.429 150.852 136.426C150.551 136.459 150.25 136.371 150.014 136.183C149.904 136.084 149.817 135.963 149.757 135.829C149.697 135.695 149.665 135.549 149.665 135.402L149.681 135.408Z" fill="#304FFE"/>
</svg>
