<svg width="1377" height="861" viewBox="0 0 1377 861" fill="none" xmlns="http://www.w3.org/2000/svg">
<g clip-path="url(#clip0_53364_36437)">
<rect width="1527" height="861" transform="translate(-75)" fill="url(#paint0_linear_53364_36437)"/>
<g opacity="0.15">
<path opacity="0.15" d="M483.709 709.825L483.508 709.842L483.347 709.855L483.437 709.649C483.527 709.706 483.629 709.768 483.709 709.825Z" fill="black"/>
</g>
<path d="M1405.97 804.957L1378.73 859.597L1378.02 861H-14.9683L-15.5491 859.597L-38.1586 804.957H1405.97Z" fill="#304FFE"/>
<path d="M1445.41 707.745C1449.79 710.848 1451.22 714.196 1449.59 717.482L1437.51 741.714L1437.3 742.141L1406.7 803.488H-38.773L-73.3885 719.801C-72.4473 719.815 -71.506 719.831 -70.5548 719.85C-68.7624 719.88 -66.93 719.916 -65.1076 719.948C-58.559 720.073 -52.0104 720.193 -45.4418 720.313C-10.6256 720.944 24.3504 721.504 59.3965 721.961C60.6281 721.975 61.8697 721.994 63.1113 722.01C63.3316 722.013 63.5519 722.018 63.7722 722.018C65.3443 722.04 66.9263 722.059 68.5084 722.078C77.0096 722.189 85.5108 722.287 94.022 722.383C94.032 722.38 94.032 722.383 94.052 722.383C94.9332 722.393 95.8444 722.402 96.7355 722.412C112.757 722.592 128.768 722.744 144.799 722.872C145.57 722.88 146.361 722.883 147.132 722.891C149.815 722.913 152.509 722.932 155.192 722.954C155.743 722.956 156.294 722.962 156.855 722.965C181.577 723.141 206.3 723.256 231.012 723.302C239.523 723.315 248.034 723.324 256.546 723.324C271.335 723.321 286.104 723.294 300.874 723.236C318.587 723.166 336.28 723.06 353.954 722.905C354.685 722.897 355.406 722.894 356.137 722.886C357.008 722.877 357.869 722.872 358.72 722.861C359.561 722.853 360.402 722.848 361.233 722.839C374.31 722.717 387.348 722.57 400.385 722.399C400.745 722.396 401.086 722.388 401.446 722.385C404.72 722.342 407.995 722.298 411.269 722.249C435.23 722.051 459.212 721.806 483.173 721.461C529.444 720.797 575.615 719.763 621.365 718.006C630.197 717.669 639.028 717.302 647.83 716.899C660.617 716.331 673.343 715.695 686.04 714.985C710.222 713.636 734.163 712.042 757.975 710.301C782.407 708.52 806.689 706.583 830.941 704.62C831.491 704.576 832.042 704.533 832.603 704.487C837.159 704.117 841.735 703.744 846.301 703.369C848.153 703.222 850.016 703.067 851.868 702.917C857.005 702.498 862.162 702.08 867.318 701.661C867.619 701.639 867.929 701.612 868.23 701.587C890.762 699.762 913.302 697.959 935.962 696.278H935.972C951.893 695.093 967.864 693.967 983.935 692.936C995.49 692.193 1007.1 691.5 1018.75 690.858C1024.61 690.534 1030.47 690.221 1036.34 689.922C1077.35 687.839 1118.84 686.378 1160.51 685.576C1161.46 685.554 1162.43 685.538 1163.39 685.516H1163.43C1164.71 685.492 1166 685.467 1167.3 685.446C1176.69 685.28 1186.12 685.152 1195.54 685.057C1197 685.038 1198.48 685.024 1199.94 685.013H1199.95C1203.5 684.981 1207.04 684.951 1210.59 684.929C1211.75 684.921 1212.92 684.915 1214.09 684.91C1235.07 684.793 1256.08 684.85 1277.03 685.087C1277.42 685.087 1277.8 685.095 1278.19 685.097C1325.78 685.644 1373.15 687.107 1419.76 689.547C1430.55 690.11 1441.31 690.73 1452 691.399C1448.44 693.292 1444.39 695.122 1439.9 696.877C1437.83 697.687 1435.68 698.481 1433.43 699.256L1439.9 703.856L1445.41 707.745Z" fill="#304FFE"/>
<path opacity="0.34" d="M1445.41 707.745C1449.79 710.848 1451.22 714.196 1449.59 717.482L1437.51 741.714L1437.3 742.141L1406.7 803.488H-38.773L-73.3885 719.801C-72.4473 719.815 -71.506 719.831 -70.5548 719.85C-68.7624 719.88 -66.93 719.916 -65.1076 719.948C-58.559 720.073 -52.0104 720.193 -45.4418 720.313C-10.6256 720.944 24.3504 721.504 59.3965 721.961C60.6281 721.975 61.8697 721.994 63.1113 722.01C63.3316 722.013 63.5519 722.018 63.7722 722.018C65.3443 722.04 66.9263 722.059 68.5084 722.078C77.0096 722.189 85.5108 722.287 94.022 722.383C94.032 722.38 94.032 722.383 94.052 722.383C94.9332 722.393 95.8444 722.402 96.7355 722.412C112.757 722.592 128.768 722.744 144.799 722.872C145.57 722.88 146.361 722.883 147.132 722.891C149.815 722.913 152.509 722.932 155.192 722.954C155.743 722.956 156.294 722.962 156.855 722.965C181.577 723.141 206.3 723.256 231.012 723.302C239.523 723.315 248.034 723.324 256.546 723.324C271.335 723.321 286.104 723.294 300.874 723.236C318.587 723.166 336.28 723.06 353.954 722.905C354.685 722.897 355.406 722.894 356.137 722.886C357.008 722.877 357.869 722.872 358.72 722.861C359.561 722.853 360.402 722.848 361.233 722.839C374.31 722.717 387.348 722.57 400.385 722.399C400.745 722.396 401.086 722.388 401.446 722.385C404.72 722.342 407.995 722.298 411.269 722.249C435.23 722.051 459.212 721.806 483.173 721.461C529.444 720.797 575.615 719.763 621.365 718.006C630.197 717.669 639.028 717.302 647.83 716.899C660.617 716.331 673.343 715.695 686.04 714.985C710.222 713.636 734.163 712.042 757.975 710.301C782.407 708.52 806.689 706.583 830.941 704.62C831.491 704.576 832.042 704.533 832.603 704.487C837.159 704.117 841.735 703.744 846.301 703.369C848.153 703.222 850.016 703.067 851.868 702.917C857.005 702.498 862.162 702.08 867.318 701.661C867.619 701.639 867.929 701.612 868.23 701.587C890.762 699.762 913.302 697.959 935.962 696.278H935.972C951.893 695.093 967.864 693.967 983.935 692.936C995.49 692.193 1007.1 691.5 1018.75 690.858C1024.61 690.534 1030.47 690.221 1036.34 689.922C1077.35 687.839 1118.84 686.378 1160.51 685.576C1161.46 685.554 1162.43 685.538 1163.39 685.516H1163.43C1164.71 685.492 1166 685.467 1167.3 685.446C1176.69 685.28 1186.12 685.152 1195.54 685.057C1197 685.038 1198.48 685.024 1199.94 685.013H1199.95C1203.5 684.981 1207.04 684.951 1210.59 684.929C1211.75 684.921 1212.92 684.915 1214.09 684.91C1235.07 684.793 1256.08 684.85 1277.03 685.087C1277.42 685.087 1277.8 685.095 1278.19 685.097C1325.78 685.644 1373.15 687.107 1419.76 689.547C1430.55 690.11 1441.31 690.73 1452 691.399C1448.44 693.292 1444.39 695.122 1439.9 696.877C1437.83 697.687 1435.68 698.481 1433.43 699.256L1439.9 703.856L1445.41 707.745Z" fill="white"/>
<path d="M1437.5 742.147L1406.7 804.957H-38.1716L-38.7824 803.488L-73.3979 719.802L-73.8385 718.722L-75 715.934C-69.9233 716.056 -64.8567 716.184 -59.78 716.32C-20.1781 717.376 19.2837 718.812 58.4953 720.628C59.7269 720.683 60.9385 720.74 62.1701 720.8C62.4605 720.813 62.7408 720.824 63.0312 720.841C64.5933 720.914 66.1553 720.987 67.7174 721.064C76.4889 721.48 85.2504 721.92 94.012 722.38C94.022 722.377 94.022 722.38 94.042 722.38C94.9432 722.423 95.8243 722.472 96.7255 722.519C112.536 723.356 128.307 724.251 144.018 725.214C144.789 725.263 145.58 725.309 146.351 725.358C149.064 725.518 151.778 725.69 154.481 725.861C155.052 725.894 155.603 725.932 156.164 725.967C170.482 726.867 184.751 727.822 198.99 728.828C208.082 729.468 217.164 730.131 226.226 730.817C227.127 730.887 228.018 730.953 228.919 731.023C254.152 732.943 279.225 735.024 304.098 737.265C323.484 739.014 342.809 740.855 362.124 742.702C363.867 742.87 365.619 743.036 367.361 743.205H367.371C370.886 743.54 374.391 743.874 377.915 744.214C379.467 744.358 381.029 744.505 382.571 744.655C428.151 748.982 473.961 753.148 521.184 755.928C592.467 760.127 660.677 758.264 732.511 758.18H732.521C732.982 758.177 733.422 758.177 733.873 758.177C760.188 758.155 786.482 758.039 812.787 757.821C816.231 757.791 819.666 757.761 823.11 757.728C843.367 757.544 863.644 757.301 883.893 757.005C985.327 755.509 1086.47 752.591 1186.77 748.258C1187.81 748.215 1188.85 748.171 1189.9 748.122C1192.7 748 1195.49 747.878 1198.29 747.752C1199.67 747.693 1201.05 747.63 1202.43 747.573C1205.32 747.445 1208.2 747.315 1211.07 747.184C1211.3 747.173 1211.54 747.162 1211.77 747.151C1214.54 747.026 1217.29 746.901 1220.06 746.771C1221.72 746.694 1223.39 746.616 1225.04 746.542C1227.29 746.436 1229.54 746.333 1231.79 746.229C1278.98 744.029 1326.24 741.796 1374.06 741.451C1395.19 741.301 1416.31 741.543 1437.29 742.144C1437.36 742.144 1437.43 742.144 1437.5 742.147Z" fill="#304FFE"/>
<path opacity="0.77" d="M1437.5 742.147L1406.7 804.957H-38.1716L-38.7824 803.488L-73.3979 719.802L-73.8385 718.722L-75 715.934C-69.9233 716.056 -64.8567 716.184 -59.78 716.32C-20.1781 717.376 19.2837 718.812 58.4953 720.628C59.7269 720.683 60.9385 720.74 62.1701 720.8C62.4605 720.813 62.7408 720.824 63.0312 720.841C64.5933 720.914 66.1553 720.987 67.7174 721.064C76.4889 721.48 85.2504 721.92 94.012 722.38C94.022 722.377 94.022 722.38 94.042 722.38C94.9432 722.423 95.8243 722.472 96.7255 722.519C112.536 723.356 128.307 724.251 144.018 725.214C144.789 725.263 145.58 725.309 146.351 725.358C149.064 725.518 151.778 725.69 154.481 725.861C155.052 725.894 155.603 725.932 156.164 725.967C170.482 726.867 184.751 727.822 198.99 728.828C208.082 729.468 217.164 730.131 226.226 730.817C227.127 730.887 228.018 730.953 228.919 731.023C254.152 732.943 279.225 735.024 304.098 737.265C323.484 739.014 342.809 740.855 362.124 742.702C363.867 742.87 365.619 743.036 367.361 743.205H367.371C370.886 743.54 374.391 743.874 377.915 744.214C379.467 744.358 381.029 744.505 382.571 744.655C428.151 748.982 473.961 753.148 521.184 755.928C592.467 760.127 660.677 758.264 732.511 758.18H732.521C732.982 758.177 733.422 758.177 733.873 758.177C760.188 758.155 786.482 758.039 812.787 757.821C816.231 757.791 819.666 757.761 823.11 757.728C843.367 757.544 863.644 757.301 883.893 757.005C985.327 755.509 1086.47 752.591 1186.77 748.258C1187.81 748.215 1188.85 748.171 1189.9 748.122C1192.7 748 1195.49 747.878 1198.29 747.752C1199.67 747.693 1201.05 747.63 1202.43 747.573C1205.32 747.445 1208.2 747.315 1211.07 747.184C1211.3 747.173 1211.54 747.162 1211.77 747.151C1214.54 747.026 1217.29 746.901 1220.06 746.771C1221.72 746.694 1223.39 746.616 1225.04 746.542C1227.29 746.436 1229.54 746.333 1231.79 746.229C1278.98 744.029 1326.24 741.796 1374.06 741.451C1395.19 741.301 1416.31 741.543 1437.29 742.144C1437.36 742.144 1437.43 742.144 1437.5 742.147Z" fill="white"/>
<path d="M1299 664.004C1298.99 667.477 1298.47 670.939 1297.51 674.228C1297.08 675.724 1296.55 677.185 1295.94 678.597C1295.37 679.903 1294.73 681.165 1294.02 682.374C1293.7 682.933 1293.36 683.481 1293 684.015C1290.67 687.516 1287.74 690.457 1284.35 692.505C1280.59 694.779 1276.43 695.957 1272.2 696.499H1272.2C1271.93 696.535 1271.67 696.567 1271.4 696.595C1270.09 696.739 1268.78 696.825 1267.47 696.868C1266.31 696.906 1265.15 696.912 1263.99 696.876H1263.99C1263.61 696.863 1263.23 696.848 1262.85 696.827C1259.75 696.668 1256.66 696.22 1253.66 695.378C1253.21 695.254 1252.77 695.119 1252.32 694.974C1251.61 694.744 1250.9 694.491 1250.2 694.211C1242.34 691.1 1235.61 684.994 1230.26 677.575C1229.29 676.227 1228.36 674.836 1227.48 673.408C1227.27 673.063 1227.06 672.716 1226.85 672.368C1221.08 662.657 1217.29 651.561 1213.99 640.401C1209.26 624.399 1222.73 630.303 1228.12 620.448C1230.48 616.126 1231.46 611.014 1233.03 606.232C1235 600.263 1238.05 594.607 1242.48 590.815C1243.17 590.232 1243.88 589.697 1244.63 589.221C1248.74 586.594 1253.69 585.652 1258.11 587.391C1260.71 588.416 1262.94 590.258 1264.81 592.576C1267.19 595.518 1269 599.227 1270.3 602.993C1272.61 609.72 1273.7 616.964 1276.2 623.604C1276.97 625.641 1277.87 627.634 1279.17 629.268C1280.89 631.441 1283.2 632.846 1285.3 634.507C1293.59 641.052 1299.03 652.383 1299 664.004Z" fill="#304FFE"/>
<path opacity="0.51" d="M1299 664.004C1298.99 667.477 1298.47 670.939 1297.51 674.228C1297.08 675.724 1296.55 677.185 1295.94 678.597C1295.37 679.903 1294.73 681.165 1294.02 682.374C1293.7 682.933 1293.36 683.481 1293 684.015C1290.67 687.516 1287.74 690.457 1284.35 692.505C1280.59 694.779 1276.43 695.957 1272.2 696.499H1272.2C1271.93 696.535 1271.67 696.567 1271.4 696.595C1270.09 696.739 1268.78 696.825 1267.47 696.868C1266.31 696.906 1265.15 696.912 1263.99 696.876H1263.99C1263.61 696.863 1263.23 696.848 1262.85 696.827C1259.75 696.668 1256.66 696.22 1253.66 695.378C1253.21 695.254 1252.77 695.119 1252.32 694.974C1251.61 694.744 1250.9 694.491 1250.2 694.211C1242.34 691.1 1235.61 684.994 1230.26 677.575C1229.29 676.227 1228.36 674.836 1227.48 673.408C1227.27 673.063 1227.06 672.716 1226.85 672.368C1221.08 662.657 1217.29 651.561 1213.99 640.401C1209.26 624.399 1222.73 630.303 1228.12 620.448C1230.48 616.126 1231.46 611.014 1233.03 606.232C1235 600.263 1238.05 594.607 1242.48 590.815C1243.17 590.232 1243.88 589.697 1244.63 589.221C1248.74 586.594 1253.69 585.652 1258.11 587.391C1260.71 588.416 1262.94 590.258 1264.81 592.576C1267.19 595.518 1269 599.227 1270.3 602.993C1272.61 609.72 1273.7 616.964 1276.2 623.604C1276.97 625.641 1277.87 627.634 1279.17 629.268C1280.89 631.441 1283.2 632.846 1285.3 634.507C1293.59 641.052 1299.03 652.383 1299 664.004Z" fill="white"/>
<path d="M1248.51 655.618L1258.3 756.681L1261.81 758.313L1248.51 655.618Z" fill="#3F424A"/>
<path d="M1269.33 669.917L1256.99 721.124L1257.41 724.328L1261.81 758.313L1258.63 723.88L1269.33 669.917Z" fill="#3F424A"/>
<path d="M1251.9 681.815C1251.9 681.815 1262.7 664.765 1261.81 653.962C1261.81 653.962 1262.53 663.338 1251.74 680.593L1251.9 681.815Z" fill="#3F424A"/>
<path d="M1261.99 706.965C1261.99 706.965 1275.57 695.276 1279.33 685.174C1279.33 685.174 1276.46 693.159 1261.99 705.83V706.965Z" fill="#3F424A"/>
<path d="M126.438 662.342C127.757 659.927 128.304 657.071 129.184 654.4C130.282 651.066 131.98 647.905 134.457 645.788C136.933 643.671 140.263 642.726 143.176 643.875C146.477 645.176 148.687 648.832 149.979 652.59C151.272 656.349 151.883 660.396 153.276 664.106C153.703 665.243 154.211 666.357 154.934 667.269C155.896 668.481 157.183 669.266 158.357 670.195C162.98 673.848 166.02 680.177 166 686.67C165.98 693.162 162.784 699.587 157.825 702.591C154.946 704.333 151.645 704.924 148.4 705.029C145.143 705.135 141.842 704.771 138.759 703.547C133.387 701.416 128.952 696.771 125.731 691.345C122.509 685.919 120.395 679.722 118.553 673.487C115.912 664.551 123.43 667.848 126.438 662.342Z" fill="#304FFE"/>
<path opacity="0.34" d="M126.438 662.342C127.757 659.927 128.304 657.071 129.184 654.4C130.282 651.066 131.98 647.905 134.457 645.788C136.933 643.671 140.263 642.726 143.176 643.875C146.477 645.176 148.687 648.832 149.979 652.59C151.272 656.349 151.883 660.396 153.276 664.106C153.703 665.243 154.211 666.357 154.934 667.269C155.896 668.481 157.183 669.266 158.357 670.195C162.98 673.848 166.02 680.177 166 686.67C165.98 693.162 162.784 699.587 157.825 702.591C154.946 704.333 151.645 704.924 148.4 705.029C145.143 705.135 141.842 704.771 138.759 703.547C133.387 701.416 128.952 696.771 125.731 691.345C122.509 685.919 120.395 679.722 118.553 673.487C115.912 664.551 123.43 667.848 126.438 662.342Z" fill="white"/>
<path d="M137.816 681.987L143.281 738.443L145.244 739.355L137.816 681.987Z" fill="#3F424A"/>
<path d="M149.441 689.973L142.554 718.58L142.785 720.369L145.244 739.355L143.469 720.118L149.441 689.973Z" fill="#3F424A"/>
<path d="M139.712 696.621C139.712 696.621 145.742 687.096 145.244 681.061C145.244 681.061 145.647 686.299 139.623 695.936L139.712 696.621Z" fill="#3F424A"/>
<path d="M145.341 710.671C145.341 710.671 152.92 704.141 155.019 698.499C155.019 698.499 153.42 702.961 145.341 710.038V710.671Z" fill="#3F424A"/>
<path d="M121.212 720.341C120.089 722.403 118.821 724.406 117.397 726.337C115.977 728.261 114.404 730.113 112.663 731.876C112.178 732.373 111.678 732.858 111.166 733.339C111.166 733.339 106.523 736.856 99.5903 739.013C98.943 739.215 98.2751 739.405 97.59 739.579C94.4067 740.384 90.837 740.851 87.0682 740.578C86.639 740.547 86.2097 740.507 85.7771 740.454C77.8085 739.522 69.069 735.168 61.3099 723.758H61.3082C61.1211 723.483 60.9356 723.204 60.7485 722.919C60.2866 722.215 59.8299 721.484 59.3749 720.726C56.571 716.062 53.9252 710.392 51.5197 703.532C51.5197 703.532 48.563 685.553 56.7548 676.619C58.7602 674.432 61.4318 672.786 64.9774 672.079C64.9774 672.079 82.7809 665.044 82.1473 645.635C82.1473 645.635 81.7868 641.335 82.6916 636.15C83.7785 629.922 86.6956 622.421 94.2659 619.571C95.6171 619.064 97.1195 618.704 98.7833 618.526C98.7833 618.526 110.423 617.226 117.869 632.643C117.869 632.643 128.58 657.438 128.989 684.407C129.169 696.643 127.234 709.327 121.212 720.341Z" fill="#304FFE"/>
<path opacity="0.51" d="M121.212 720.341C120.089 722.403 118.821 724.406 117.397 726.337C115.977 728.261 114.404 730.113 112.663 731.876C112.178 732.373 111.678 732.858 111.166 733.339C111.166 733.339 106.523 736.856 99.5903 739.013C98.943 739.215 98.2751 739.405 97.59 739.579C94.4067 740.384 90.837 740.851 87.0682 740.578C86.639 740.547 86.2097 740.507 85.7771 740.454C77.8085 739.522 69.069 735.168 61.3099 723.758H61.3082C61.1211 723.483 60.9356 723.204 60.7485 722.919C60.2866 722.215 59.8299 721.484 59.3749 720.726C56.571 716.062 53.9252 710.392 51.5197 703.532C51.5197 703.532 48.563 685.553 56.7548 676.619C58.7602 674.432 61.4318 672.786 64.9774 672.079C64.9774 672.079 82.7809 665.044 82.1473 645.635C82.1473 645.635 81.7868 641.335 82.6916 636.15C83.7785 629.922 86.6956 622.421 94.2659 619.571C95.6171 619.064 97.1195 618.704 98.7833 618.526C98.7833 618.526 110.423 617.226 117.869 632.643C117.869 632.643 128.58 657.438 128.989 684.407C129.169 696.643 127.234 709.327 121.212 720.341Z" fill="white"/>
<path d="M79.4177 716.155C79.9465 716.658 80.508 717.115 81.0969 717.519C81.4626 717.772 82.2026 717.995 82.4722 718.373C82.5855 718.532 83.0697 721.692 83.2002 722.601C83.4251 724.174 83.6501 725.747 83.8767 727.319C84.7919 733.697 85.7156 740.072 86.6497 746.446C88.3117 757.784 89.9909 769.12 91.8058 780.427C92.4205 784.256 93.0437 788.084 93.7477 791.893C94.0791 793.688 94.3006 795.727 94.9685 797.413L96.8778 795.612L98.6909 795.384C98.6909 795.384 85.8409 737.741 83.4852 720.574C83.0182 717.176 82.5563 713.778 82.0258 710.392L76.6276 675.84C76.6276 675.84 79.2803 695.086 82.5838 718.277L79.4177 716.155Z" fill="#3F424A"/>
<path d="M96.9686 786.524L102.456 686.99L103.395 664.353L94.0583 785.315L96.9686 786.524Z" fill="#3F424A"/>
<path d="M101.503 682.877C95.8424 680.443 93.0489 669.433 93.0489 669.433C93.0489 669.433 95.5729 679.024 102.163 682.877H101.503Z" fill="#3F424A"/>
<path d="M101.503 712.967C115.96 702.212 117.723 686.845 117.723 686.845C117.723 686.845 116.575 698.569 100.682 711.983L101.503 712.967Z" fill="#3F424A"/>
<path d="M80.5919 704.225C80.5919 704.225 88.9623 683.287 85.7601 669.839C85.7601 669.839 88.2943 678.525 80.5919 701.209V704.225Z" fill="#3F424A"/>
<path d="M82.5749 714.049C82.5749 714.049 88.8453 700.76 87.0064 694.405C87.0064 694.405 88.2186 701.979 82.374 712.672L82.5749 714.049Z" fill="#3F424A"/>
<path d="M128 204.192C137.941 204.192 146 196.134 146 186.192C146 176.251 137.941 168.192 128 168.192C118.059 168.192 110 176.251 110 186.192C110 196.134 118.059 204.192 128 204.192Z" fill="white"/>
<path d="M1219 511.395C1219 511.395 1213.66 508.145 1209.67 513.401C1209.67 513.401 1212.76 507.802 1208 503C1208 503 1211.34 508.93 1208.87 514.849C1208.86 514.846 1214.17 510.48 1219 511.395Z" fill="#3F424A"/>
<path d="M1202 511.395C1202 511.395 1196.66 508.145 1192.67 513.401C1192.67 513.401 1195.76 507.802 1191 503C1191 503 1194.34 508.93 1191.87 514.849C1191.87 514.846 1197.17 510.48 1202 511.395Z" fill="#3F424A"/>
</g>
<defs>
<linearGradient id="paint0_linear_53364_36437" x1="764" y1="861.396" x2="764" y2="-1.65196e-05" gradientUnits="userSpaceOnUse">
<stop stop-color="#F7F7F7" stop-opacity="0.14"/>
<stop offset="1" stop-color="#4A65FE" stop-opacity="0.47"/>
</linearGradient>
<clipPath id="clip0_53364_36437">
<rect width="1377" height="861" fill="white"/>
</clipPath>
</defs>
</svg>
